<svg height="512pt" viewBox="-5 0 512 512" width="512pt" xmlns="http://www.w3.org/2000/svg"><path d="m198.71875 186.859375c16.824219-16.03125 35.289062-31.402344 50.652344-48.785156 6.90625-7.808594 12.609375-16.832031 16.703125-26.660157 2.519531-6.054687 4.367187-12.734374 5.601562-19.429687.972657-5.28125 5.539063-9.136719 10.90625-9.136719 6.417969 0 11.5 5.433594 11.070313 11.835938-.5625 8.363281-2.152344 16.671875-4.480469 24.710937-.40625 1.378907-.847656 2.742188-1.308594 4.097657 9.769531 1.109374 19.695313 2.152343 29.125 1.441406 13.875-1.195313 23.625-10.25 33.738281-18.867188 3.234376-2.761718 8.089844-2.847656 11.429688 0 3.703125 3.15625 4.148438 8.71875.992188 12.421875-11.207032 13.15625-24.386719 26.582031-41.40625 30.90625-15.371094 3.90625-32.496094 3.746094-48.277344 4.875-.382813.027344-.757813.011719-1.140625.011719-13.742188 20.691406-32.019531 39.011719-47.683594 57.546875-.40625.480469-.859375.960937-1.324219 1.40625-7.105468 6.785156-18.3125 6.613281-25.214844-.308594-7.136718-7.160156-6.703124-19.097656.617188-26.066406zm0 0" fill="#bc8871"/><path d="m58.234375 126.085938c9.554687-4.070313 20.660156.277343 25.363281 9.535156 5.484375 10.796875 11.347656 21.488281 16.300782 32.53125 5.421874 12.085937 10.59375 28.976562 24.121093 34.394531 11.636719 4.664063 28.160157.984375 40.410157.550781 28.257812-1 55.457031-2.773437 83.15625 4.679688 13.324218 3.585937 25.671874 8.769531 37.015624 15.332031 11.449219 6.625 24.292969 10.464844 37.507813 11.003906l.226563.007813c14.285156.585937 29.40625 2.628906 43.523437-.191406 28.929687-5.777344 48.894531-32.738282 69.992187-51.117188 3.699219-3.230469 9.355469-3.242188 13.070313.242188 3.859375 3.613281 3.953125 9.742187.480469 13.730468-21.6875 24.925782-43.425782 55.261719-76.246094 64.945313-4.171875 1.230469-8.425781 2.113281-12.730469 2.75-11.941406 1.777343-18.425781 14.910156-12.730469 25.554687 1.746094 3.269532 3.414063 6.605469 4.992188 10 5.355469 11.511719 14.871094 28.300782 19.515625 44.535156 5.355469 18.730469 4.226563 36.714844-17.261719 44.992188-17.273437 6.652344-36.855468-2.21875-43.4375-19.519531l-17.261718-45.367188c-8.933594-23.417969-24.714844-44.507812-46.519532-57.320312-25.546875-15.007813-54.652344-13.628907-83.289062-14.640625-19.175782-.679688-39.339844.84375-57.25-7.226563-36.40625-16.414062-45.492188-60.230469-59.394532-93.753906-4.0625-9.792969.367188-21.351563 10.445313-25.648437zm0 0" fill="#bc8871"/><path d="m47.785156 151.738281c13.902344 33.523438 22.984375 77.332031 59.398438 93.746094 17.90625 8.078125 38.070312 6.554687 57.25 7.234375 28.636718 1.007812 57.742187-.371094 83.292968 14.640625 21.800782 12.808594 37.574219 33.902344 46.515626 57.320313l17.257812 45.367187c6.585938 17.292969 26.164062 26.164063 43.441406 19.515625 14.085938-5.421875 19.425782-15.019531 19.917969-26.257812-3.023437 3.128906-7.121094 5.792968-12.46875 7.863281-17.277344 6.65625-36.867187-2.222657-43.441406-19.519531l-17.265625-45.367188c-8.929688-23.417969-24.714844-44.507812-46.519532-57.320312-25.546874-15.011719-54.65625-13.621094-83.289062-14.640626-19.171875-.679687-39.335938.84375-57.25-7.222656-36.402344-16.421875-45.488281-60.234375-59.402344-93.757812-.636718-1.542969-1.058594-3.125-1.292968-4.730469-6.957032 5.347656-9.570313 14.867187-6.144532 23.128906zm0 0" fill="#a46a52"/><path d="m187.234375 361.570312c30.84375-30.875 86.515625-51.488281 150.078125-51.488281s119.238281 20.613281 150.078125 51.488281zm0 0" fill="#cbd359"/><path d="m187.230469 361.574219h41.898437c31.410156-29.125 85.429688-48.335938 146.800782-48.335938 1.328124 0 2.65625.007813 3.984374.03125-13.640624-2.082031-27.90625-3.183593-42.597656-3.183593-63.5625 0-119.242187 20.613281-150.085937 51.488281zm0 0" fill="#bec121"/><path d="m.0429688 358.371094 10.1445312 111.578125c.484375 5.320312 4.945312 9.394531 10.285156 9.394531h460.699219c5.34375 0 9.804687-4.070312 10.289063-9.394531l10.140624-111.578125c.550782-6.023438-4.195312-11.21875-10.246093-11.21875h-481.066407c-6.050781 0-10.792968 5.195312-10.2460932 11.21875zm0 0" fill="#edf1d3"/><path d="m40.027344 469.949219-11.167969-122.796875h-18.570313c-6.050781 0-10.792968 5.195312-10.2460932 11.21875l10.1445312 111.578125c.484375 5.320312 4.941406 9.394531 10.289062 9.394531h29.839844c-5.351562 0-9.804687-4.078125-10.289062-9.394531zm0 0" fill="#d0daad"/><path d="m392.300781 512h25.722657c5.683593 0 10.289062-4.605469 10.289062-10.289062v-40.75c0-5.683594-4.605469-10.289063-10.289062-10.289063h-25.722657c-5.683593 0-10.289062 4.605469-10.289062 10.289063v40.75c0 5.683593 4.605469 10.289062 10.289062 10.289062zm0 0" fill="#ff9b36"/><path d="m83.621094 512h25.722656c5.683594 0 10.289062-4.605469 10.289062-10.289062v-40.75c0-5.683594-4.605468-10.289063-10.289062-10.289063h-25.722656c-5.683594 0-10.289063 4.605469-10.289063 10.289063v40.75c0 5.683593 4.605469 10.289062 10.289063 10.289062zm0 0" fill="#ff9b36"/><path d="m391.015625 170.535156c0 28.558594 23.152344 51.710938 51.710937 51.710938 28.558594 0 51.710938-23.152344 51.710938-51.710938s-23.152344-78.398437-51.710938-78.398437c-28.558593 0-51.710937 49.839843-51.710937 78.398437zm0 0" fill="#77bc4d"/><path d="m391.019531 170.535156c-.003906 17.671875 8.863281 33.273438 22.378907 42.59375-5.75-8.335937-9.117188-18.4375-9.109376-29.324218 0-28.554688 23.152344-78.394532 51.707032-78.394532 6.023437-.003906 11.804687 2.210938 17.175781 5.972656-8.542969-11.324218-19.0625-19.246093-30.449219-19.246093-28.554687 0-51.707031 49.839843-51.703125 78.398437zm0 0" fill="#479838"/><path d="m10.796875 128.730469c0 32.972656 26.730469 59.703125 59.703125 59.703125 32.976562 0 59.707031-26.730469 59.707031-59.703125 0-32.972657-26.730469-90.519531-59.707031-90.519531-32.972656 0-59.703125 57.546874-59.703125 90.519531zm0 0" fill="#77bc4d"/><path d="m10.800781 128.730469c-.003906 20.402343 10.234375 38.414062 25.839844 49.175781-6.636719-9.625-10.527344-21.285156-10.515625-33.855469 0-32.96875 26.730469-90.511719 59.699219-90.511719 6.953125-.007812 13.628906 2.550782 19.828125 6.894532-9.859375-13.078125-22.007813-22.222656-35.15625-22.222656-32.96875 0-59.699219 57.542968-59.695313 90.519531zm0 0" fill="#479838"/><path d="m256.542969 54.871094c0 19.992187 16.203125 36.195312 36.191406 36.195312s36.191406-16.203125 36.191406-36.195312c0-19.988282-16.203125-54.871094-36.191406-54.871094s-36.191406 34.882812-36.191406 54.871094zm0 0" fill="#77bc4d"/><path d="m256.542969 54.875c-.003907 12.367188 6.203125 23.285156 15.664062 29.808594-4.023437-5.835938-6.382812-12.902344-6.375-20.523438 0-19.984375 16.203125-54.867187 36.191407-54.867187 4.214843-.003907 8.257812 1.546875 12.019531 4.179687-5.976563-7.929687-13.34375-13.472656-21.3125-13.472656-19.984375 0-36.191407 34.882812-36.1875 54.875zm0 0" fill="#479838"/><path d="m176.714844 180.433594c0 19.988281 16.207031 36.195312 36.195312 36.195312 19.988282 0 36.191406-16.207031 36.191406-36.195312 0-19.988282-16.203124-54.871094-36.191406-54.871094-19.988281 0-36.195312 34.882812-36.195312 54.871094zm0 0" fill="#77bc4d"/><path d="m176.71875 180.433594c-.003906 12.367187 6.203125 23.289062 15.664062 29.808594-4.023437-5.832032-6.382812-12.902344-6.375-20.519532 0-19.988281 16.203126-54.871094 36.1875-54.871094 4.21875-.003906 8.261719 1.546876 12.023438 4.179688-5.980469-7.925781-13.34375-13.46875-21.3125-13.46875-19.984375 0-36.191406 34.882812-36.1875 54.871094zm0 0" fill="#479838"/></svg>