<svg height="512pt" viewBox="-139 0 512 512.00025" width="512pt" xmlns="http://www.w3.org/2000/svg"><path d="m109.777344 2.84375c-25.027344 23.605469-107.136719 117.214844-109.77343775 331.265625-.07031245 5.832031 4.65234375 10.597656 10.48437475 10.597656h212.914063c5.832031 0 10.558594-4.765625 10.484375-10.597656-2.636719-214.050781-84.746094-307.660156-109.773438-331.265625-4.019531-3.792969-10.3125-3.792969-14.335937 0zm0 0" fill="#edf1d3"/><path d="m46.542969 344.710938h-36.054688c-5.832031 0-10.5585935-4.773438-10.488281-10.601563 2.636719-214.050781 84.753906-307.664063 109.777344-331.265625 4.027344-3.792969 10.3125-3.792969 14.339844 0 2.914062 2.75 6.601562 6.449219 10.859374 11.175781-32.226562 35.871094-96.589843 130.976563-98.917968 320.089844-.074219 5.828125 4.65625 10.601563 10.484375 10.601563zm0 0" fill="#d0daad"/><path d="m130.921875 414.878906h-27.949219v-109.878906c0-7.714844 6.257813-13.972656 13.972656-13.972656 7.71875 0 13.976563 6.257812 13.976563 13.972656zm0 0" fill="#b9c394"/><path d="m140 400.441406v97.34375c0 7.847656-6.355469 14.214844-14.203125 14.214844h-17.699219c-7.851562 0-14.207031-6.367188-14.207031-14.214844v-97.34375c0-7.847656 6.355469-14.214844 14.207031-14.214844h17.699219c7.847656 0 14.203125 6.367188 14.203125 14.214844zm0 0" fill="#ff8e7d"/><path d="m140 481.609375v16.175781c0 7.847656-6.355469 14.214844-14.203125 14.214844h-17.699219c-7.851562 0-14.207031-6.367188-14.207031-14.214844v-16.175781zm0 0" fill="#f74f43"/></svg>