<svg height="512pt" viewBox="-136 0 512 512" width="512pt" xmlns="http://www.w3.org/2000/svg"><path d="m240.03125 24.003906v152.699219c0 48.0625-38.960938 87.023437-87.023438 87.023437h-65.984374c-48.0625 0-87.023438-38.960937-87.023438-87.023437v-152.699219c0-13.257812 10.746094-24.003906 24.003906-24.003906 13.257813 0 24.003906 10.746094 24.003906 24.003906v83.855469c0 13.257813 10.746094 24.003906 24 24.003906 13.257813 0 24.003907-10.746093 24.003907-24.003906v-83.855469c0-13.257812 10.746093-24.003906 24.003906-24.003906s24.003906 10.746094 24.003906 24.003906v83.855469c0 13.257813 10.746094 24.003906 24.003907 24.003906 13.253906 0 24-10.746093 24-24.003906v-83.855469c.003906-13.257812 10.75-24.003906 24.003906-24.003906 13.257812 0 24.003906 10.746094 24.003906 24.003906zm0 0" fill="#edf1d3"/><path d="m135.097656 263.726562h-48.078125c-48.058593 0-87.019531-38.960937-87.019531-87.019531v-152.703125c0-13.257812 10.746094-24.003906 24.003906-24.003906 6.632813 0 12.628906 2.6875 16.976563 7.027344 4.335937 4.34375 7.027343 10.339844 7.027343 16.976562l.070313 152.703125c0 48.058594 38.960937 87.019531 87.019531 87.019531zm0 0" fill="#d0daad"/><path d="m136.53125 397.21875h-33.03125v-181.597656c0-9.121094 7.394531-16.515625 16.515625-16.515625s16.515625 7.394531 16.515625 16.515625zm0 0" fill="#b9c394"/><path d="m147.261719 349.253906v145.945313c0 9.277343-7.511719 16.800781-16.789063 16.800781h-20.914062c-9.277344 0-16.789063-7.523438-16.789063-16.800781v-145.945313c0-9.277344 7.511719-16.800781 16.789063-16.800781h20.914062c9.277344 0 16.789063 7.523437 16.789063 16.800781zm0 0" fill="#ff8e7d"/><path d="m147.261719 476.085938v19.113281c0 9.277343-7.511719 16.800781-16.789063 16.800781h-20.914062c-9.277344 0-16.789063-7.523438-16.789063-16.800781v-19.113281zm0 0" fill="#f74f43"/></svg>