<svg height="512pt" viewBox="-48 0 512 512.00009" width="512pt" xmlns="http://www.w3.org/2000/svg"><path d="m323.539062 205.539062c0 57.714844-46.785156 104.5-104.5 104.5-57.714843 0-104.5-46.785156-104.5-104.5 0-57.714843 46.785157-104.5 104.5-104.5 57.714844 0 104.5 46.785157 104.5 104.5zm0 0" fill="#ffae4d"/><path d="m114.535156 205.542969c0-57.722657 46.789063-104.503907 104.5-104.503907 8.148438 0 16.082032.941407 23.695313 2.699219-46.296875 10.734375-80.808594 52.230469-80.808594 101.804688 0 49.5625 34.511719 91.066406 80.808594 101.800781-7.613281 1.761719-15.546875 2.699219-23.695313 2.699219-57.710937 0-104.5-46.789063-104.5-104.5zm0 0" fill="#f78721"/><g fill="#ffae4d"><path d="m219.039062 52.617188c-4.269531 0-7.726562-3.457032-7.726562-7.722657v-28.847656c0-4.265625 3.457031-7.726563 7.726562-7.726563 4.265626 0 7.726563 3.460938 7.726563 7.726563v28.84375c0 4.269531-3.460937 7.726563-7.726563 7.726563zm0 0"/><path d="m219.039062 402.761719c-4.269531 0-7.726562-3.457031-7.726562-7.726563v-28.84375c0-4.265625 3.457031-7.726562 7.726562-7.726562 4.265626 0 7.726563 3.460937 7.726563 7.726562v28.84375c0 4.269532-3.460937 7.726563-7.726563 7.726563zm0 0"/><path d="m408.53125 213.269531h-28.84375c-4.269531 0-7.726562-3.460937-7.726562-7.726562 0-4.269531 3.457031-7.726563 7.726562-7.726563h28.84375c4.269531 0 7.726562 3.457032 7.726562 7.726563 0 4.265625-3.457031 7.726562-7.726562 7.726562zm0 0"/><path d="m332.632812 99.671875c-1.976562 0-3.953124-.753906-5.464843-2.261719-3.015625-3.019531-3.015625-7.910156 0-10.929687l20.398437-20.394531c3.015625-3.015626 7.910156-3.015626 10.925782 0 3.019531 3.015624 3.019531 7.910156 0 10.925781l-20.394532 20.398437c-1.507812 1.507813-3.488281 2.261719-5.464844 2.261719zm0 0"/><path d="m353.03125 347.261719c-1.976562 0-3.957031-.753907-5.464844-2.265625l-20.394531-20.394532c-3.019531-3.015624-3.019531-7.910156 0-10.925781 3.019531-3.019531 7.910156-3.019531 10.925781 0l20.398438 20.394531c3.015625 3.019532 3.015625 7.910157 0 10.925782-1.511719 1.511718-3.488282 2.265625-5.464844 2.265625zm0 0"/></g><path d="m135.714844 339.84375v-295.828125c0-24.308594-19.707032-44.015625-44.015625-44.015625-24.308594 0-44.015625 19.707031-44.015625 44.015625v295.828125c-28.042969 15.375-47.175782 44.972656-47.6718752 79.089844-.7343748 50.027344 39.4570312 91.863281 89.4765622 93.039062 51.65625 1.21875 93.914063-40.292968 93.914063-91.671875-.003906-34.695312-19.273438-64.878906-47.6875-80.457031zm0 0" fill="#edf1d3"/><path d="m122.34375 364.230469-14.445312-7.917969v-179.636719c0-5.691406-4.613282-10.300781-10.300782-10.300781h-11.796875c-5.691406 0-10.304687 4.609375-10.304687 10.300781v179.640625l-14.441406 7.917969c-20.164063 11.054687-32.898438 32.167969-33.234376 55.105469-.507812 34.925781 27.449219 64.007812 62.320313 64.828125.519531.011719 1.042969.019531 1.5625.019531h.003906c17.0625 0 33.105469-6.648438 45.167969-18.710938 12.066406-12.066406 18.710938-28.109374 18.710938-45.175781 0-23.34375-12.738282-44.828125-33.242188-56.070312zm0 0" fill="#fc4265"/><path d="m101.753906 167.261719c-5.285156.429687-9.433594 4.859375-9.433594 10.257812v188.925781c0 3.6875-2.007812 7.078126-5.238281 8.851563l-9.195312 5.046875c-20.171875 11.054688-32.90625 32.160156-33.234375 55.101562-.207032 14.230469 4.304687 27.496094 12.09375 38.261719-17.667969-11.628906-29.257813-31.769531-28.925782-54.371093.339844-22.933594 13.070313-44.050782 33.234376-55.105469l14.441406-7.910157v-179.644531c0-5.691406 4.613281-10.300781 10.300781-10.300781h11.796875c1.480469 0 2.894531.308594 4.160156.886719zm0 0" fill="#c61a4f"/></svg>