<svg height="512pt" viewBox="0 -20 512.00025 512" width="512pt" xmlns="http://www.w3.org/2000/svg"><path d="m264.320312 255.898438-74.4375 74.4375-142.976562-182.15625 35.257812-35.261719zm0 0" fill="#d0daad"/><path d="m207.910156 312.304688-18.027344 18.03125-142.980468-182.160157 18.03125-18.027343zm0 0" fill="#b9c394"/><path d="m102.460938 129.472656-39.003907 39.003906c-11.957031 11.957032-31.347656 11.957032-43.304687 0l-17.273438-17.269531c-3.839844-3.839843-3.839844-10.066406 0-13.902343l68.410156-68.410157c3.839844-3.839843 10.0625-3.839843 13.902344 0l17.273438 17.269531c11.957031 11.960938 11.957031 31.347657-.003906 43.308594zm0 0" fill="#ff8e7d"/><path d="m83.898438 148.03125-20.4375 20.441406c-11.960938 11.960938-31.351563 11.960938-43.3125 0l-17.273438-17.265625c-3.832031-3.84375-3.832031-10.066406 0-13.90625l20.449219-20.441406c-3.84375 3.84375-3.84375 10.066406 0 13.898437l17.265625 17.273438c11.960937 11.960938 31.347656 11.960938 43.308594 0zm0 0" fill="#ff7061"/><path d="m495.386719 294.777344c-9.175781 0-16.617188-7.441406-16.617188-16.617188v-88.777344c0-30.144531-24.4375-54.582031-54.582031-54.582031h-48.425781v-33.230469h48.425781c48.5 0 87.8125 39.316407 87.8125 87.8125v88.777344c0 9.179688-7.4375 16.617188-16.613281 16.617188zm0 0" fill="#ff8e7d"/><path d="m450.894531 471.855469h-304.316406l11.886719-87.742188 37.191406-274.546875c.621094-4.578125 4.53125-7.992187 9.152344-7.992187h187.855468c4.621094 0 8.53125 3.414062 9.148438 7.992187l37.191406 274.546875zm0 0" fill="#edf1d3"/><path d="m233.65625 101.570312c-4.628906 0-8.53125 3.421876-9.160156 7.996094l-37.1875 274.542969-11.886719 87.75h-28.847656l11.890625-87.75 37.1875-274.542969c.628906-4.574218 4.53125-7.996094 9.15625-7.996094zm0 0" fill="#d0daad"/><path d="m456.074219 471.855469h-314.679688c-5.644531 0-9.96875-5.019531-9.132812-10.601563l10.367187-69.273437c.679688-4.519531 4.5625-7.867188 9.132813-7.867188h293.945312c4.574219 0 8.457031 3.347657 9.132813 7.867188l10.367187 69.273437c.835938 5.582032-3.488281 10.601563-9.132812 10.601563zm0 0" fill="#f74f43"/><path d="m180.609375 384.109375c-4.570313 0-8.457031 3.347656-9.136719 7.871094l-10.363281 69.28125c-.835937 5.570312 3.480469 10.597656 9.125 10.597656h-28.84375c-5.644531 0-9.960937-5.023437-9.125-10.597656l10.363281-69.28125c.679688-4.523438 4.5625-7.871094 9.136719-7.871094zm0 0" fill="#ce2828"/><path d="m306.585938 240.546875h-27.703126c-5.097656 0-9.234374-4.136719-9.234374-9.234375v-222.078125c0-5.101563 4.136718-9.234375 9.234374-9.234375h27.703126c5.101562 0 9.234374 4.132812 9.234374 9.234375v222.074219c0 5.101562-4.136718 9.238281-9.234374 9.238281zm0 0" fill="#ff8e7d"/></svg>