<svg height="512pt" viewBox="-106 0 512 512.00026" width="512pt" xmlns="http://www.w3.org/2000/svg"><path d="m299.105469 205.539062v95.425782c0 38.332031-14.433594 73.289062-38.148438 99.753906-6.273437 7.003906-9.640625 16.121094-9.640625 25.515625v75.460937c0 5.6875-4.617187 10.304688-10.304687 10.304688h-182.917969c-5.6875 0-10.300781-4.617188-10.300781-10.304688v-75.460937c0-9.394531-3.371094-18.511719-9.644531-25.515625-23.714844-26.464844-38.148438-61.421875-38.148438-99.753906v-160.050782c0-15.617187 12.25-28.824218 27.867188-29.253906.277343-.011718.554687-.011718.832031-.011718.34375 0 .683593.011718 1.023437.019531.140625 0 .285156.011719.421875.023437.050781 0 .113281 0 .175781.007813.371094.011719.730469.042969 1.101563.082031.347656.03125.699219.074219 1.039063.125.132812.011719.257812.03125.382812.050781.058594 0 .121094.011719.171875.03125.28125.03125.546875.082031.816406.132813.082031.011718.152344.03125.234375.042968 2.773438.515626 5.398438 1.441407 7.820313 2.707032 9.179687 4.78125 15.453125 14.382812 15.453125 25.445312v-94.703125c0-15.628906 12.25-28.835937 27.867187-29.269531 5.066407-.132812 9.859375 1.042969 14.03125 3.226562 9.179688 4.769532 15.453125 14.371094 15.453125 25.445313v-15.773437c0-15.699219 12.382813-28.925782 28.074219-29.2343755 4.996094-.1054687 9.703125 1.0703125 13.824219 3.2226565 2.617187 1.347656 4.984375 3.101562 7.046875 5.160156 5.191406 5.191406 8.40625 12.351563 8.40625 20.273437v49.65625c0-15.835937 12.835937-28.671874 28.667969-28.671874 4.769531 0 9.261718 1.164062 13.21875 3.238281 2.617187 1.347656 4.996093 3.097656 7.054687 5.160156 5.191406 5.191406 8.398437 12.351563 8.398437 20.273437v127.21875c0-19.253906 15.605469-34.863281 34.859376-34.863281 9.632812 0 18.347656 3.90625 24.652343 10.210938 6.304688 6.316406 10.210938 15.03125 10.210938 24.652343zm0 0" fill="#ffcb6f"/><path d="m152.820312 397.132812v114.867188h-15.453124v-114.867188c0-4.261718 3.449218-7.722656 7.726562-7.722656 4.261719-.003906 7.726562 3.460938 7.726562 7.722656zm0 0" fill="#ffae4d"/><path d="m81.683594 512h-23.589844c-5.691406 0-10.300781-4.613281-10.300781-10.300781v-75.464844c0-9.394531-3.371094-18.515625-9.640625-25.511719-23.71875-26.464844-38.152344-61.425781-38.152344-99.757812v-160.046875c0-15.621094 12.25-28.828125 27.867188-29.257813 2.121093-.0625 4.203124.113282 6.203124.503906-2.742187 4.492188-4.308593 9.765626-4.308593 15.359376v160.050781c0 38.332031 14.433593 73.292969 38.15625 99.757812 6.265625 6.996094 9.636719 16.117188 9.636719 25.511719v90.914062c0 3.371094 1.625 6.367188 4.128906 8.242188zm0 0" fill="#ffae4d"/><path d="m251.316406 462.035156v39.664063c0 5.6875-4.617187 10.300781-10.304687 10.300781h-182.917969c-5.6875 0-10.300781-4.613281-10.300781-10.300781v-39.664063zm0 0" fill="#ff7061"/><path d="m137.367188 462.035156h15.453124v49.964844h-15.453124zm0 0" fill="#f74f43"/><path d="m81.683594 512h-23.589844c-5.6875 0-10.300781-4.613281-10.300781-10.300781v-39.664063h29.761719v41.722656c0 3.371094 1.625 6.367188 4.128906 8.242188zm0 0" fill="#f74f43"/><path d="m0 212.730469h229.382812v49.953125h-229.382812zm0 0" fill="#ff7061"/><path d="m0 212.730469h29.761719v49.953125h-29.761719zm0 0" fill="#f74f43"/><g fill="#ffae4d"><path d="m172.042969 28.667969v184.0625c0 4.265625-3.460938 7.726562-7.726563 7.726562-4.273437 0-7.726562-3.460937-7.726562-7.726562v-209.5c2.617187 1.351562 4.984375 3.101562 7.046875 5.160156 5.191406 5.195313 8.40625 12.355469 8.40625 20.277344zm0 0"/><path d="m114.691406 45.015625v167.714844c0 4.265625-3.460937 7.726562-7.726562 7.726562s-7.726563-3.460937-7.726563-7.726562v-193.160157c9.179688 4.769532 15.453125 14.371094 15.453125 25.445313zm0 0"/><path d="m57.339844 140.316406v72.414063c0 4.265625-3.449219 7.726562-7.726563 7.726562-4.261719 0-7.722656-3.460937-7.722656-7.726562v-97.859375c9.175781 4.78125 15.449219 14.382812 15.449219 25.445312zm0 0"/><path d="m229.382812 78.320312v196.644532c0 36.40625-29.617187 66.023437-66.027343 66.023437h-21.53125c-4.261719 0-7.722657-3.460937-7.722657-7.726562s3.460938-7.726563 7.722657-7.726563h21.53125c27.886719 0 50.574219-22.683594 50.574219-50.570312v-222.078125c2.617187 1.347656 4.996093 3.101562 7.054687 5.160156 5.195313 5.191406 8.398437 12.351563 8.398437 20.273437zm0 0"/></g><path d="m41.886719 212.730469h15.453125c0 4.265625-3.449219 7.726562-7.726563 7.726562-4.265625 0-7.726562-3.460937-7.726562-7.726562zm0 0" fill="#f74f43"/><path d="m99.238281 212.730469h15.453125c0 4.265625-3.460937 7.726562-7.726562 7.726562s-7.726563-3.460937-7.726563-7.726562zm0 0" fill="#f74f43"/><path d="m156.589844 212.730469h15.453125c0 4.265625-3.460938 7.726562-7.726563 7.726562-4.277344 0-7.726562-3.460937-7.726562-7.726562zm0 0" fill="#f74f43"/><path d="m213.929688 212.730469h15.453124v49.953125h-15.453124zm0 0" fill="#f74f43"/></svg>