<svg height="512pt" viewBox="-144 0 512 512" width="512pt" xmlns="http://www.w3.org/2000/svg"><path d="m144.210938 512h-64.691407c-11.851562 0-20.640625-11-18.023437-22.558594l4.105468-18.140625c1.910157-8.421875 9.390626-14.398437 18.023438-14.398437h56.480469c8.632812 0 16.117187 5.976562 18.023437 14.398437l4.105469 18.140625c2.621094 11.558594-6.167969 22.558594-18.023437 22.558594zm0 0" fill="#a46a52"/><path d="m104.546875 512h-25.03125c-11.851563 0-20.636719-11-18.015625-22.558594l4.105469-18.140625c1.902343-8.421875 9.386719-14.398437 18.023437-14.398437h25.023438c-8.636719 0-16.113282 5.976562-18.023438 14.398437l-4.109375 18.140625c-2.617187 11.558594 6.175781 22.558594 18.027344 22.558594zm0 0" fill="#935641"/><path d="m124.964844 263.050781h-24.191406l-33.542969-228.992187c-.628907-8.101563 5.777343-15.019532 13.898437-15.019532h47.703125c8.125 0 14.527344 6.917969 13.898438 15.019532zm0 0" fill="#317f21"/><path d="m104.273438 313.863281h35.738281c-3.554688-57.273437-16.308594-166.894531-55.402344-238.976562-6.980469-12.875-20.546875-20.800781-35.191406-20.800781h-18.691407c-8.457031 0-13.472656 9.484374-8.683593 16.453124 22.980469 33.425782 71.121093 116.996094 82.230469 243.324219zm0 0" fill="#479838"/><path d="m213.1875 0h-34.46875c-14.644531 0-28.207031 7.925781-35.191406 20.800781-49.4375 91.160157-56.753906 242.363281-56.609375 271.777344h50.746093c4.808594-144.710937 59.292969-239.886719 84.207032-276.125 4.789062-6.96875-.226563-16.453125-8.683594-16.453125zm0 0" fill="#a2d962"/><path d="m163.527344 20.800781c6.984375-12.875 20.546875-20.800781 35.195312-20.800781h-20.003906c-14.644531 0-28.207031 7.925781-35.191406 20.800781-49.4375 91.160157-56.753906 242.363281-56.609375 271.777344h20c-.144531-29.414063 7.171875-180.617187 56.609375-271.777344zm0 0" fill="#77bc4d"/><path d="m223.269531 385.375c0 61.65625-49.980469 95.964844-111.632812 95.964844-61.65625 0-111.636719-34.308594-111.636719-95.964844 0-32.183594 30.4375-61.222656 59.53125-89.113281 2.019531-1.9375 4.027344-3.964844 6.015625-6.058594 10.433594-10.949219 20.402344-23.730469 28.375-34.75 8.71875-12.042969 26.707031-12.042969 35.425781 0 7.972656 11.023437 17.941406 23.800781 28.378906 34.75 1.984376 2.09375 3.996094 4.121094 6.015626 6.058594 29.089843 27.890625 59.527343 56.929687 59.527343 89.113281zm0 0" fill="#c88dff"/><path d="m134.679688 479.65625c-7.4375 1.117188-15.144532 1.683594-23.042969 1.683594-61.65625 0-111.636719-34.308594-111.636719-95.960938 0-32.183594 30.4375-61.226562 59.53125-89.117187 2.019531-1.9375 4.027344-3.964844 6.015625-6.058594 10.433594-10.949219 20.402344-23.726563 28.375-34.75 8.71875-12.042969 26.707031-12.042969 35.425781 0 1.691406 2.335937 3.472656 4.753906 5.332032 7.214844-6.890626 9.140625-14.820313 18.910156-23.042969 27.535156-1.988281 2.09375-4 4.121094-6.015625 6.058594-29.09375 27.890625-59.53125 56.933593-59.53125 89.117187 0 53.753906 37.988281 86.71875 88.589844 94.277344zm0 0" fill="#b967f9"/><path d="m157.722656 290.203125c-9.171875 15.945313-26.378906 26.683594-46.089844 26.683594-7.9375 0-15.46875-1.746094-22.242187-4.871094-10.023437-4.628906-18.367187-12.296875-23.84375-21.816406 10.433594-10.945313 20.402344-23.726563 28.375-34.75 8.71875-12.042969 26.703125-12.042969 35.425781 0 1.691406 2.335937 3.46875 4.753906 5.332032 7.21875 6.890624 9.136719 14.820312 18.910156 23.042968 27.535156zm0 0" fill="#e7d7ff"/><path d="m134.679688 262.667969c-6.890626 9.140625-14.820313 18.910156-23.042969 27.535156-1.988281 2.09375-4 4.121094-6.015625 6.058594-5.441406 5.203125-10.917969 10.453125-16.230469 15.753906-10.023437-4.628906-18.363281-12.296875-23.84375-21.816406 10.433594-10.945313 20.402344-23.726563 28.375-34.75 8.71875-12.042969 26.707031-12.042969 35.425781 0 1.691406 2.335937 3.46875 4.753906 5.332032 7.21875zm0 0" fill="#d3b5ff"/></svg>