<svg height="512pt" viewBox="-55 0 512 512" width="512pt" xmlns="http://www.w3.org/2000/svg"><path d="m256.023438 512h-109.542969c-5.691407 0-10.304688-4.613281-10.304688-10.300781v-223.609375h130.148438v223.609375c0 5.6875-4.609375 10.300781-10.300781 10.300781zm0 0" fill="#bec121"/><path d="m146.480469 512c-5.691407 0-10.304688-4.613281-10.304688-10.300781v-223.609375h20.261719v223.949218c0 5.5-4.457031 9.960938-9.957031 9.960938zm0 0" fill="#aaaa0c"/><path d="m402.503906 281.441406c0 99.734375-85.414062 11.367188-148.636718 11.367188-63.21875 0-148.632813 88.367187-148.632813-11.367188 0-99.738281 0-281.43749975 148.632813-281.43749975 148.636718 0 148.636718 181.69921875 148.636718 281.43749975zm0 0" fill="#479838"/><path d="m297.265625 281.441406c0 99.734375-85.414063 11.367188-148.632813 11.367188s-148.632812 88.367187-148.632812-11.367188c0-99.738281 0-281.43749975 148.632812-281.43749975 148.632813 0 148.632813 181.69921875 148.632813 281.43749975zm0 0" fill="#a2d962"/><path d="m33.242188 281.4375c0 25.125 5.417968 38.320312 14.535156 43.988281-27.789063 8.488281-47.777344 4.257813-47.777344-43.988281 0-99.738281 0-281.4375 148.632812-281.4375 5.765626 0 11.300782.277344 16.625.808594-132.015624 13.148437-132.015624 184.757812-132.015624 280.628906zm0 0" fill="#77bc4d"/><path d="m349.882812 316.660156c0 99.738282-85.414062 11.371094-148.632812 11.371094s-148.632812 88.363281-148.632812-11.371094 0-281.4375 148.632812-281.4375 148.632812 181.703125 148.632812 281.4375zm0 0" fill="#77bc4d"/><g fill="#479838"><path d="m291.234375 295.320312c-.613281 0-1.230469-.074218-1.851563-.226562-29.542968-7.257812-68.472656-6.203125-68.863281-6.191406-4.300781.136718-7.824219-3.230469-7.949219-7.496094s3.230469-7.824219 7.492188-7.949219c1.679688-.050781 41.445312-1.125 73.007812 6.632813 4.144532 1.019531 6.679688 5.203125 5.660157 9.347656-.867188 3.523438-4.023438 5.882812-7.496094 5.882812zm0 0"/><path d="m210.820312 238.929688c-3.148437 0-6.105468-1.9375-7.253906-5.0625-1.472656-4.003907.582032-8.445313 4.585938-9.914063 1.730468-.636719 42.804687-15.609375 75.464844-16.777344 4.242187-.15625 7.84375 3.179688 7.996093 7.445313.15625 4.265625-3.179687 7.84375-7.441406 7.996094-30.175781 1.082031-70.289063 15.691406-70.691406 15.839843-.878907.320313-1.777344.472657-2.660157.472657zm0 0"/><path d="m206.511719 199.5625c-1.480469 0-2.976563-.425781-4.296875-1.3125-3.542969-2.378906-4.488282-7.175781-2.109375-10.71875.898437-1.34375 22.339843-33.0625 48.511719-52.753906 3.410156-2.566406 8.253906-1.882813 10.820312 1.527344 2.566406 3.410156 1.878906 8.253906-1.53125 10.820312-24.109375 18.136719-44.765625 48.710938-44.972656 49.015625-1.492188 2.222656-3.933594 3.421875-6.421875 3.421875zm0 0"/><path d="m111.269531 295.320312c-3.472656 0-6.632812-2.359374-7.496093-5.882812-1.019532-4.144531 1.511718-8.328125 5.65625-9.347656 31.5625-7.757813 71.332031-6.6875 73.007812-6.632813 4.265625.125 7.621094 3.683594 7.496094 7.949219s-3.667969 7.636719-7.949219 7.496094c-.390625-.011719-39.375-1.054688-68.863281 6.195312-.621094.148438-1.242188.222656-1.851563.222656zm0 0"/><path d="m191.683594 238.929688c-.882813 0-1.785156-.152344-2.664063-.472657-.398437-.148437-40.515625-14.757812-70.6875-15.839843-4.265625-.152344-7.597656-3.734376-7.445312-8 .152343-4.261719 3.722656-7.601563 7.996093-7.441407 32.664063 1.167969 73.734376 16.136719 75.464844 16.773438 4.007813 1.472656 6.058594 5.910156 4.589844 9.917969-1.148438 3.125-4.105469 5.0625-7.253906 5.0625zm0 0"/><path d="m195.988281 199.5625c-2.484375 0-4.929687-1.199219-6.417969-3.417969-.207031-.308593-20.921874-30.925781-44.976562-49.019531-3.410156-2.566406-4.09375-7.410156-1.527344-10.820312 2.5625-3.410157 7.40625-4.09375 10.816406-1.527344 26.175782 19.691406 47.613282 51.410156 48.515626 52.753906 2.378906 3.542969 1.433593 8.339844-2.109376 10.71875-1.320312.886719-2.820312 1.3125-4.300781 1.3125zm0 0"/></g><path d="m191.832031 512c-5.5 0-9.960937-4.457031-9.957031-9.960938.019531-105.800781.621094-375.5 19.378906-375.5 18.753906 0 19.355469 269.699219 19.375 375.5.003906 5.503907-4.457031 9.960938-9.957031 9.960938zm0 0" fill="#e6f073"/><path d="m265.316406 465.632812h-128.132812c-5.261719 0-9.527344-4.265624-9.527344-9.527343v-37.761719c0-5.261719 4.265625-9.527344 9.527344-9.527344h128.132812c5.261719 0 9.527344 4.265625 9.527344 9.527344v37.761719c0 5.261719-4.265625 9.527343-9.527344 9.527343zm0 0" fill="#f74f43"/><path d="m158.816406 465.632812h-21.632812c-5.261719 0-9.527344-4.265624-9.527344-9.53125v-37.753906c0-5.265625 4.265625-9.53125 9.527344-9.53125h21.632812c-5.261718 0-9.527344 4.265625-9.527344 9.53125v37.753906c0 5.265626 4.265626 9.53125 9.527344 9.53125zm0 0" fill="#ce2828"/></svg>