<svg height="512pt" viewBox="0 0 512 512.00064" width="512pt" xmlns="http://www.w3.org/2000/svg"><path d="m500.59375 243.167969c7.503906-10.714844 11.769531-23.863281 11.378906-38.03125-.925781-33.460938-28.242187-61.46875-61.714844-61.46875-36.734374 0-93.992187 33.757812-128.140624 66.78125-5.652344 5.464843-14.550782 5.3125-20.097657-.257813-.070312-.074218-.140625-.144531-.210937-.214844-5.570313-5.546874-5.722656-14.441406-.261719-20.09375 33.023437-34.148437 66.78125-91.410156 66.78125-128.140624 0-33.472657-28.007813-60.792969-61.46875-61.7187505-14.164063-.3906255-27.3125 3.8789065-38.03125 11.3828125-7.71875 5.40625-17.9375 5.40625-25.65625 0-10.71875-7.503906-23.867187-11.773438-38.035156-11.3828125-33.460938.9257815-61.46875 28.2460935-61.46875 61.7187505 0 36.730468 33.757812 93.992187 66.78125 128.140624 5.464843 5.652344 5.3125 14.546876-.257813 20.09375-.074218.070313-.144531.144532-.214844.214844-5.542968 5.570313-14.445312 5.722656-20.09375.257813-34.148437-33.023438-91.410156-66.777344-128.140624-66.777344-33.472657 0-60.792969 28.003906-61.7187505 61.464844-.3906255 14.167969 3.8789065 27.316406 11.3828125 38.035156 5.40625 7.71875 5.40625 17.9375 0 25.65625-7.503906 10.71875-11.773438 23.867187-11.3828125 38.03125.9257815 33.460937 28.2460935 61.46875 61.7187505 61.46875 36.730468 0 93.992187-33.757813 128.140624-66.777344 5.652344-5.464843 14.550782-5.3125 20.09375.257813.074219.070312.144532.140625.214844.214844 5.570313 5.542968 5.722656 14.441406.257813 20.09375-33.019531 34.148437-66.777344 91.40625-66.777344 128.140624 0 33.472657 28.007813 60.792969 61.46875 61.714844 14.164063.394532 27.3125-3.875 38.03125-11.378906 7.71875-5.40625 17.9375-5.40625 25.65625 0 10.71875 7.503906 23.867187 11.773438 38.035156 11.378906 33.460938-.921875 61.464844-28.242187 61.464844-61.714844 0-36.734374-33.753906-93.992187-66.777344-128.140624-5.464843-5.652344-5.3125-14.550782.257813-20.097657.070312-.070312.144531-.140625.214844-.210937 5.542968-5.570313 14.441406-5.722656 20.09375-.261719 34.148437 33.023437 91.410156 66.78125 128.140624 66.78125 33.472657 0 60.792969-28.007813 61.714844-61.46875.394532-14.164063-3.875-27.3125-11.378906-38.03125-5.40625-7.71875-5.40625-17.9375 0-25.660156zm0 0" fill="#77bc4d"/><path d="m431.28125 146.109375c6.726562-1.585937 13.113281-2.441406 18.976562-2.441406 33.46875 0 60.789063 28.007812 61.714844 61.46875.390625 14.164062-3.882812 27.3125-11.382812 38.035156-5.40625 7.714844-5.40625 17.933594 0 25.652344 7.5 10.722656 11.777344 23.867187 11.382812 38.03125-.925781 33.460937-28.246094 61.472656-61.714844 61.472656-5.863281 0-12.25-.855469-18.976562-2.441406 25.351562-7.5 44.109375-31.410157 44.871094-59.03125.394531-14.164063-3.871094-27.308594-11.382813-38.03125-5.398437-7.71875-5.398437-17.9375 0-25.652344 7.511719-10.722656 11.777344-23.871094 11.382813-38.035156-.761719-27.617188-19.519532-51.527344-44.871094-59.027344zm0 0" fill="#479838"/><path d="m365.886719 431.28125c1.585937 6.726562 2.441406 13.113281 2.441406 18.976562 0 33.46875-28.011719 60.789063-61.472656 61.71875-14.164063.390626-27.308594-3.882812-38.035157-11.382812-7.714843-5.410156-17.933593-5.410156-25.648437 0-10.726563 7.5-23.871094 11.773438-38.035156 11.382812-33.460938-.925781-61.46875-28.246093-61.46875-61.71875 0-5.863281.855469-12.25 2.441406-18.976562 7.5 25.351562 31.410156 44.113281 59.027344 44.875 14.164062.390625 27.308593-3.875 38.035156-11.382812 7.714844-5.398438 17.933594-5.398438 25.648437 0 10.726563 7.507812 23.871094 11.773437 38.035157 11.382812 27.621093-.761719 51.53125-19.523438 59.03125-44.875zm0 0" fill="#479838"/><path d="m433.0625 242.691406h-134.363281c-16.230469 0-29.390625-13.160156-29.390625-29.394531v-134.359375c0-7.328125-5.734375-13.617188-13.058594-13.75-7.46875-.136719-13.5625 5.871094-13.5625 13.308594v134.800781c0 16.234375-13.15625 29.394531-29.390625 29.394531h-134.359375c-7.328125 0-13.613281 5.730469-13.75 13.058594-.136719 7.464844 5.875 13.558594 13.308594 13.558594h134.804687c16.230469 0 29.390625 13.160156 29.390625 29.390625v134.363281c0 7.328125 5.730469 13.613281 13.058594 13.75 7.464844.136719 13.558594-5.875 13.558594-13.308594v-134.804687c0-16.230469 13.160156-29.390625 29.390625-29.390625h134.804687c7.433594 0 13.445313-6.097656 13.308594-13.558594-.136719-7.328125-6.421875-13.058594-13.75-13.058594zm0 0" fill="#e6f073"/></svg>