<svg height="512pt" viewBox="-23 0 512 512" width="512pt" xmlns="http://www.w3.org/2000/svg"><path d="m134.074219 502.546875c7.074219 0 12.808593-5.734375 12.808593-12.808594v-476.925781c0-7.078125-5.734374-12.8125-12.808593-12.8125-7.078125 0-12.8125 5.734375-12.8125 12.8125v476.925781c0 7.074219 5.734375 12.808594 12.8125 12.808594zm0 0" fill="#bec121"/><path d="m110.34375 512c5.609375-8.09375 11.464844-16.316406 17.550781-24.613281 61.898438-84.425781 123.414063-144.550781 137.398438-134.292969 13.050781 9.566406-19.882813 77.007812-74.617188 154.558594-1.925781 2.730468-5.066406 4.347656-8.40625 4.347656zm0 0" fill="#479838"/><path d="m85.875 512c-3.339844 0-6.480469-1.617188-8.40625-4.347656-54.734375-77.550782-87.664062-144.992188-74.617188-154.558594 13.984376-10.257812 75.503907 49.867188 137.398438 134.292969 6.085938 8.296875 11.941406 16.519531 17.554688 24.613281zm0 0" fill="#77bc4d"/><path d="m85.878906 511.996094h19.796875c-48.867187-68.554688-81.199219-129.972656-80.542969-151.710938-10.539062-7.355468-18.316406-10.105468-22.28125-7.191406-13.050781 9.566406 19.878907 77.003906 74.621094 154.554688 1.925782 2.730468 5.066406 4.347656 8.40625 4.347656zm0 0" fill="#479838"/><path d="m134.074219 305.128906c17.011719 0 30.808593-13.792968 30.808593-30.808594v-215.675781c0-17.011719-13.796874-30.808593-30.808593-30.808593-17.015625 0-30.808594 13.796874-30.808594 30.808593v215.675781c0 17.015626 13.792969 30.808594 30.808594 30.808594zm0 0" fill="#ffae4d"/><path d="m103.265625 58.644531v215.671875c0 17.011719 13.796875 30.804688 30.808594 30.804688 4.199219 0 8.21875-.839844 11.867187-2.363282-11.128906-4.65625-18.949218-15.628906-18.949218-28.441406v-215.671875c0-8.503906 3.453124-16.210937 9.027343-21.785156 2.816407-2.820313 6.179688-5.09375 9.921875-6.652344-3.648437-1.527343-7.667968-2.367187-11.867187-2.367187-8.507813 0-16.214844 3.441406-21.789063 9.019531-5.578125 5.574219-9.019531 13.28125-9.019531 21.785156zm0 0" fill="#ff9b36"/><path d="m332.09375 502.546875c7.074219 0 12.808594-5.734375 12.808594-12.808594v-402.996093c0-7.074219-5.734375-12.8125-12.808594-12.8125s-12.8125 5.738281-12.8125 12.8125v402.996093c0 7.074219 5.738281 12.808594 12.8125 12.808594zm0 0" fill="#bec121"/><path d="m308.363281 512c5.609375-8.09375 11.46875-16.316406 17.550781-24.613281 61.898438-84.425781 123.414063-144.550781 137.402344-134.292969 13.046875 9.566406-19.882812 77.007812-74.617187 154.558594-1.925781 2.730468-5.070313 4.347656-8.410157 4.347656zm0 0" fill="#479838"/><path d="m283.898438 512c-3.339844 0-6.484376-1.617188-8.410157-4.347656-54.734375-77.550782-87.664062-144.992188-74.617187-154.558594 13.984375-10.257812 75.503906 49.867188 137.398437 134.292969 6.085938 8.296875 11.941407 16.519531 17.554688 24.613281zm0 0" fill="#77bc4d"/><path d="m283.898438 511.996094h19.796874c-48.867187-68.554688-81.199218-129.972656-80.542968-151.710938-10.539063-7.355468-18.316406-10.105468-22.28125-7.191406-13.050782 9.566406 19.878906 77.003906 74.621094 154.554688 1.925781 2.730468 5.066406 4.347656 8.40625 4.347656zm0 0" fill="#479838"/><path d="m332.09375 363.6875c17.015625 0 30.808594-13.796875 30.808594-30.808594v-184.929687c0-17.015625-13.792969-30.808594-30.808594-30.808594s-30.808594 13.792969-30.808594 30.808594v184.929687c0 17.015625 13.792969 30.808594 30.808594 30.808594zm0 0" fill="#ffae4d"/><path d="m301.285156 147.949219v184.925781c0 17.011719 13.796875 30.808594 30.808594 30.808594 4.199219 0 8.21875-.839844 11.867188-2.367188-11.128907-4.65625-18.949219-15.628906-18.949219-28.441406v-184.925781c0-8.503907 3.453125-16.210938 9.027343-21.785157 2.820313-2.820312 6.179688-5.09375 9.921876-6.652343-3.648438-1.527344-7.667969-2.367188-11.867188-2.367188-8.507812 0-16.214844 3.445313-21.789062 9.019531-5.574219 5.574219-9.019532 13.28125-9.019532 21.785157zm0 0" fill="#ff9b36"/></svg>