<svg height="511pt" viewBox="-60 1 511 511.99963" width="511pt" xmlns="http://www.w3.org/2000/svg"><path d="m220.140625 512h-47.601563c-5.691406 0-10.304687-4.613281-10.304687-10.300781v-126.40625h68.210937v126.40625c0 5.6875-4.613281 10.300781-10.304687 10.300781zm0 0" fill="#e0a98f"/><path d="m200.472656 456.023438c-4.265625 0-7.726562-3.457032-7.726562-7.726563v-55.808594c0-4.265625 3.460937-7.726562 7.726562-7.726562 4.269532 0 7.726563 3.460937 7.726563 7.726562v55.808594c0 4.269531-3.457031 7.726563-7.726563 7.726563zm0 0" fill="#bc8871"/><path d="m326.390625 137.960938-5.15625 38.113281-25.847656 190.972656h-198.09375l-25.847657-190.972656-5.15625-38.113281 130.050782-119.878907zm0 0" fill="#e0a98f"/><path d="m66.289062 137.960938 130.050782-119.878907 130.050781 119.878907-5.15625 38.113281-124.894531-115.117188-99.164063 91.402344 29.054688 214.6875h-28.9375zm0 0" fill="#bc8871"/><path d="m249.820312 228.050781c0 29.535157-23.945312 53.480469-53.480468 53.480469s-53.480469-23.945312-53.480469-53.480469c0-29.535156 23.945313-53.480469 53.480469-53.480469s53.480468 23.945313 53.480468 53.480469zm0 0" fill="#a46a52"/><path d="m196.339844 281.53125c-29.535156 0-53.480469-23.945312-53.480469-53.480469 0-29.535156 23.945313-53.480469 53.480469-53.480469 6.222656 0 12.1875 1.0625 17.734375 3.015626-20.8125 7.316406-35.734375 27.148437-35.734375 50.464843 0 23.316407 14.921875 43.148438 35.738281 50.464844-5.550781 1.949219-11.515625 3.015625-17.738281 3.015625zm0 0" fill="#935641"/><path d="m219.335938 292.304688c0 12.699218-10.296876 22.996093-22.996094 22.996093-12.699219 0-22.996094-10.296875-22.996094-22.996093 0-12.699219 10.296875-22.996094 22.996094-22.996094 12.699218 0 22.996094 10.296875 22.996094 22.996094zm0 0" fill="#ffd2bc"/><path d="m374.089844 200.023438c-4.382813 0-8.777344-1.582032-12.253906-4.789063l-165.496094-152.554687-165.496094 152.554687c-7.34375 6.769531-18.789062 6.304687-25.554688-1.039063-6.769531-7.34375-6.304687-18.785156 1.039063-25.554687l177.753906-163.851563c6.925781-6.382812 17.589844-6.386718 24.515625 0l177.753906 163.851563c7.34375 6.769531 7.808594 18.210937 1.039063 25.554687-3.5625 3.867188-8.425781 5.828126-13.300781 5.828126zm0 0" fill="#f74f43"/><path d="m322.9375 392.488281h-253.195312c-5.707032 0-10.335938-4.625-10.335938-10.332031v-13.722656c0-5.707032 4.628906-10.335938 10.335938-10.335938h253.195312c5.707031 0 10.335938 4.628906 10.335938 10.335938v13.722656c0 5.707031-4.628907 10.332031-10.335938 10.332031zm0 0" fill="#f74f43"/><path d="m200.472656 502.15625c-4.265625 0-7.726562-3.457031-7.726562-7.726562v-13.433594c0-4.265625 3.460937-7.726563 7.726562-7.726563 4.269532 0 7.726563 3.460938 7.726563 7.726563v13.433594c0 4.269531-3.457031 7.726562-7.726563 7.726562zm0 0" fill="#bc8871"/></svg>