<svg height="512pt" viewBox="0 -82 512 511" width="512pt" xmlns="http://www.w3.org/2000/svg"><path d="m124.605469 185.375c-24.132813 0-43.765625-19.632812-43.765625-43.765625 0-4.140625-3.359375-7.5-7.5-7.5-4.144532 0-7.5 3.359375-7.5 7.5 0 2.839844.214844 5.628906.605468 8.363281h-27.933593c-4.140625 0-7.5 3.355469-7.5 7.5 0 4.140625 3.359375 7.5 7.5 7.5h32.183593c9.050782 20.808594 29.804688 35.402344 53.910157 35.402344 4.140625 0 7.5-3.359375 7.5-7.5 0-4.144531-3.359375-7.5-7.5-7.5zm0 0" fill="#bc8871"/><path d="m287.425781 164.046875c-8.605469 59.640625-53.449219 92.394531-101.933593 85.402344-48.484376-6.996094-82.246094-51.089844-73.640626-110.730469 8.601563-59.644531 56.3125-112.25 104.796876-105.257812 48.484374 6.996093 79.378906 70.941406 70.777343 130.585937zm0 0" fill="#b9c394"/><path d="m213.753906 249.007812c-9.109375 1.652344-18.609375 1.832032-28.261718.445313-48.488282-7-82.25-51.089844-73.636719-110.730469 8.597656-59.648437 56.304687-112.25 104.792969-105.261718 2.25.324218 4.457031.769531 6.625 1.339843-39.117188 9.730469-73.222657 54.402344-80.375 103.921875-8.4375 58.484375 23.875 102.019532 70.855468 110.285156zm0 0" fill="#a3b27b"/><path d="m440.976562 100.105469c19.628907 63.460937-9.542968 117.277343-61.128906 133.234375-51.582031 15.957031-106.046875-11.988282-125.679687-75.445313-19.628907-63.457031 3.007812-138.398437 54.59375-154.355469 51.585937-15.957031 112.582031 33.109376 132.214843 96.566407zm0 0" fill="#d0daad"/><path d="m438.285156 348.019531h-357.582031c-33.828125 0-61.253906-27.425781-61.253906-61.257812v-59.355469c0-18.953125 15.363281-34.3125 34.3125-34.3125h411.464843c18.953126 0 34.3125 15.363281 34.3125 34.3125v59.355469c.003907 33.832031-27.421874 61.257812-61.253906 61.257812zm0 0" fill="#e0a98f"/><path d="m108.519531 348.023438h-27.820312c-33.828125 0-61.25-27.429688-61.25-61.261719v-59.359375c0-18.949219 15.359375-34.308594 34.3125-34.308594h27.816406c-18.957031 0-34.316406 15.359375-34.316406 34.308594v59.359375c0 33.832031 27.429687 61.261719 61.257812 61.261719zm0 0" fill="#bc8871"/><path d="m445.074219 315.902344h-428.796875c-4.140625 0-7.5-3.359375-7.5-7.5s3.359375-7.5 7.5-7.5h428.796875c4.144531 0 7.5 3.359375 7.5 7.5s-3.355469 7.5-7.5 7.5zm0 0" fill="#ffc1ab"/><path d="m504.5 263.8125h-86.835938c4.285157-4.300781 7.796876-9.371094 10.335938-14.972656h17.074219c4.144531 0 7.5-3.359375 7.5-7.5 0-4.144532-3.355469-7.5-7.5-7.5h-12.914063c.230469-1.949219.359375-3.925782.359375-5.929688 0-4.140625-3.359375-7.5-7.5-7.5s-7.5 3.359375-7.5 7.5c0 19.796875-16.105469 35.902344-35.90625 35.902344h-150.9375c-4.140625 0-7.5 3.359375-7.5 7.5 0 4.144531 3.359375 7.5 7.5 7.5h273.824219c4.140625 0 7.5-3.355469 7.5-7.5 0-4.140625-3.359375-7.5-7.5-7.5zm0 0" fill="#bc8871"/><path d="m398.90625 149.777344h-19.726562c1.878906-8.195313 2.871093-16.71875 2.871093-25.476563 0-4.140625-3.359375-7.5-7.5-7.5s-7.5 3.359375-7.5 7.5c0 54.632813-44.445312 99.078125-99.078125 99.078125h-260.472656c-4.140625 0-7.5 3.359375-7.5 7.5 0 4.144532 3.359375 7.5 7.5 7.5h260.472656c48.65625 0 90.285156-30.621094 106.652344-73.601562h24.28125c4.144531 0 7.5-3.359375 7.5-7.5s-3.355469-7.5-7.5-7.5zm0 0" fill="#bc8871"/><path d="m179.019531 278.8125h-42.542969c-4.140624 0-7.5-3.355469-7.5-7.5 0-4.140625 3.359376-7.5 7.5-7.5h42.542969c4.140625 0 7.5 3.359375 7.5 7.5 0 4.144531-3.359375 7.5-7.5 7.5zm0 0" fill="#ffc1ab"/></svg>