<svg height="512pt" viewBox="0 -46 512 512" width="512pt" xmlns="http://www.w3.org/2000/svg"><path d="m111.605469 267.195312c-24.132813 0-43.765625-19.632812-43.765625-43.765624 0-4.144532-3.359375-7.5-7.5-7.5-4.144532 0-7.5 3.355468-7.5 7.5 0 2.839843.214844 5.628906.605468 8.359374h-27.933593c-4.140625 0-7.5 3.359376-7.5 7.5 0 4.144532 3.359375 7.5 7.5 7.5h32.183593c9.050782 20.8125 29.804688 35.40625 53.910157 35.40625 4.140625 0 7.5-3.359374 7.5-7.5 0-4.144531-3.359375-7.5-7.5-7.5zm0 0" fill="#bc8871"/><path d="m391.824219 224.429688c0 27.152343-48.695313 62.214843-53.441407 35.476562-4.664062-26.289062-5.890624-84.640625 15.21875-84.640625 21.109376 0 38.222657 22.011719 38.222657 49.164063zm0 0" fill="#ffe671"/><path d="m120.175781 224.429688c0 27.152343 48.695313 62.214843 53.441407 35.476562 4.664062-26.289062 5.890624-84.640625-15.21875-84.640625-21.109376 0-38.222657 22.011719-38.222657 49.164063zm0 0" fill="#ffcb6f"/><path d="m367.933594 184.039062c0-72.195312-50.113282-130.71875-111.933594-130.71875s-111.933594 58.523438-111.933594 130.71875c0 72.195313 50.113282 130.71875 111.933594 130.71875s111.933594-58.523437 111.933594-130.71875zm0 0" fill="#ffcb6f"/><path d="m270.660156 313.652344c-4.800781.726562-9.691406 1.109375-14.660156 1.109375-61.820312 0-111.929688-58.53125-111.929688-130.722657 0-72.199218 50.109376-130.71875 111.929688-130.71875 4.96875 0 9.859375.378907 14.660156 1.109376-54.890625 8.390624-97.269531 63.210937-97.269531 129.609374 0 66.390626 42.378906 121.222657 97.269531 129.613282zm0 0" fill="#ffae4d"/><path d="m438.285156 420.835938h-357.582031c-33.828125 0-61.253906-27.425782-61.253906-61.253907v-59.355469c0-18.953124 15.363281-34.316406 34.3125-34.316406h411.464843c18.953126 0 34.3125 15.363282 34.3125 34.316406v59.355469c.003907 33.832031-27.421874 61.253907-61.253906 61.253907zm0 0" fill="#e0a98f"/><path d="m108.519531 420.839844h-27.820312c-33.828125 0-61.25-27.429688-61.25-61.257813v-59.359375c0-18.949218 15.359375-34.3125 34.3125-34.3125h27.816406c-18.957031 0-34.316406 15.363282-34.316406 34.3125v59.359375c0 33.828125 27.429687 61.257813 61.257812 61.257813zm0 0" fill="#bc8871"/><path d="m445.074219 388.722656h-428.796875c-4.140625 0-7.5-3.359375-7.5-7.5 0-4.144531 3.359375-7.5 7.5-7.5h428.796875c4.144531 0 7.5 3.355469 7.5 7.5 0 4.140625-3.355469 7.5-7.5 7.5zm0 0" fill="#bc8871"/><path d="m504.5 336.632812h-86.835938c4.285157-4.304687 7.796876-9.375 10.332032-14.976562h17.078125c4.144531 0 7.5-3.355469 7.5-7.5 0-4.140625-3.355469-7.5-7.5-7.5h-12.914063c.230469-1.945312.359375-3.921875.359375-5.925781 0-4.144531-3.359375-7.5-7.5-7.5-4.144531 0-7.5 3.355469-7.5 7.5 0 19.796875-16.105469 35.902343-35.902343 35.902343h-150.941407c-4.140625 0-7.5 3.359376-7.5 7.5 0 4.140626 3.359375 7.5 7.5 7.5h273.824219c4.144531 0 7.5-3.359374 7.5-7.5 0-4.140624-3.355469-7.5-7.5-7.5zm0 0" fill="#bc8871"/><path d="m321.449219 311.199219h-313.949219c-4.140625 0-7.5-3.359375-7.5-7.5s3.359375-7.5 7.5-7.5h313.949219c4.144531 0 7.5 3.359375 7.5 7.5s-3.355469 7.5-7.5 7.5zm0 0" fill="#ffc1ab"/><path d="m179.019531 351.632812h-42.542969c-4.140624 0-7.5-3.359374-7.5-7.5 0-4.140624 3.359376-7.5 7.5-7.5h42.542969c4.140625 0 7.5 3.359376 7.5 7.5 0 4.140626-3.359375 7.5-7.5 7.5zm0 0" fill="#ffc1ab"/><path d="m361.84375 74.871094-20.105469 28.371094c-2.367187 3.339843-6.894531 4.320312-10.429687 2.253906l-54.609375-31.84375c-3.304688-1.929688-7.519531-1.210938-10 1.707031l-25.6875 30.203125c-2.554688 3-6.929688 3.664062-10.253907 1.550781l-16.496093-10.464843c-2.925781-1.855469-6.722657-1.589844-9.363281.660156l-38.472657 32.804687c-2.867187 2.441407-7.058593 2.523438-10.015625.195313l-9.324218-7.335938c-2.355469-1.855468-3.457032-4.886718-2.855469-7.824218 11.691406-57.148438 46.472656-104.96875 94.863281-113.726563 45.390625-8.214844 91.621094 19.976563 122.757812 64.308594 1.929688 2.746093 1.929688 6.40625-.007812 9.140625zm0 0" fill="#d0daad"/><path d="m276.269531 205.953125-13.550781 13.550781c-3.710938 3.710938-9.726562 3.710938-13.4375 0l-13.550781-13.550781c-3.710938-3.710937-3.710938-9.726563 0-13.4375l13.550781-13.550781c3.710938-3.710938 9.726562-3.710938 13.4375 0l13.550781 13.550781c3.710938 3.710937 3.710938 9.726563 0 13.4375zm0 0" fill="#ff7061"/><path d="m302.019531 171.980469c-4.125 0-7.480469-3.335938-7.496093-7.464844-.019532-4.144531 3.324218-7.515625 7.464843-7.535156h.109375.035156c4.128907 0 7.480469 3.335937 7.5 7.46875.019532 4.140625-3.324218 7.515625-7.46875 7.53125h-.109374c-.007813 0-.023438 0-.035157 0zm0 0" fill="#935641"/><path d="m209.867188 171.980469c-4.128907 0-7.480469-3.335938-7.5-7.464844-.019532-4.140625 3.324218-7.515625 7.464843-7.535156h.109375c4.160156-.042969 7.515625 3.324219 7.535156 7.46875.019532 4.140625-3.324218 7.511719-7.464843 7.53125h-.109375c-.011719 0-.023438 0-.035156 0zm0 0" fill="#935641"/><g fill="#ffcb6f"><path d="m410.1875 133.675781c-2.949219 0-5.742188-1.75-6.9375-4.644531-1.578125-3.828125.246094-8.214844 4.078125-9.792969l10.34375-4.261719c3.832031-1.578124 8.214844.246094 9.792969 4.078126 1.578125 3.828124-.246094 8.214843-4.078125 9.792968l-10.34375 4.261719c-.933594.386719-1.902344.566406-2.855469.566406zm0 0"/><path d="m395.5 110.773438c-1.597656 0-3.207031-.507813-4.570312-1.558594-3.28125-2.527344-3.894532-7.238282-1.363282-10.519532l6.828125-8.863281c2.523438-3.28125 7.234375-3.894531 10.515625-1.367187 3.285156 2.527344 3.894532 7.238281 1.367188 10.519531l-6.828125 8.867187c-1.476563 1.917969-3.699219 2.921876-5.949219 2.921876zm0 0"/><path d="m427.003906 161.75c-.332031 0-.664062-.019531-1-.066406l-11.09375-1.480469c-4.105468-.546875-6.988281-4.320313-6.441406-8.425781.550781-4.105469 4.320312-6.988282 8.425781-6.441406l11.09375 1.480468c4.105469.546875 6.988281 4.320313 6.441407 8.425782-.503907 3.769531-3.726563 6.507812-7.425782 6.507812zm0 0"/><path d="m115.25 82.683594c-.960938 0-1.9375-.1875-2.882812-.578125l-10.328126-4.300781c-3.824218-1.59375-5.632812-5.984376-4.042968-9.808594 1.59375-3.824219 5.984375-5.632813 9.808594-4.039063l10.332031 4.300781c3.824219 1.59375 5.632812 5.984376 4.039062 9.808594-1.199219 2.878906-3.988281 4.617188-6.925781 4.617188zm0 0"/><path d="m98.328125 110.695312c-3.710937 0-6.9375-2.753906-7.425781-6.535156-.535156-4.105468 2.363281-7.871094 6.472656-8.402344l11.097656-1.441406c4.109375-.535156 7.867188 2.367188 8.402344 6.472656.53125 4.105469-2.363281 7.871094-6.472656 8.402344l-11.097656 1.441406c-.328126.042969-.652344.0625-.976563.0625zm0 0"/><path d="m130.019531 59.832031c-2.257812 0-4.488281-1.011719-5.964843-2.941406l-6.796876-8.890625c-2.515624-3.292969-1.886718-8 1.402344-10.515625 3.292969-2.511719 8-1.886719 10.515625 1.402344l6.796875 8.890625c2.515625 3.292968 1.886719 8-1.402344 10.515625-1.363281 1.039062-2.964843 1.539062-4.550781 1.539062zm0 0"/></g></svg>