<svg height="512pt" viewBox="0 -11 512 512" width="512pt" xmlns="http://www.w3.org/2000/svg"><path d="m212.777344 384.1875c-16.988282-16.984375-16.988282-44.527344 0-61.511719 16.984375-16.988281 44.527344-16.988281 61.511718 0 16.984376 16.984375 32.859376 60.398438 15.875 77.386719-16.988281 16.984375-60.402343 1.113281-77.386718-15.875zm0 0" fill="#77bc4d"/><path d="m212.78125 322.671875c10.351562-10.351563 24.632812-14.394531 38.0625-12.121094-4.800781 2.113281-9.292969 5.125-13.222656 9.058594-16.976563 16.988281-16.976563 44.53125 0 61.519531 10.199218 10.199219 29.933594 20 47.75 22.511719-19.285156 10.742187-57.03125-3.886719-72.589844-19.449219-16.988281-16.988281-16.988281-44.53125 0-61.519531zm0 0" fill="#479838"/><path d="m256.699219 375.0625c-1.976563 0-3.957031-.753906-5.464844-2.261719l-44.292969-44.292969c-3.015625-3.015624-3.015625-7.910156 0-10.925781 3.019532-3.019531 7.910156-3.019531 10.929688 0l44.292968 44.289063c3.015626 3.019531 3.015626 7.910156 0 10.929687-1.511718 1.507813-3.488281 2.261719-5.464843 2.261719zm0 0" fill="#479838"/><path d="m186.589844 490.855469c13.597656 0 24.625-11.023438 24.625-24.625v-252.71875h-49.253906v252.71875c0 13.601562 11.027343 24.625 24.628906 24.625zm0 0" fill="#ffae4d"/><path d="m118.484375 490.855469c13.601563 0 24.625-11.023438 24.625-24.625v-252.71875h-49.253906v252.71875c0 13.601562 11.027343 24.625 24.628906 24.625zm0 0" fill="#77bc4d"/><path d="m151.691406 490.855469c13.601563 0 24.628906-11.023438 24.628906-24.625v-252.71875h-49.253906v252.71875c0 13.601562 11.023438 24.625 24.625 24.625zm0 0" fill="#f74f43"/><path d="m176.316406 213.511719v252.714843c0 13.609376-11.023437 24.632813-24.621094 24.632813-2.894531 0-5.667968-.496094-8.242187-1.421875 9.550781-3.378906 16.382813-12.496094 16.382813-23.210938v-252.714843zm0 0" fill="#c61a4f"/><path d="m512 281.558594v47.601562c0 5.691406-4.613281 10.304688-10.300781 10.304688h-491.398438c-5.6875 0-10.300781-4.613282-10.300781-10.304688v-47.601562c0-5.691406 4.613281-10.300782 10.300781-10.300782h491.398438c5.6875 0 10.300781 4.609376 10.300781 10.300782zm0 0" fill="#e0a98f"/><path d="m512 281.558594v19.667968h-512v-19.667968c0-5.691406 4.613281-10.300782 10.300781-10.300782h491.398438c5.6875 0 10.300781 4.609376 10.300781 10.300782zm0 0" fill="#bc8871"/><path d="m266.714844 264.339844c-3.820313-1.902344-8.492188-.367188-10.394532 3.453125-.128906.257812-.238281.519531-.335937.785156-.097656-.257813-.207031-.515625-.332031-.765625-1.902344-3.820312-6.539063-5.375-10.359375-3.472656-.902344.449218-22.074219 11.316406-22.074219 39.390625 0 4.265625 3.457031 7.726562 7.722656 7.726562 4.269532 0 7.726563-3.460937 7.726563-7.726562 0-11.394531 5.066406-18.417969 9.015625-22.160157v23.789063c0 4.269531 3.460937 7.726563 7.726562 7.726563s7.726563-3.457032 7.726563-7.726563v-24.847656c4.027343 3.394531 10.199219 10.644531 10.199219 23.21875 0 4.265625 3.457031 7.726562 7.726562 7.726562 4.265625 0 7.722656-3.460937 7.722656-7.726562.003906-28.074219-21.171875-38.941407-22.070312-39.390625zm0 0" fill="#ffcb6f"/><path d="m179.410156 264.339844c-3.820312-1.902344-8.492187-.367188-10.394531 3.453125-.128906.257812-.238281.519531-.335937.785156-.097657-.257813-.203126-.515625-.332032-.765625-1.902344-3.820312-6.535156-5.375-10.359375-3.472656-.902343.449218-22.074219 11.316406-22.074219 39.390625 0 4.265625 3.457032 7.726562 7.726563 7.726562 4.265625 0 7.722656-3.460937 7.722656-7.726562 0-11.394531 5.070313-18.417969 9.015625-22.160157v23.789063c0 4.269531 3.460938 7.726563 7.726563 7.726563 4.269531 0 7.726562-3.457032 7.726562-7.726563v-24.847656c4.027344 3.394531 10.199219 10.644531 10.199219 23.21875 0 4.265625 3.457031 7.726562 7.726562 7.726562 4.265626 0 7.726563-3.460937 7.726563-7.726562 0-28.074219-21.171875-38.941407-22.074219-39.390625zm0 0" fill="#ffcb6f"/><path d="m470.277344 293.5h-96.320313v15.453125h96.320313c4.269531 0 7.726562-3.460937 7.726562-7.726563 0-4.265624-3.457031-7.726562-7.726562-7.726562zm0 0" fill="#ffd2bc"/><path d="m494.660156 233.945312h-11.863281c.847656-3.90625 1.304687-7.957031 1.304687-12.109374 0-4.269532-3.457031-7.726563-7.726562-7.726563-4.265625 0-7.726562 3.457031-7.726562 7.726563 0 22.988281-18.703126 41.695312-41.695313 41.695312h-16.082031c-4.265625 0-7.722656 3.457031-7.722656 7.726562 0 4.265626 3.457031 7.722657 7.722656 7.722657h16.082031c21.523437 0 40.296875-11.960938 50.042969-29.582031h17.664062c4.269532 0 7.726563-3.460938 7.726563-7.726563s-3.457031-7.726563-7.726563-7.726563zm0 0" fill="#bc8871"/><path d="m325.085938 157.875c.007812 1.03125.007812 2.070312 0 3.101562-.949219 68.023438-56.464844 123.539063-124.488282 124.488282-1.039062.019531-2.070312.019531-3.109375.007812-92.46875-.9375-137.355469-113.925781-71.960937-179.324218l20.246094-20.234376c23.351562-23.351562 52.785156-32.644531 81-30.71875 44.03125 3 85.136718 33.265626 95.695312 79.996094 1.636719 7.179688 2.535156 14.761719 2.617188 22.683594zm0 0" fill="#f74f43"/><path d="m322.46875 135.191406c-6.472656 1.8125-13.289062 2.78125-20.335938 2.78125-41.734374 0-75.6875-33.945312-75.6875-75.675781 0-2.390625.113282-4.761719.328126-7.101563 44.03125 3 85.136718 33.265626 95.695312 79.996094zm0 0" fill="#ce2828"/><path d="m325.085938 157.875c.007812 1.03125.007812 2.070312 0 3.101562-.949219 68.023438-56.464844 123.539063-124.488282 124.488282-1.039062.019531-2.070312.019531-3.109375.007812-3.710937-.039062-7.335937-.257812-10.878906-.648437 62.921875-6.386719 112.609375-59.523438 113.503906-123.847657.019531-1.03125.019531-2.070312.007813-3.101562-.574219-57.359375-44.265625-96.402344-92.960938-102.183594 57.648438-6.902344 117.246094 35.117188 117.925782 102.183594zm0 0" fill="#ce2828"/><path d="m217.113281 220.121094c-25.503906 66.089844-176.953125 105.679687-163.390625 36.148437 13.335938-68.371093 65.164063-211.546875 116.542969-191.714843 51.378906 19.828124 72.351563 89.476562 46.847656 155.566406zm0 0" fill="#70efef"/><path d="m138.558594 162.550781-34.6875 90.160157-15.253906 39.652343c-1.1875 3.070313-4.109376 4.957031-7.210938 4.957031-.929688 0-1.867188-.175781-2.78125-.527343-3.976562-1.523438-5.964844-5.996094-4.429688-9.980469l12.886719-33.5 37.054688-96.300781c1.535156-3.988281 6.007812-5.976563 9.984375-4.441407 3.984375 1.53125 5.972656 6.003907 4.4375 9.980469zm0 0" fill="#42d2d9"/><path d="m162.820312 197.90625-17.203124 43.761719-19.964844 50.746093c-1.195313 3.039063-4.113282 4.90625-7.191406 4.90625-.9375 0-1.898438-.175781-2.824219-.546874-3.976563-1.554688-5.921875-6.046876-4.367188-10.011719l15.164063-38.5625 22.003906-55.945313c1.554688-3.96875 6.046875-5.925781 10.011719-4.359375 3.980469 1.566407 5.925781 6.046875 4.371093 10.011719zm0 0" fill="#42d2d9"/><path d="m184.566406 71.835938c-50.035156-11.25-99.554687 126.320312-112.546875 192.921874-2.367187 12.164063.308594 20.992188 6.480469 26.90625-17.945312-3.378906-28.863281-14.421874-24.773438-35.398437 13.328126-68.371094 65.15625-211.546875 116.53125-191.714844 5.070313 1.957031 9.851563 4.398438 14.308594 7.285157zm0 0" fill="#42d2d9"/><path d="m217.113281 220.117188c-17.8125 46.164062-97.054687 79.398437-138.613281 71.546874-17.945312-3.378906-28.863281-14.421874-24.773438-35.394531.964844-4.957031 2.128907-10.304687 3.480469-15.949219 3.8125 5.492188 9.949219 9.140626 17.667969 11.167969 40.390625 10.621094 123.890625-23.199219 142.234375-70.730469 4.75-12.3125 7.894531-24.746093 9.519531-36.953124 3.351563 23.828124.507813 50.34375-9.515625 76.3125zm0 0" fill="#ffae4d"/><path d="m78.5 291.664062c-17.945312-3.378906-28.863281-14.421874-24.773438-35.394531.964844-4.957031 2.128907-10.304687 3.480469-15.949219 3.8125 5.492188 9.949219 9.140626 17.667969 11.167969-1.09375 4.667969-2.039062 9.105469-2.855469 13.269531-2.367187 12.164063.308594 20.992188 6.480469 26.90625zm0 0" fill="#ff9b36"/><path d="m364.425781 62.292969c0 34.402343-27.890625 62.292969-62.292969 62.292969-34.402343 0-62.292968-27.890626-62.292968-62.292969 0-34.402344 27.890625-62.292969 62.292968-62.292969 34.402344 0 62.292969 27.890625 62.292969 62.292969zm0 0" fill="#f74f43"/><path d="m339.703125 60.421875c0 17.691406-14.34375 32.039063-32.035156 32.039063-17.695313 0-32.039063-14.347657-32.039063-32.039063 0-17.695313 14.34375-32.039063 32.039063-32.039063 17.691406 0 32.035156 14.34375 32.035156 32.039063zm0 0" fill="#ffe8d9"/><path d="m314.628906 65.054688c-4.25 0-7.707031-3.4375-7.726562-7.691407-.019532-4.265625 3.425781-7.742187 7.691406-7.761719h.113281.035157c4.25 0 7.707031 3.4375 7.726562 7.691407.015625 4.265625-3.425781 7.742187-7.695312 7.761719h-.113282c-.007812 0-.019531 0-.03125 0zm0 0" fill="#935641"/><path d="m356.667969 120.535156-19.375-5.722656c-5.941407-1.753906-10.015625-7.210938-10.015625-13.40625v-13.648438c0-7.722656 6.257812-13.980468 13.976562-13.980468h13.648438c6.195312 0 11.652344 4.078125 13.40625 10.019531l5.726562 19.371094c3.140625 10.628906-6.738281 20.507812-17.367187 17.367187zm0 0" fill="#ff9b36"/><g fill="#70efef"><path d="m417.703125 137.140625c-.988281 0-1.996094-.191406-2.964844-.59375l-10.644531-4.433594c-3.9375-1.636719-5.800781-6.160156-4.160156-10.101562 1.636718-3.941407 6.164062-5.800781 10.101562-4.164063l10.640625 4.433594c3.941407 1.640625 5.804688 6.160156 4.164063 10.101562-1.234375 2.96875-4.109375 4.757813-7.136719 4.757813zm0 0"/><path d="m413.046875 105.335938c-3.824219 0-7.148437-2.839844-7.652344-6.734376-.550781-4.230468 2.433594-8.105468 6.667969-8.65625l11.429688-1.484374c4.230468-.542969 8.109374 2.4375 8.65625 6.667968.550781 4.230469-2.433594 8.109375-6.664063 8.65625l-11.433594 1.484375c-.335937.042969-.671875.066407-1.003906.066407zm0 0"/><path d="m398.863281 165.40625c-2.324219 0-4.621093-1.046875-6.140625-3.035156l-7.003906-9.15625c-2.589844-3.390625-1.945312-8.238282 1.445312-10.832032 3.390626-2.59375 8.242188-1.941406 10.832032 1.445313l7 9.160156c2.59375 3.390625 1.945312 8.238281-1.445313 10.828125-1.398437 1.070313-3.050781 1.589844-4.6875 1.589844zm0 0"/></g><path d="m400.328125 299.429688c-16.984375 16.984374-44.523437 16.984374-61.511719 0-16.984375-16.988282-16.984375-44.527344 0-61.515626 16.988282-16.984374 60.402344-32.859374 77.386719-15.875 16.988281 16.988282 1.113281 60.402344-15.875 77.390626zm0 0" fill="#77bc4d"/><path d="m338.8125 299.421875c-10.351562-10.351563-14.394531-24.632813-12.117188-38.058594 2.113282 4.796875 5.125 9.289063 9.054688 13.21875 16.988281 16.980469 44.53125 16.980469 61.523438 0 10.199218-10.199219 20-29.933593 22.511718-47.746093 10.738282 19.28125-3.890625 57.027343-19.449218 72.585937-16.988282 16.988281-44.535157 16.988281-61.523438 0zm0 0" fill="#479838"/><path d="m339.1875 307.523438c-1.976562 0-3.957031-.753907-5.464844-2.261719-3.015625-3.019531-3.015625-7.910157 0-10.925781l44.292969-44.296876c3.019531-3.015624 7.910156-3.015624 10.929687 0 3.015626 3.019532 3.015626 7.910157 0 10.929688l-44.292968 44.292969c-1.511719 1.507812-3.488282 2.261719-5.464844 2.261719zm0 0" fill="#479838"/><path d="m103.871094 252.710938-15.253906 39.652343c-1.1875 3.070313-4.109376 4.957031-7.210938 4.957031-.929688 0-1.867188-.175781-2.78125-.527343-3.976562-1.523438-5.964844-5.996094-4.429688-9.980469l12.886719-33.5c5.242188.296875 10.886719.089844 16.789063-.601562zm0 0" fill="#ff9b36"/><path d="m145.617188 241.667969-19.964844 50.746093c-1.195313 3.039063-4.113282 4.90625-7.191406 4.90625-.9375 0-1.898438-.175781-2.824219-.546874-3.976563-1.554688-5.921875-6.046876-4.367188-10.011719l15.164063-38.5625c6.367187-1.761719 12.804687-3.957031 19.183594-6.53125zm0 0" fill="#ff9b36"/></svg>