<svg height="512pt" viewBox="-16 0 511 512" width="512pt" xmlns="http://www.w3.org/2000/svg"><path d="m334.59375 185.375c0-4.28125-3.46875-7.75-7.75-7.75s-7.75 3.46875-7.75 7.75c0 15.769531-12.828125 28.597656-28.597656 28.597656-4.277344 0-7.75 3.46875-7.75 7.75s3.472656 7.75 7.75 7.75c3.59375 0 7.078125-.441406 10.421875-1.253906v11.382812c0 4.277344 3.46875 7.75 7.75 7.75s7.75-3.472656 7.75-7.75v-18.582031c11.007812-8.027343 18.175781-21.011719 18.175781-35.644531zm0 0" fill="#bc8871"/><path d="m204.148438 265.730469h-11.074219c-.898438-6.429688-3.839844-12.363281-8.507813-17.035157-3.027344-3.027343-7.933594-3.023437-10.960937 0-3.027344 3.027344-3.027344 7.933594 0 10.960938 2.753906 2.75 4.269531 6.410156 4.269531 10.304688 0 3.890624-1.515625 7.550781-4.269531 10.300781l-12.917969 12.917969c-3.023438 3.027343-3.023438 7.933593 0 10.960937 1.515625 1.511719 3.5 2.269531 5.480469 2.269531 1.984375 0 3.96875-.757812 5.480469-2.269531l12.917968-12.917969c2.902344-2.902344 5.132813-6.296875 6.625-9.992187h12.957032c4.28125 0 7.75-3.46875 7.75-7.75s-3.46875-7.75-7.75-7.75zm0 0" fill="#e0a98f"/><path d="m52.347656 264.328125c0-4.277344-3.46875-7.75-7.75-7.75s-7.75 3.472656-7.75 7.75c0 15.769531-12.828125 28.597656-28.597656 28.597656-4.28125 0-7.75 3.46875-7.75 7.75s3.46875 7.75 7.75 7.75c1.179688 0 2.34375-.058593 3.496094-.152343v17.09375c0 4.28125 3.46875 7.75 7.75 7.75s7.75-3.46875 7.75-7.75v-21.25c14.832031-7.109376 25.101562-22.269532 25.101562-39.789063zm0 0" fill="#ffd2bc"/><path d="m448.792969 106.210938-17.816407-17.816407c3.839844-6.542969 6.054688-14.148437 6.054688-22.265625 0-4.28125-3.46875-7.75-7.75-7.75s-7.75 3.46875-7.75 7.75c0 15.765625-12.828125 28.597656-28.597656 28.597656-4.28125 0-7.75 3.46875-7.75 7.75 0 4.277344 3.46875 7.75 7.75 7.75 10.597656 0 20.332031-3.757812 27.941406-10.011718l16.957031 16.957031c1.515625 1.511719 3.496094 2.269531 5.480469 2.269531s3.964844-.757812 5.480469-2.269531c3.027343-3.027344 3.027343-7.933594 0-10.960937zm0 0" fill="#bc8871"/><path d="m393.152344 96.285156c-39.644532-39.652344-92.363282-61.492187-148.433594-61.492187-56.074219 0-108.792969 21.839843-148.4375 61.492187-39.652344 39.644532-61.492188 92.359375-61.492188 148.433594s21.839844 108.792969 61.492188 148.433594c39.644531 39.652344 92.363281 61.492187 148.4375 61.492187 56.070312 0 108.789062-21.839843 148.433594-61.492187 39.652344-39.644532 61.492187-92.359375 61.492187-148.433594 0-56.070312-21.839843-108.789062-61.492187-148.433594zm-148.433594 243.757813c-52.5625 0-95.324219-42.761719-95.324219-95.324219 0-52.558594 42.761719-95.320312 95.324219-95.320312 52.558594 0 95.320312 42.757812 95.320312 95.320312s-42.757812 95.324219-95.320312 95.324219zm0 0" fill="#e0a98f"/><path d="m244.71875 72.355469c-95.039062 0-172.363281 77.324219-172.363281 172.363281s77.324219 172.363281 172.363281 172.363281 172.363281-77.324219 172.363281-172.363281-77.324219-172.363281-172.363281-172.363281zm0 267.6875c-52.5625 0-95.324219-42.761719-95.324219-95.324219 0-52.558594 42.761719-95.320312 95.324219-95.320312 52.558594 0 95.320312 42.757812 95.320312 95.320312s-42.757812 95.324219-95.320312 95.324219zm0 0" fill="#bc8871"/><path d="m244.71875 110.378906c-74.082031 0-134.34375 60.261719-134.34375 134.339844 0 74.082031 60.261719 134.34375 134.34375 134.34375 74.078125 0 134.34375-60.261719 134.34375-134.34375 0-74.078125-60.265625-134.339844-134.34375-134.339844zm0 229.664063c-52.5625 0-95.324219-42.761719-95.324219-95.324219 0-52.558594 42.761719-95.320312 95.324219-95.320312 52.558594 0 95.320312 42.757812 95.320312 95.320312s-42.757812 95.324219-95.320312 95.324219zm0 0" fill="#ffd2bc"/><path d="m320.238281 456.628906c-20.097656-20.097656-20.097656-52.683594 0-72.78125 20.097657-20.097656 52.683594-20.097656 72.78125 0 20.097657 20.097656 38.878907 71.464844 18.78125 91.5625-20.097656 20.097656-71.464843 1.316406-91.5625-18.78125zm0 0" fill="#77bc4d"/><path d="m320.242188 456.625c-12.4375-12.429688-17.175782-29.652344-14.222657-45.722656 1.820313 9.914062 6.558594 19.390625 14.222657 27.046875 20.097656 20.097656 71.460937 38.875 91.558593 18.78125 4.242188-4.234375 6.75-9.863281 7.882813-16.289063 1.960937 13.980469.128906 26.957032-7.882813 34.972656-20.097656 20.09375-71.464843 1.3125-91.558593-18.789062zm0 0" fill="#479838"/><path d="m372.207031 444.441406c-1.980469 0-3.964843-.757812-5.480469-2.269531l-52.40625-52.40625c-3.023437-3.027344-3.023437-7.933594 0-10.960937 3.027344-3.027344 7.933594-3.027344 10.960938 0l52.40625 52.40625c3.027344 3.023437 3.027344 7.933593 0 10.960937-1.511719 1.511719-3.496094 2.269531-5.480469 2.269531zm0 0" fill="#479838"/><path d="m96.417969 387.261719c20.097656-20.097657 52.683593-20.097657 72.78125 0 20.097656 20.097656 20.097656 52.683593 0 72.78125-20.097657 20.097656-71.464844 38.878906-91.5625 18.78125-20.101563-20.097657-1.316407-71.464844 18.78125-91.5625zm0 0" fill="#77bc4d"/><path d="m96.421875 387.265625c12.429687-12.441406 29.648437-17.179687 45.722656-14.226563-9.914062 1.820313-19.390625 6.558594-27.046875 14.226563-20.097656 20.09375-38.878906 71.460937-18.78125 91.554687 4.234375 4.242188 9.859375 6.753907 16.289063 7.882813-13.980469 1.960937-26.960938.132813-34.972657-7.882813-20.097656-20.09375-1.316406-71.460937 18.789063-91.554687zm0 0" fill="#479838"/><path d="m116.355469 446.980469c-1.984375 0-3.96875-.757813-5.480469-2.269531-3.027344-3.027344-3.027344-7.933594 0-10.960938l52.40625-52.40625c3.027344-3.027344 7.933594-3.027344 10.960938 0 3.027343 3.027344 3.027343 7.933594 0 10.960938l-52.40625 52.40625c-1.515626 1.511718-3.5 2.269531-5.480469 2.269531zm0 0" fill="#479838"/><path d="m236.539062 435.96875-23.164062 14.113281c-9.09375 5.539063-18.945312 7.488281-28.304688 6.546875-22.132812-2.226562-41.484374-20.589844-41.480468-45.757812 0-25.144532 19.308594-43.492188 41.40625-45.75 9.378906-.960938 19.269531.984375 28.378906 6.539062l23.164062 14.113282zm0 0" fill="#f74f43"/><path d="m304.441406 456.621094c-9.386718.949218-19.265625-.984375-28.386718-6.546875l-23.160157-14.097657v-50.210937l23.160157-14.101563c9.097656-5.535156 18.945312-7.488281 28.316406-6.550781 22.117187 2.226563 41.46875 20.585938 41.476562 45.757813 0 25.144531-19.3125 43.484375-41.40625 45.75zm0 0" fill="#f74f43"/><path d="m244.714844 309.742188c35.820312 0 57.84375 39.199218 39.207031 69.789062l-14.109375 23.164062h-50.195312l-14.109376-23.164062c-18.632812-30.589844 3.386719-69.789062 39.207032-69.789062zm0 0" fill="#ff7061"/><path d="m244.714844 512c-35.820313 0-57.84375-39.195312-39.207032-69.789062l14.109376-23.160157h50.195312l14.109375 23.160157c18.636719 30.59375-3.386719 69.789062-39.207031 69.789062zm0 0" fill="#ff7061"/><path d="m281.203125 410.871094c0 20.152344-16.335937 36.488281-36.488281 36.488281s-36.488282-16.335937-36.488282-36.488281 16.335938-36.488282 36.488282-36.488282 36.488281 16.335938 36.488281 36.488282zm0 0" fill="#ffd2bc"/><path d="m409.148438 279.253906c-24.09375 0-43.628907-19.535156-43.628907-43.628906 0-24.097656 19.535157-43.628906 43.628907-43.628906s66.148437 19.53125 66.148437 43.628906c0 24.09375-42.054687 43.628906-66.148437 43.628906zm0 0" fill="#77bc4d"/><path d="m475.296875 235.625c0 24.097656-42.054687 43.625-66.152344 43.625-24.09375 0-43.621093-19.527344-43.621093-43.625 0-4.09375.5625-8.058594 1.625-11.816406 5.140624 18.351562 21.996093 31.804687 41.996093 31.804687s52.371094-13.453125 62.804688-31.804687c2.128906 3.757812 3.347656 7.722656 3.347656 11.816406zm0 0" fill="#479838"/><path d="m428.351562 243.898438h-62.828124c-4.28125 0-7.75-3.46875-7.75-7.75s3.46875-7.75 7.75-7.75h62.828124c4.28125 0 7.75 3.46875 7.75 7.75s-3.46875 7.75-7.75 7.75zm0 0" fill="#479838"/><path d="m163.507812 96.054688c17.039063 17.039062 17.039063 44.664062 0 61.699218-17.039062 17.039063-44.664062 17.039063-61.699218 0-17.039063-17.035156-32.960938-60.582031-15.921875-77.621094 17.039062-17.039062 60.582031-1.113281 77.621093 15.921876zm0 0" fill="#77bc4d"/><path d="m163.503906 157.757812c-10.386718 10.386719-24.710937 14.441407-38.179687 12.15625 4.816406-2.121093 9.320312-5.140624 13.261719-9.082031 17.03125-17.042969 17.03125-44.667969 0-61.710937-10.230469-10.226563-30.023438-20.058594-47.894532-22.578125 19.34375-10.773438 57.203125 3.902343 72.808594 19.507812 17.042969 17.039063 17.042969 44.667969.003906 61.707031zm0 0" fill="#479838"/><path d="m163.878906 165.132812c-1.984375 0-3.96875-.753906-5.480468-2.269531l-44.429688-44.425781c-3.023438-3.027344-3.023438-7.933594 0-10.960938 3.027344-3.027343 7.933594-3.027343 10.960938 0l44.429687 44.425782c3.023437 3.027344 3.023437 7.933594 0 10.960937-1.515625 1.515625-3.5 2.269531-5.480469 2.269531zm0 0" fill="#479838"/><g fill="#e0a98f"><path d="m247.414062 51.847656c-24.3125 0-44.09375-19.785156-44.09375-44.097656 0-4.28125 3.46875-7.75 7.75-7.75s7.75 3.46875 7.75 7.75c0 15.769531 12.828126 28.597656 28.59375 28.597656 4.28125 0 7.75 3.46875 7.75 7.75s-3.46875 7.75-7.75 7.75zm0 0"/><path d="m471 356.382812c-24.3125 0-44.097656-19.785156-44.097656-44.097656 0-4.28125 3.46875-7.75 7.75-7.75s7.75 3.46875 7.75 7.75c0 15.765625 12.828125 28.597656 28.597656 28.597656 4.28125 0 7.75 3.46875 7.75 7.75 0 4.277344-3.46875 7.75-7.75 7.75zm0 0"/></g></svg>