<svg height="512pt" viewBox="-128 0 512 512" width="512pt" xmlns="http://www.w3.org/2000/svg"><path d="m145.285156 395.226562h-33.601562v-184.746093c0-9.277344 7.523437-16.800781 16.800781-16.800781 9.28125 0 16.804687 7.523437 16.804687 16.800781v184.746093zm0 0" fill="#b9c394"/><path d="m100.765625 494.90625v-148.476562c0-9.4375 7.640625-17.09375 17.082031-17.09375h21.277344c9.4375 0 17.078125 7.65625 17.078125 17.09375v148.476562c0 9.4375-7.640625 17.089844-17.078125 17.089844h-21.277344c-9.441406 0-17.082031-7.652344-17.082031-17.089844zm0 0" fill="#ffcb6f"/><path d="m100.765625 494.90625v-148.476562c0-9.441407 7.640625-17.09375 17.082031-17.09375h21.273438c.292968 0 .589844.011718.882812.019531-9.015625.496093-16.152344 7.945312-16.152344 17.074219v148.476562c0 9.117188 7.136719 16.578125 16.152344 17.074219-.292968.007812-.589844.019531-.882812.019531h-21.273438c-9.441406 0-17.082031-7.660156-17.082031-17.09375zm0 0" fill="#ff9b36"/><path d="m256.96875 99.875v131.082031c0 9.433594-11.496094 14.0625-18.039062 7.261719l-74.101563-76.984375v-161.234375l89.257813 92.738281c.84375.875 1.523437 1.894531 2 2.988281.574218 1.296876.882812 2.707032.882812 4.148438zm0 0" fill="#fc4265"/><path d="m256.082031 95.722656h-91.253906v-95.722656l89.257813 92.738281c.84375.875 1.523437 1.894531 1.996093 2.984375zm0 0" fill="#c61a4f"/><path d="m238.230469 18.027344-76.996094 74.113281h-161.234375l92.757812-89.265625c.886719-.855469 1.886719-1.527344 2.976563-2 1.300781-.574219 2.710937-.875 4.152344-.875h131.082031c9.425781 0 14.058594 11.484375 7.261719 18.027344zm0 0" fill="#77bc4d"/><path d="m95.734375.875v91.265625h-95.734375l92.757812-89.265625c.886719-.855469 1.886719-1.523438 2.976563-2zm0 0" fill="#479838"/><path d="m92.140625 95.722656v161.234375l-89.253906-92.734375c-.847657-.878906-1.527344-1.898437-2-2.988281-.578125-1.296875-.886719-2.710937-.886719-4.152344v-131.078125c0-9.4375 11.496094-14.0625 18.039062-7.265625zm0 0" fill="#ffcb6f"/><path d="m92.140625 161.234375v95.722656l-89.253906-92.734375c-.847657-.878906-1.527344-1.898437-2-2.988281zm0 0" fill="#ff9b36"/><path d="m210.929688 209.128906-46.699219 44.957032c-.039063.039062-.082031.078124-.132813.109374-.855468.804688-1.8125 1.433594-2.863281 1.886719-1.296875.578125-2.710937.875-4.152344.875h-131.070312c-9.4375 0-14.070313-11.484375-7.273438-18.027343l76.996094-74.101563h72.554687zm0 0" fill="#70efef"/><path d="m210.929688 209.128906-46.832032 45.066406c-.855468.804688-1.8125 1.433594-2.863281 1.886719v-91.253906h7.054687zm0 0" fill="#42d2d9"/><path d="m186.589844 128.476562c0 32.089844-26.015625 58.101563-58.101563 58.101563-32.089843 0-58.101562-26.011719-58.101562-58.101563 0-32.085937 26.011719-58.101562 58.101562-58.101562 32.085938 0 58.101563 26.015625 58.101563 58.101562zm0 0" fill="#d0daad"/><path d="m70.382812 128.480469c0-32.09375 26.011719-58.105469 58.101563-58.105469 5.679687 0 11.183594.820312 16.371094 2.339844-24.113281 7.070312-41.722657 29.363281-41.722657 55.765625 0 26.398437 17.605469 48.691406 41.722657 55.765625-5.1875 1.519531-10.691407 2.335937-16.371094 2.335937-32.089844 0-58.101563-26.011719-58.101563-58.101562zm0 0" fill="#b9c394"/></svg>