<svg height="512pt" viewBox="-191 0 512 512" width="512pt" xmlns="http://www.w3.org/2000/svg"><path d="m64.765625 512c11.128906 0 20.148437-9.019531 20.148437-20.148438v-123.746093h-40.292968v123.746093c0 11.128907 9.019531 20.148438 20.144531 20.148438zm0 0" fill="#e0a98f"/><path d="m44.617188 368.105469v123.742187c0 11.132813 9.019531 20.148438 20.148437 20.148438 2.808594 0 5.480469-.574219 7.910156-1.613282-7.195312-3.070312-12.234375-10.210937-12.234375-18.535156v-123.742187zm0 0" fill="#bc8871"/><path d="m93.6875 394.433594h-57.84375c-19.796875 0-35.84375-16.046875-35.84375-35.84375v-293.820313c0-35.769531 28.996094-64.76562475 64.765625-64.76562475s64.765625 28.99609375 64.765625 64.76562475v293.820313c0 19.792968-16.046875 35.84375-35.84375 35.84375zm0 0" fill="#ffcb6f"/><path d="m60.3125 394.429688h-24.472656c-19.789063 0-35.839844-16.042969-35.839844-35.839844v-293.824219c0-35.769531 28.996094-64.765625 64.765625-64.765625 4.179687 0 8.269531.398438 12.230469 1.15625-29.917969 5.714844-52.53125 32.019531-52.53125 63.609375v293.824219c0 19.796875 16.050781 35.839844 35.847656 35.839844zm0 0" fill="#ff9b36"/><path d="m129.53125 239.855469v73.984375l-80.589844 80.589844h-13.101562c-16.492188 0-30.394532-11.148438-34.558594-26.324219zm0 0" fill="#e6f073"/><path d="m50.347656 393.023438-1.40625 1.40625h-13.101562c-16.492188 0-30.394532-11.148438-34.558594-26.324219l23.183594-23.183594v13.667969c0 16.339844 10.933594 30.117187 25.882812 34.433594zm0 0" fill="#cbd359"/><path d="m129.53125 90.601562v73.972657l-105.066406 105.074219-24.464844 24.464843v-73.992187l24.464844-24.464844zm0 0" fill="#e6f073"/><path d="m24.464844 269.648438-24.464844 24.464843v-73.992187l24.464844-24.464844zm0 0" fill="#cbd359"/><path d="m117.585938 27.265625v.007813l-93.121094 93.113281-24.464844 24.464843v-73.984374l26.703125-26.695313 43.902344-43.910156c15.554687 1.390625 29.523437 8.277343 39.957031 18.707031 2.566406 2.5625 4.910156 5.335938 7.023438 8.296875zm0 0" fill="#e6f073"/><path d="m24.464844 120.386719-24.464844 24.464843v-73.984374l26.703125-26.695313c-1.472656 7.207031-2.238281 14.230469-2.238281 20.59375zm0 0" fill="#cbd359"/></svg>