<svg height="512pt" viewBox="0 -125 512 512" width="512pt" xmlns="http://www.w3.org/2000/svg"><path d="m471.152344 217.335938h-434.664063c0-120.023438 97.300781-217.335938 217.328125-217.335938s217.335938 97.3125 217.335938 217.335938zm0 0" fill="#ff7061"/><path d="m437.40625 217.335938h-367.179688c0-101.234376 82.363282-183.597657 183.589844-183.597657 101.234375 0 183.589844 82.363281 183.589844 183.597657zm0 0" fill="#f74f43"/><path d="m424.019531 217.335938h-340.398437c0-94 76.199218-170.199219 170.199218-170.199219 93.996094 0 170.199219 76.199219 170.199219 170.199219zm0 0" fill="#ffae4d"/><path d="m387.5625 217.335938h-267.484375c0-73.75 59.996094-133.746094 133.738281-133.746094 73.75 0 133.746094 59.996094 133.746094 133.746094zm0 0" fill="#ff9b36"/><path d="m374.171875 217.335938h-240.707031c0-66.472657 53.886718-120.355469 120.355468-120.355469s120.351563 53.882812 120.351563 120.355469zm0 0" fill="#e6f073"/><path d="m342.628906 217.335938h-177.625c0-48.972657 39.847656-88.8125 88.8125-88.8125 48.972656 0 88.8125 39.839843 88.8125 88.8125zm0 0" fill="#cbd359"/><path d="m178.398438 217.335938c0-41.652344 33.765624-75.421876 75.421874-75.421876 41.652344 0 75.417969 33.769532 75.417969 75.421876zm0 0" fill="#70efef"/><path d="m137.511719 193.542969c-6.015625-24.3125-27.972657-42.339844-54.144531-42.339844-25.703126 0-47.339844 17.382813-53.804688 41.035156-16.78125 2.828125-29.5625 17.425781-29.5625 35.011719 0 19.609375 15.898438 35.507812 35.511719 35.507812 7.859375 0 15.121093-2.554687 21.003906-6.878906 7.964844 4.382813 17.117187 6.878906 26.851563 6.878906 8.613281 0 16.769531-1.953124 24.050781-5.4375 5.472656 3.445313 11.949219 5.4375 18.894531 5.4375 19.609375 0 35.507812-15.898437 35.507812-35.507812 0-15.699219-10.1875-29.015625-24.308593-33.707031zm0 0" fill="#70efef"/><path d="m161.820312 227.25c0 17.128906-12.132812 31.425781-28.265624 34.769531 7.792968-6.511719 12.753906-16.304687 12.753906-27.257812 0-15.695313-10.1875-29.015625-24.308594-33.707031-6.015625-24.3125-27.972656-42.339844-54.144531-42.339844-5.648438 0-11.097657.839844-16.234375 2.398437 9.011718-6.25 19.953125-9.910156 31.742187-9.910156 26.175781 0 48.132813 18.027344 54.148438 42.339844 14.121093 4.691406 24.308593 18.007812 24.308593 33.707031zm0 0" fill="#42d2d9"/><path d="m374.488281 193.542969c6.015625-24.3125 27.972657-42.339844 54.144531-42.339844 25.703126 0 47.339844 17.382813 53.804688 41.035156 16.78125 2.828125 29.5625 17.425781 29.5625 35.011719 0 19.609375-15.898438 35.507812-35.511719 35.507812-7.859375 0-15.121093-2.554687-21.003906-6.878906-7.964844 4.382813-17.117187 6.878906-26.851563 6.878906-8.613281 0-16.769531-1.953124-24.050781-5.4375-5.472656 3.445313-11.949219 5.4375-18.894531 5.4375-19.609375 0-35.507812-15.898437-35.507812-35.507812 0-15.699219 10.1875-29.015625 24.308593-33.707031zm0 0" fill="#70efef"/><path d="m350.179688 227.25c0 17.128906 12.132812 31.425781 28.265624 34.769531-7.792968-6.511719-12.753906-16.304687-12.753906-27.257812 0-15.695313 10.1875-29.015625 24.308594-33.707031 6.015625-24.3125 27.972656-42.339844 54.144531-42.339844 5.648438 0 11.097657.839844 16.234375 2.398437-9.011718-6.25-19.953125-9.910156-31.742187-9.910156-26.175781 0-48.132813 18.027344-54.148438 42.339844-14.121093 4.691406-24.308593 18.007812-24.308593 33.707031zm0 0" fill="#42d2d9"/></svg>