<svg height="512pt" viewBox="-47 0 512 512.0001" width="512pt" xmlns="http://www.w3.org/2000/svg"><path d="m137.492188 140.898438c7.46875-19.074219 26.417968-30.261719 45.84375-28.746094 4.355468.339844 8.75 1.328125 13.042968 3.003906 23.363282 9.152344 34.890625 35.519531 25.738282 58.886719-3.476563 8.875-10.664063 19.1875-19.527344 28.066406-14.476563 14.511719-33.414063 25.191406-47.90625 19.515625-23.367188-9.152344-26.34375-57.359375-17.191406-80.726562zm0 0" fill="#479838"/><path d="m114.105469 91.089844c10.765625 19.019531 32.46875 27.984375 52.753906 23.453125 4.554687-1.015625 9.042969-2.71875 13.324219-5.136719 23.304687-13.1875 31.507812-42.773438 18.320312-66.078125-5.011718-8.851563-14.160156-18.660156-24.859375-26.703125-17.476562-13.148438-39.089843-21.574219-53.542969-13.398438-23.304687 13.191407-19.183593 64.558594-5.996093 87.863282zm0 0" fill="#479838"/><path d="m180.183594 109.40625c23.304687-13.1875 31.507812-42.773438 18.320312-66.078125-2.207031-3.898437-5.21875-7.984375-8.808594-12.019531-10.019531 12.210937-17.960937 25.003906-22.457031 36.460937-6.144531 15.675781-7.113281 32.101563-3.738281 47.390625 1.121094-.167968 2.242188-.367187 3.359375-.617187 4.554687-1.015625 9.042969-2.71875 13.324219-5.136719zm0 0" fill="#317f21"/><path d="m186.335938 70.632812c-12.429688 31.703126 3.191406 67.476563 34.890624 79.90625 31.699219 12.429688 67.472657-3.191406 79.90625-34.890624 12.429688-31.699219 8.425782-97.097657-23.277343-109.53125-31.699219-12.429688-79.089844 32.816406-91.519531 64.515624zm0 0" fill="#77bc4d"/><path d="m.00390625 424.746094c0 48.191406 39.06249975 87.253906 87.24999975 87.253906 48.191406 0 87.253906-39.0625 87.253906-87.253906 0-48.1875-39.0625-71.996094-87.253906-71.996094-48.1875 0-87.24999975 23.808594-87.24999975 71.996094zm0 0" fill="#fc4265"/><path d="m0 424.75c0 48.1875 39.070312 87.246094 87.257812 87.246094 6.351563 0 12.546876-.683594 18.511719-1.972656-39.300781-8.472657-68.753906-43.4375-68.753906-85.273438 0-41.84375 29.453125-65.300781 68.753906-70.75-5.964843-.839844-12.160156-1.25-18.511719-1.25-48.1875 0-87.257812 23.804688-87.257812 72zm0 0" fill="#c61a4f"/><path d="m243.035156 424.746094c0 48.191406 39.066406 87.253906 87.253906 87.253906s87.253907-39.0625 87.253907-87.253906c0-48.1875-39.066407-71.996094-87.253907-71.996094s-87.253906 23.808594-87.253906 71.996094zm0 0" fill="#fc4265"/><g fill="#c61a4f"><path d="m374.542969 400.28125c0-13.5625-17.601563-24.558594-39.3125-24.558594-21.710938 0-39.3125 10.996094-39.3125 24.558594s17.601562 24.558594 39.3125 24.558594c21.710937 0 39.3125-10.996094 39.3125-24.558594zm0 0"/><path d="m122.222656 400.28125c0-13.5625-17.601562-24.558594-39.3125-24.558594-21.710937 0-39.3125 10.996094-39.3125 24.558594s17.601563 24.558594 39.3125 24.558594c21.710938 0 39.3125-10.996094 39.3125-24.558594zm0 0"/><path d="m243.035156 424.75c0 48.1875 39.070313 87.246094 87.257813 87.246094 6.351562 0 12.546875-.683594 18.511719-1.972656-39.304688-8.472657-68.757813-43.4375-68.757813-85.273438 0-41.84375 29.453125-65.300781 68.757813-70.75-5.964844-.839844-12.160157-1.25-18.511719-1.25-48.1875 0-87.257813 23.804688-87.257813 72zm0 0"/></g><path d="m358.792969 94.738281h-297.3125c-8.480469 0-15.78125 6.515625-16.179688 14.988281-.425781 9.046876 6.78125 16.511719 15.734375 16.511719h56.746094c10.988281 0 17.683594 12.019531 11.972656 21.40625-31.425781 51.621094-46.402344 103.875-53.523437 142.484375-10.105469 54.765625-7.125 94.015625-6.992188 95.660156.660157 8.242188 7.550781 14.484376 15.679688 14.484376.417969 0 .835937-.015626 1.257812-.050782 8.667969-.683594 15.136719-8.265625 14.464844-16.933594-.03125-.367187-2.765625-37.523437 6.75-88.429687 7.773437-41.585937 25.40625-100.324219 65.371094-154.960937 6.296875-8.609376 16.359375-13.660157 27.027343-13.660157h27.671876c4.332031 0 8.425781 1.996094 11.089843 5.410157 44.386719 56.90625 63.4375 119.523437 71.601563 163.207031 9.460937 50.625 6.8125 87.648437 6.753906 88.421875-.691406 8.667968 5.773438 16.257812 14.441406 16.953125.425782.03125.851563.050781 1.277344.050781 8.125 0 15.019531-6.25 15.679688-14.496094.132812-1.640625 3.113281-40.890625-6.992188-95.65625-7.121094-38.609375-22.097656-90.867187-53.519531-142.484375-5.714844-9.386719.980469-21.40625 11.96875-21.40625h58.585937c8.480469 0 15.777344-6.515625 16.175782-14.988281.425781-9.042969-6.78125-16.511719-15.730469-16.511719zm0 0" fill="#bc8871"/></svg>