<svg height="512pt" viewBox="-47 0 511 512" width="512pt" xmlns="http://www.w3.org/2000/svg"><path d="m222.054688 289.007812h-13.453126c-4.265624 0-7.722656-3.460937-7.722656-7.726562 0-4.269531 3.457032-7.726562 7.722656-7.726562h13.453126c4.269531 0 7.726562 3.457031 7.726562 7.726562 0 4.265625-3.457031 7.726562-7.726562 7.726562zm0 0" fill="#bc8871"/><path d="m216.328125 425.292969v-191.402344c0-4.265625-3.457031-7.726563-7.726563-7.726563-4.265624 0-7.722656 3.460938-7.722656 7.726563v191.402344zm0 0" fill="#edf1d3"/><path d="m234.339844 25.734375c0 14.214844-11.523438 25.734375-25.738282 25.734375-14.210937 0-25.734374-11.519531-25.734374-25.734375 0-14.210937 11.523437-25.734375 25.734374-25.734375 14.214844 0 25.738282 11.523438 25.738282 25.734375zm0 0" fill="#bc8871"/><path d="m11.316406 237.140625c-6.222656 0-11.136718-5.238281-10.800781-11.453125 2.871094-52.988281 25.53125-100.714844 60.734375-135.902344 37.703125-37.71875 89.804688-61.039062 147.351562-61.039062 57.546876 0 109.648438 23.320312 147.355469 61.039062 35.199219 35.1875 57.859375 82.914063 60.730469 135.902344.335938 6.214844-4.578125 11.453125-10.796875 11.453125zm0 0" fill="#ff9b36"/><path d="m138.359375 40.882812c-13.0625 9.214844-25.136719 20.003907-36.023437 32.121094-37.722657 42.003906-61.042969 100.03125-61.042969 164.132813h-29.980469c-6.21875 0-11.132812-5.238281-10.796875-11.453125 2.871094-52.980469 25.53125-100.707032 60.734375-135.898438 21.558594-21.570312 47.820312-38.425781 77.109375-48.902344zm0 0" fill="#f78721"/><path d="m405.886719 237.136719h-197.285157v-208.394531c57.550782 0 109.652344 23.320312 147.351563 61.042968 35.203125 35.191406 57.863281 82.917969 60.734375 135.898438.335938 6.214844-4.578125 11.453125-10.800781 11.453125zm0 0" fill="#70efef"/><path d="m208.601562 28.742188v208.394531h-103.476562c0-57.539063 11.578125-109.640625 30.3125-147.351563 18.714844-37.722656 44.589844-61.042968 73.164062-61.042968zm0 0" fill="#fc4265"/><path d="m312.078125 237.136719h-103.476563v-208.394531c28.574219 0 54.445313 23.320312 73.171876 61.042968 18.726562 37.710938 30.304687 89.8125 30.304687 147.351563zm0 0" fill="#e6f073"/><path d="m237.851562 512c-25.070312 0-45.464843-20.394531-45.464843-45.46875v-48.796875c0-8.957031 7.257812-16.21875 16.214843-16.21875 8.957032 0 16.21875 7.261719 16.21875 16.21875v48.796875c0 7.1875 5.847657 13.035156 13.03125 13.035156 7.1875 0 13.035157-5.847656 13.035157-13.035156v-23.4375c0-8.957031 7.257812-16.214844 16.214843-16.214844 8.957032 0 16.21875 7.257813 16.21875 16.214844v23.4375c0 25.074219-20.394531 45.46875-45.46875 45.46875zm0 0" fill="#bc8871"/></svg>