<svg height="511pt" viewBox="1 -74 511.99999 511" width="511pt" xmlns="http://www.w3.org/2000/svg"><path d="m396.253906 284.078125c-4.265625 0-7.722656-3.457031-7.726562-7.722656 0-1.109375.082031-27.585938 8.066406-59.261719 10.757812-42.6875 30.941406-74.191406 58.367188-91.105469 3.628906-2.242187 8.390624-1.113281 10.632812 2.519531 2.238281 3.632813 1.109375 8.390626-2.523438 10.632813-58.339843 35.980469-59.089843 136.207031-59.089843 137.214844-.003907 4.265625-3.460938 7.722656-7.726563 7.722656zm0 0" fill="#935641"/><path d="m481.035156 132.566406c0 12.160156-9.859375 22.019532-22.019531 22.019532s-22.019531-9.859376-22.019531-22.019532c0-12.164062 9.859375-22.019531 22.019531-22.019531s22.019531 9.855469 22.019531 22.019531zm0 0" fill="#a46a52"/><path d="m481.03125 132.5625c0 12.167969-9.851562 22.023438-22.019531 22.023438-3.183594 0-6.210938-.675782-8.941407-1.90625 7.695313-3.425782 13.054688-11.144532 13.054688-20.117188 0-8.964844-5.359375-16.691406-13.054688-20.117188 2.730469-1.226562 5.757813-1.902343 8.941407-1.902343 12.167969 0 22.019531 9.863281 22.019531 22.019531zm0 0" fill="#bc8871"/><path d="m498.191406 362.839844h-487.8125c-5.730468 0-10.378906-4.644532-10.378906-10.378906 0-44.710938 36.246094-80.953126 80.957031-80.953126h346.65625c44.710938 0 80.957031 36.242188 80.957031 80.953126 0 5.734374-4.644531 10.378906-10.378906 10.378906zm0 0" fill="#a46a52"/><path d="m508.570312 352.464844c0 2.863281-1.164062 5.460937-3.039062 7.335937s-4.472656 3.039063-7.335938 3.039063h-487.820312c-5.730469 0-10.375-4.648438-10.375-10.375 0-6.347656.730469-12.527344 2.113281-18.453125 1.894531 2.496093 4.890625 4.101562 8.261719 4.101562h487.820312c2.863282 0 5.460938-1.164062 7.335938-3.039062.328125-.332031.640625-.691407.925781-1.0625 1.382813 5.925781 2.113281 12.105469 2.113281 18.453125zm0 0" fill="#935641"/><path d="m372.503906 235.179688c-3.175781 49.292968-27.261718 73.863281-35.964844 81.199218-1.863281 1.574219-4.222656 2.417969-6.664062 2.417969h-155.621094l107.210938-92.085937c1.886718-1.609376 4.289062-2.503907 6.769531-2.503907h73.90625c5.964844 0 10.742187 5.015625 10.363281 10.972657zm0 0" fill="#ffae4d"/><path d="m334.273438 224.207031c-17.246094 42.597657-51.027344 76.800781-93.34375 94.589844h-66.675782l107.210938-92.085937c1.886718-1.609376 4.289062-2.503907 6.769531-2.503907zm0 0" fill="#ff9b36"/><path d="m333.410156 159.652344c0 87.894531-71.253906 159.148437-159.148437 159.148437-87.898438 0-159.152344-71.253906-159.152344-159.148437 0-87.898438 71.253906-159.152344 159.152344-159.152344 87.894531 0 159.148437 71.253906 159.148437 159.152344zm0 0" fill="#ffcb6f"/><path d="m257.675781 145.429688c0 53.921874-43.714843 97.636718-97.640625 97.636718-53.921875 0-97.636718-43.714844-97.636718-97.636718 0-53.925782 43.714843-97.640626 97.636718-97.640626 53.925782 0 97.640625 43.714844 97.640625 97.640626zm0 0" fill="#ffae4d"/><path d="m257.675781 145.429688c0 53.921874-43.714843 97.636718-97.640625 97.636718-53.921875 0-97.636718-43.714844-97.636718-97.636718 0-53.925782 43.714843-97.640626 97.636718-97.640626 53.925782 0 97.640625 43.714844 97.640625 97.640626zm0 0" fill="#ffae4d"/><path d="m196.050781 236.199219c-11.144531 4.433593-23.289062 6.867187-36.011719 6.867187-53.925781 0-97.640624-43.714844-97.640624-97.640625 0-49.90625 37.433593-91.0625 85.761718-96.914062-36.101562 14.324219-61.621094 49.566406-61.621094 90.773437 0 53.929688 43.714844 97.644532 97.640626 97.644532 4.023437-.003907 7.980468-.246094 11.871093-.730469zm0 0" fill="#ff9b36"/><path d="m185.726562 131.367188c0 21.953124-17.796874 39.75-39.75 39.75-21.949218 0-39.746093-17.796876-39.746093-39.75 0-21.949219 17.796875-39.746094 39.746093-39.746094 21.953126 0 39.75 17.796875 39.75 39.746094zm0 0" fill="#ff9b36"/><path d="m159.027344 168.929688c-4.09375 1.421874-8.480469 2.191406-13.046875 2.191406-21.960938 0-39.753907-17.796875-39.753907-39.753906 0-21.949219 17.796876-39.746094 39.753907-39.746094 4.566406 0 8.953125.769531 13.046875 2.191406-15.554688 5.402344-26.707032 20.179688-26.707032 37.554688 0 17.382812 11.152344 32.160156 26.707032 37.5625zm0 0" fill="#f78721"/><path d="m427.21875 311.167969c-4.265625 0-7.722656-3.457031-7.726562-7.722657 0-1.113281.082031-27.589843 8.066406-59.261718 10.761718-42.691406 30.945312-74.195313 58.367187-91.109375 3.632813-2.242188 8.390625-1.109375 10.632813 2.519531 2.238281 3.632812 1.113281 8.390625-2.519532 10.632812-58.453124 36.050782-59.09375 136.203126-59.09375 137.210938.003907 4.265625-3.453124 7.726562-7.722656 7.726562 0 .003907 0 .003907-.003906.003907zm0 0" fill="#935641"/><path d="m512 159.652344c0 12.160156-9.859375 22.019531-22.019531 22.019531-12.160157 0-22.019531-9.859375-22.019531-22.019531s9.859374-22.019532 22.019531-22.019532c12.160156 0 22.019531 9.859376 22.019531 22.019532zm0 0" fill="#a46a52"/><path d="m511.996094 159.648438c0 12.167968-9.851563 22.023437-22.019532 22.023437-3.179687 0-6.210937-.675781-8.941406-1.90625 7.695313-3.425781 13.054688-11.144531 13.054688-20.117187 0-8.964844-5.359375-16.6875-13.054688-20.117188 2.730469-1.226562 5.761719-1.902344 8.941406-1.902344 12.167969 0 22.019532 9.863282 22.019532 22.019532zm0 0" fill="#bc8871"/></svg>