<svg height="511pt" viewBox="-117 0 511 511.99983" width="511pt" xmlns="http://www.w3.org/2000/svg"><path d="m169.761719 437.035156v64.742188c0 5.652344-4.570313 10.222656-10.222657 10.222656h-41.566406c-5.652344 0-10.222656-4.570312-10.222656-10.222656v-64.742188zm0 0" fill="#fff0d0"/><path d="m138.757812 496.550781c-4.269531 0-7.726562-3.457031-7.726562-7.726562v-21.230469c0-4.265625 3.457031-7.726562 7.726562-7.726562 4.265626 0 7.722657 3.460937 7.722657 7.726562v21.230469c0 4.269531-3.457031 7.726562-7.722657 7.726562zm0 0" fill="#ead2c1"/><path d="m169.761719 437.035156v55.46875c-2.320313-1.421875-4.546875-2.972656-6.675781-4.628906-4.949219-3.855469-9.140626-8.167969-12.5625-12.832031-3.703126 1.441406-7.636719 2.261719-11.769532 2.261719-4.128906 0-8.066406-.820313-11.765625-2.261719-3.425781 4.664062-7.617187 8.976562-12.5625 12.832031-2.128906 1.65625-4.355469 3.207031-6.679687 4.628906v-55.46875zm0 0" fill="#ead2c1"/><path d="m15.222656 119.710938c5.71875 97.328124 35.808594 234.429687 62.898438 232.835937 27.089844-1.589844 40.921875-141.269531 35.203125-238.597656s-28.820313-115.449219-55.910157-113.855469c-27.089843 1.589844-47.90625 22.289062-42.191406 119.617188zm0 0" fill="#fff0d0"/><path d="m86.710938 347.082031c-2.699219 3.386719-5.5625 5.292969-8.59375 5.46875-27.082032 1.585938-57.171876-135.511719-62.890626-232.84375-5.71875-97.320312 15.101563-118.027343 42.183594-119.613281 4.113282-.238281 8.128906-.03125 12.003906.84375-23.695312 4.800781-40.691406 29.691406-35.460937 118.769531 5.007813 85.257813 28.722656 201.042969 52.757813 227.375zm0 0" fill="#ead2c1"/><path d="m49 157.269531c4.761719 81.054688 19.40625 195.847657 29.121094 195.277344s10.816406-116.289063 6.058594-197.34375c-4.761719-81.058594-13.585938-96.761719-23.300782-96.191406-9.714844.570312-16.640625 17.199219-11.878906 98.257812zm0 0" fill="#ff8e7d"/><path d="m262.289062 119.710938c-5.71875 97.328124-35.808593 234.429687-62.898437 232.835937-27.089844-1.589844-40.921875-141.269531-35.203125-238.597656s28.820312-115.449219 55.910156-113.855469c27.089844 1.589844 47.910156 22.289062 42.191406 119.617188zm0 0" fill="#ffae4d"/><path d="m184.257812 113.949219c-5.027343 85.609375 5.058594 203.964843 25.992188 232.328125-3.625 4.253906-7.261719 6.480468-10.855469 6.273437-27.09375-1.597656-40.921875-141.269531-35.203125-238.601562 5.714844-97.332031 28.816406-115.445313 55.910156-113.855469 2.53125.144531 5.003907.464844 7.414063.988281-21.394531 5.253907-38.457031 31.109375-43.257813 112.867188zm0 0" fill="#ff9b36"/><path d="m228.511719 157.269531c-4.761719 81.054688-19.40625 195.847657-29.121094 195.277344s-10.820313-116.289063-6.058594-197.34375c4.765625-81.058594 13.589844-96.761719 23.300781-96.191406 9.714844.570312 16.640626 17.199219 11.878907 98.257812zm0 0" fill="#ff8e7d"/><path d="m272.339844 374.503906c0 8.3125-.761719 16.453125-2.214844 24.355469-1.070312 5.789063-2.515625 11.453125-4.304688 16.964844-2.886718 8.878906-6.675781 17.347656-11.261718 25.300781h-231.605469c-4.644531-8.046875-8.46875-16.625-11.363281-25.621094-1.773438-5.488281-3.203125-11.144531-4.253906-16.925781-1.421876-7.808594-2.164063-15.851563-2.164063-24.074219 0-14.9375 2.453125-29.289062 6.972656-42.699218 15.660157-46.472657 56.1875-81.488282 105.761719-89.269532 6.796875-1.070312 13.75-1.617187 20.851562-1.617187 73.78125 0 133.582032 59.8125 133.582032 133.585937zm0 0" fill="#fff0d0"/><path d="m130.238281 282.074219c0 38.398437-31.128906 69.515625-69.515625 69.515625-18.902344 0-36.046875-7.542969-48.578125-19.789063 15.660157-46.464843 56.183594-81.488281 105.753907-89.257812 7.78125 11.210937 12.339843 24.839843 12.339843 39.53125zm0 0" fill="#ffae4d"/><path d="m95.203125 386.148438c-4.234375 0-7.6875-3.410157-7.726563-7.65625-.039062-4.265626 3.390626-7.757813 7.65625-7.796876h.109376.074218c4.234375 0 7.683594 3.414063 7.722656 7.65625.039063 4.265626-3.386718 7.757813-7.65625 7.796876h-.109374c-.023438 0-.046876 0-.070313 0zm0 0" fill="#7f3e2d"/><path d="m182.195312 386.148438c-4.230468 0-7.683593-3.410157-7.722656-7.65625-.039062-4.265626 3.386719-7.757813 7.65625-7.796876h.109375.070313c4.234375 0 7.6875 3.414063 7.726562 7.65625.039063 4.265626-3.390625 7.757813-7.65625 7.796876h-.109375c-.023437 0-.046875 0-.074219 0zm0 0" fill="#7f3e2d"/><path d="m124.398438 443.21875c0-26.699219-27.734376-48.339844-61.949219-48.339844-34.214844 0-61.949219 21.640625-61.949219 48.339844 0 26.695312 27.734375 48.339844 61.949219 48.339844 34.214843 0 61.949219-21.644532 61.949219-48.339844zm0 0" fill="#fff0d0"/><path d="m277.011719 443.21875c0-26.699219-27.734375-48.339844-61.949219-48.339844s-61.949219 21.640625-61.949219 48.339844c0 26.695312 27.734375 48.339844 61.949219 48.339844s61.949219-21.644532 61.949219-48.339844zm0 0" fill="#fff0d0"/><path d="m270.125 398.859375c-1.070312 5.789063-2.511719 11.453125-4.304688 16.964844-9.734374-10.898438-26.3125-18.089844-45.089843-18.089844-4.265625 0-7.726563-3.449219-7.726563-7.726563 0-4.265624 3.460938-7.726562 7.726563-7.726562 19.28125 0 36.765625 6.347656 49.394531 16.578125zm0 0" fill="#ead2c1"/><path d="m64.109375 390.007812c0 4.277344-3.460937 7.726563-7.726563 7.726563-18.59375 0-35.027343 7.046875-44.792968 17.769531-1.773438-5.488281-3.203125-11.144531-4.253906-16.925781 12.597656-10.0625 29.9375-16.296875 49.046874-16.296875 4.265626 0 7.726563 3.460938 7.726563 7.726562zm0 0" fill="#ead2c1"/><path d="m167.722656 429.71875c0 13.152344-12.96875 34.296875-28.964844 34.296875-16 0-28.96875-21.144531-28.96875-34.296875s12.96875-13.335938 28.96875-13.335938c15.996094 0 28.964844.183594 28.964844 13.335938zm0 0" fill="#ff7061"/></svg>