<svg height="512pt" viewBox="-23 0 512 512" width="512pt" xmlns="http://www.w3.org/2000/svg"><path d="m258.449219 95.121094-6.308594-14.105469-.128906.058594c.816406-.402344 20.046875-10.386719 21.792969-53.835938.171874-4.261719 3.761718-7.554687 8.03125-7.410156 4.261718.171875 7.578124 3.769531 7.410156 8.03125-2.164063 53.839844-29.625 66.738281-30.796875 67.261719zm0 0" fill="#ffae4d"/><path d="m207.257812 95.121094c-1.167968-.523438-28.628906-13.421875-30.792968-67.261719-.171875-4.265625 3.144531-7.859375 7.410156-8.03125 4.265625-.15625 7.859375 3.148437 8.03125 7.410156 1.742188 43.449219 20.972656 53.433594 21.789062 53.835938l-.125-.058594zm0 0" fill="#ffae4d"/><path d="m303.082031 141.253906c0 38.785156-31.441406 70.226563-70.226562 70.226563-38.785157 0-70.226563-31.441407-70.226563-70.226563s31.441406-70.226562 70.226563-70.226562c38.785156 0 70.226562 31.441406 70.226562 70.226562zm0 0" fill="#a46a52"/><path d="m246.132812 210.214844c-4.300781.835937-8.742187 1.261718-13.277343 1.261718-38.789063 0-70.226563-31.441406-70.226563-70.226562s31.4375-70.226562 70.226563-70.226562c4.535156 0 8.976562.425781 13.277343 1.265624-26.507812 7.347657-49.824218 36.101563-56.957031 68.960938-7.269531 33.472656 24.511719 62.769531 56.957031 68.964844zm0 0" fill="#935641"/><path d="m251.320312 446.855469c0 25.730469-9.066406 65.144531-20.253906 65.144531s-20.253906-39.414062-20.253906-65.144531c0-25.734375 9.066406-28.039063 20.253906-28.039063s20.253906 2.304688 20.253906 28.039063zm0 0" fill="#edf1d3"/><path d="m357.582031 296.949219c0 25.070312-3.769531 48.902343-10.554687 70.449219-19.335938 61.414062-63.183594 104.277343-114.171875 104.277343-50.992188 0-94.839844-42.863281-114.175781-104.277343-6.78125-21.546876-10.554688-45.378907-10.554688-70.449219 0-.375 0-.753907.007812-1.128907.109376-24.835937 3.917969-48.4375 10.699219-69.789062 5.96875-18.824219 14.246094-35.902344 24.335938-50.515625 22.675781-32.863281 54.484375-53.300781 89.6875-53.300781s67.007812 20.4375 89.6875 53.300781c10.085937 14.613281 18.367187 31.691406 24.332031 50.515625 6.785156 21.351562 10.59375 44.953125 10.699219 69.789062.007812.375.007812.753907.007812 1.128907zm0 0" fill="#ffcb6f"/><path d="m251.140625 469.8125c-5.964844 1.226562-12.074219 1.867188-18.285156 1.867188-50.996094 0-94.839844-42.867188-114.175781-104.277344-6.777344-21.550782-10.550782-45.386719-10.550782-70.453125v-1.132813c.113282-24.835937 3.917969-48.429687 10.707032-69.785156 5.964843-18.820312 14.246093-35.898438 24.332031-50.507812 22.671875-32.875 54.484375-53.300782 89.6875-53.300782 6.203125 0 12.289062.636719 18.253906 1.863282-60.234375 12.371093-106.46875 85.042968-106.46875 172.863281 0 87.824219 46.253906 160.511719 106.5 172.863281zm0 0" fill="#ffae4d"/><path d="m357.582031 296.949219c0 25.070312-3.769531 48.902343-10.554687 70.449219-32.925782 21.566406-72.117188 34.085937-114.171875 34.085937-42.058594 0-81.25-12.519531-114.175781-34.085937-6.78125-21.546876-10.554688-45.378907-10.554688-70.449219 0-.375 0-.753907.007812-1.128907 34.972657 26.0625 78.085938 41.457032 124.722657 41.457032 46.632812 0 89.75-15.394532 124.71875-41.457032.007812.375.007812.753907.007812 1.128907zm0 0" fill="#935641"/><path d="m346.875 226.03125c-32.894531 21.511719-72.03125 33.988281-114.019531 33.988281-29.144531 0-56.917969-6.007812-82.179688-16.886719-11.136719-4.78125-21.777343-10.519531-31.84375-17.101562 5.964844-18.820312 14.25-35.902344 24.335938-50.507812 9.414062 4.492187 19.210937 8.300781 29.316406 11.363281 19.128906 5.796875 39.394531 8.921875 60.371094 8.921875 32.058593 0 62.457031-7.285156 89.6875-20.285156 10.085937 14.605468 18.367187 31.6875 24.332031 50.507812zm0 0" fill="#935641"/><path d="m172.484375 186.886719c-9.570313 16.511719-17.039063 35.527343-21.808594 56.246093-11.136719-4.78125-21.777343-10.519531-31.84375-17.101562 5.964844-18.820312 14.25-35.902344 24.335938-50.507812 9.414062 4.492187 19.210937 8.300781 29.316406 11.363281zm0 0" fill="#7f3e2d"/><path d="m303.121094 21.59375c0 11.929688-9.671875 21.597656-21.597656 21.597656-11.925782 0-21.59375-9.667968-21.59375-21.597656 0-11.925781 9.667968-21.59375 21.59375-21.59375 11.925781 0 21.597656 9.667969 21.597656 21.59375zm0 0" fill="#ffcb6f"/><path d="m205.777344 21.59375c0 11.929688-9.667969 21.597656-21.59375 21.597656-11.925782 0-21.59375-9.667968-21.59375-21.597656 0-11.925781 9.667968-21.59375 21.59375-21.59375 11.925781 0 21.59375 9.667969 21.59375 21.59375zm0 0" fill="#ffcb6f"/><path d="m276.324219 402.960938c-49.304688-62.476563-.929688-231.566407 58.539062-178.667969 58.480469 52.019531 167.261719 184.054687 118.691407 222.386719-48.574219 38.332031-127.921876 18.761718-177.230469-43.71875zm0 0" fill="#70efef"/><path d="m276.328125 402.964844c36.933594 46.800781 90.726563 69.519531 135.808594 61.863281-37.816407-3.617187-77.808594-25.609375-107.160157-62.800781-38.105468-48.285156-17.863281-160.253906 20.75-184.207032-55.074218-29.203124-96.160156 125.898438-49.398437 185.144532zm0 0" fill="#42d2d9"/><path d="m189.382812 402.960938c49.308594-62.476563.929688-231.566407-58.539062-178.667969-58.480469 52.019531-167.257812 184.054687-118.6875 222.386719 48.570312 38.335937 127.917969 18.761718 177.226562-43.71875zm0 0" fill="#70efef"/><path d="m12.15625 446.675781c6.367188 5.027344 13.261719 9.054688 20.542969 12.113281-38.765625-42.234374 65.582031-168.371093 122.417969-218.933593 8.941406-7.953125 17.636718-10.886719 25.773437-9.910157-13.804687-16.984374-31.378906-22.261718-50.046875-5.65625-58.480469 52.027344-167.257812 184.054688-118.6875 222.386719zm0 0" fill="#42d2d9"/></svg>