<svg height="512pt" viewBox="0 -67 512.00099 512" width="512pt" xmlns="http://www.w3.org/2000/svg"><path d="m71.132812 326.609375c-25.792968-44.671875-17.964843-97.476563 17.484376-117.945313 35.445312-20.464843 134.699218-29.484374 160.492187 15.191407 25.792969 44.671875-31.644531 126.121093-67.09375 146.585937-35.445313 20.464844-85.089844.839844-110.882813-43.832031zm0 0" fill="#70efef"/><path d="m146.714844 322.632812c-2.628906 0-5.191406-1.34375-6.636719-3.761718-2.191406-3.664063-.996094-8.410156 2.667969-10.597656 63.78125-38.117188 78.222656-95.765626 78.363281-96.34375.992187-4.152344 5.164063-6.707032 9.3125-5.714844 4.148437.996094 6.707031 5.164062 5.714844 9.3125-.628907 2.621094-16.15625 64.59375-85.464844 106.011718-1.242187.742188-2.605469 1.09375-3.957031 1.09375zm0 0" fill="#fc4265"/><path d="m120.242188 271.652344c-2.8125 0-5.519532-1.535156-6.886719-4.210938-1.941407-3.796875-.4375-8.453125 3.359375-10.394531 17.53125-8.96875 38.445312-34.824219 38.652344-35.085937 2.675781-3.324219 7.539062-3.851563 10.863281-1.179688 3.324219 2.675781 3.855469 7.539062 1.179687 10.863281-.9375 1.167969-23.21875 28.703125-43.65625 39.160157-1.128906.574218-2.328125.847656-3.511718.847656zm0 0" fill="#fc4265"/><path d="m183.941406 369.277344c-.652344.410156-1.289062.792968-1.929687 1.164062-35.4375 20.46875-85.082031.84375-110.878907-43.835937-25.792968-44.667969-17.964843-97.476563 17.484376-117.945313 9.960937-5.746094 24.972656-10.601562 41.96875-13.609375-3.265626 1.382813-6.242188 2.835938-8.871094 4.347657-35.449219 20.460937-43.265625 73.265624-17.480469 117.945312 18.800781 32.566406 50.28125 51.820312 79.707031 51.933594zm0 0" fill="#42d2d9"/><path d="m440.867188 326.609375c25.792968-44.671875 17.964843-97.476563-17.480469-117.945313-35.449219-20.464843-134.703125-29.484374-160.492188 15.191407-25.792969 44.671875 31.644531 126.121093 67.089844 146.585937 35.449219 20.464844 85.089844.839844 110.882813-43.832031zm0 0" fill="#70efef"/><path d="m365.285156 322.632812c-1.347656 0-2.714844-.351562-3.957031-1.09375-69.304687-41.417968-84.835937-103.390624-85.464844-106.011718-.992187-4.148438 1.566407-8.316406 5.714844-9.3125 4.144531-.992188 8.308594 1.558594 9.3125 5.699218.140625.578126 14.878906 58.421876 78.363281 96.359376 3.664063 2.1875 4.859375 6.933593 2.671875 10.597656-1.449219 2.417968-4.011719 3.761718-6.640625 3.761718zm0 0" fill="#fc4265"/><path d="m391.761719 271.652344c-1.1875 0-2.386719-.273438-3.515625-.851563-20.433594-10.453125-42.714844-37.988281-43.65625-39.15625-2.671875-3.324219-2.144532-8.1875 1.179687-10.863281 3.328125-2.671875 8.1875-2.144531 10.863281 1.179688.207032.257812 21.164063 26.136718 38.652344 35.085937 3.800782 1.941406 5.304688 6.597656 3.359375 10.394531-1.367187 2.671875-4.074219 4.210938-6.882812 4.210938zm0 0" fill="#fc4265"/><path d="m492.730469 65.851562c32.703125 56.644532 22.777343 123.597657-22.164063 149.546876-44.945312 25.949218-170.792968 37.382812-203.496094-19.257813-32.703124-56.644531 40.125-159.914063 85.066407-185.863281 44.945312-25.949219 107.890625-1.066406 140.59375 55.574218zm0 0" fill="#fd748c"/><path d="m19.269531 65.851562c-32.703125 56.644532-22.777343 123.597657 22.167969 149.546876 44.945312 25.949218 170.792969 37.382812 203.496094-19.257813 32.703125-56.644531-40.125-159.914063-85.070313-185.863281-44.945312-25.949219-107.890625-1.066406-140.59375 55.574218zm0 0" fill="#fd748c"/><path d="m210.230469 224.84375c-51.046875 21.984375-134.070313 10.601562-168.796875-9.445312-44.945313-25.949219-54.867188-92.902344-22.160156-149.542969 22.089843-38.257813 57.960937-62.027344 92.769531-65.4375-23.15625 10.757812-44.617188 30.105469-59.667969 56.167969-32.707031 56.636718-22.777344 123.601562 22.167969 149.539062 27.917969 16.125 87.050781 26.640625 135.6875 18.71875zm0 0" fill="#fc4265"/><path d="m268.992188 86.636719-12.039063-9.691407s-.101563.101563-.261719.355469c.058594-.097656 6.15625-10.035156 6.703125-47.816406.0625-4.230469 3.507813-7.617187 7.722657-7.617187h.113281c4.269531.0625 7.585937 3.570312 7.617187 7.839843.28125 38.960938-6.503906 49.878907-9.855468 56.929688zm0 0" fill="#935641"/><path d="m243.007812 86.636719c-2.15625-2.683594-9.242187-14.707031-9.851562-56.929688-.0625-4.265625 3.347656-7.777343 7.613281-7.835937 4.296875-.097656 7.773438 3.347656 7.835938 7.613281.546875 37.78125 6.644531 47.71875 6.707031 47.816406-.164062-.253906-.265625-.355469-.265625-.355469zm0 0" fill="#935641"/><path d="m277.816406 98.3125c0 12.050781-9.765625 21.816406-21.816406 21.816406-12.046875 0-21.816406-9.765625-21.816406-21.816406 0-12.046875 9.769531-21.816406 21.816406-21.816406 12.050781 0 21.816406 9.769531 21.816406 21.816406zm0 0" fill="#e0a98f"/><path d="m277.820312 98.429688c-.074218 12.003906-9.808593 21.695312-21.820312 21.695312-12.050781 0-21.816406-9.765625-21.816406-21.816406 0-6.277344 2.644531-11.929688 6.890625-15.90625v.113281c0 12.050781 9.765625 21.816406 21.820312 21.816406 5.765625 0 11.019531-2.242187 14.925781-5.902343zm0 0" fill="#bc8871"/><path d="m279.007812 187.664062c0 57.84375-10.300781 139.726563-23.007812 139.726563s-23.007812-81.882813-23.007812-139.726563 10.300781-80.554687 23.007812-80.554687 23.007812 22.710937 23.007812 80.554687zm0 0" fill="#ffd2bc"/><path d="m246.769531 187.664062c0 46.914063 6.78125 109.644532 16.125 131.667969-2.1875 5.128907-4.492187 8.054688-6.894531 8.054688-12.703125 0-23.003906-81.878907-23.003906-139.722657s10.300781-80.550781 23.003906-80.550781c2.402344 0 4.71875.816407 6.894531 2.515625-9.347656 7.304688-16.125 31.113282-16.125 78.035156zm0 0" fill="#e0a98f"/><path d="m365.878906 168.617188c0-11.679688-12.378906-21.152344-27.652344-21.152344-15.273437 0-27.65625 9.472656-27.65625 21.152344 0 11.683593 12.382813 21.152343 27.65625 21.152343 15.273438 0 27.652344-9.46875 27.652344-21.152343zm0 0" fill="#70efef"/><path d="m201.429688 168.617188c0-11.679688-12.382813-21.152344-27.652344-21.152344-15.273438 0-27.65625 9.472656-27.65625 21.152344 0 11.683593 12.382812 21.152343 27.65625 21.152343 15.269531 0 27.652344-9.46875 27.652344-21.152343zm0 0" fill="#70efef"/><g fill="#935641"><path d="m426.265625 69.328125c0 9.363281-7.589844 16.953125-16.953125 16.953125-9.367188 0-16.957031-7.589844-16.957031-16.953125 0-9.367187 7.589843-16.957031 16.957031-16.957031 9.363281 0 16.953125 7.589844 16.953125 16.957031zm0 0"/><path d="m119.644531 69.328125c0 9.363281-7.589843 16.953125-16.953125 16.953125-9.367187 0-16.957031-7.589844-16.957031-16.953125 0-9.367187 7.589844-16.957031 16.957031-16.957031 9.363282 0 16.953125 7.589844 16.953125 16.957031zm0 0"/></g></svg>