<svg height="512pt" viewBox="-47 0 512 512.00084" width="512pt" xmlns="http://www.w3.org/2000/svg"><path d="m234.375 53.828125c-3.40625 0-6.503906-2.300781-7.375-5.753906-1.023438-4.0625 1.425781-8.183594 5.480469-9.230469 1.019531-.273438 22.199219-6.28125 24.015625-31.773438.300781-4.191406 3.921875-7.351562 8.136718-7.0507808 4.191407.3007808 7.347657 3.9414068 7.050782 8.1367188-2.097656 29.40625-24.101563 42.582031-35.441406 45.441406-.625.15625-1.25.230469-1.867188.230469zm0 0" fill="#bc8871"/><path d="m183.550781 53.828125c-.617187 0-1.242187-.074219-1.867187-.230469-11.339844-2.859375-33.34375-16.035156-35.441406-45.441406-.296876-4.195312 2.859374-7.835938 7.050781-8.1367188 4.1875-.2851562 7.835937 2.8593748 8.136719 7.0507808 1.847656 25.894532 23.753906 31.710938 23.976562 31.765626 4.074219 1.027343 6.546875 5.164062 5.519531 9.238281-.871093 3.453125-3.972656 5.753906-7.375 5.753906zm0 0" fill="#bc8871"/><path d="m288.507812 106.460938c0 43.929687-35.613281 79.542968-79.546874 79.542968-43.929688 0-79.542969-35.613281-79.542969-79.542968 0-43.933594 35.613281-79.546876 79.542969-79.546876 43.933593 0 79.546874 35.613282 79.546874 79.546876zm0 0" fill="#a46a52"/><path d="m224 184.570312c-4.871094.949219-9.898438 1.429688-15.039062 1.429688-43.929688 0-79.542969-35.609375-79.542969-79.542969 0-43.933593 35.613281-79.546875 79.542969-79.546875 5.140624 0 10.167968.484375 15.039062 1.433594-30.023438 8.324219-56.433594 40.890625-64.515625 78.113281-8.226563 37.910157 27.769531 71.097657 64.515625 78.113281zm0 0" fill="#935641"/><path d="m417.925781 303.039062c0 84.730469-50.4375 157.6875-122.925781 190.484376-26.234375 11.867187-55.367188 18.476562-86.039062 18.476562-30.667969 0-59.800782-6.609375-86.035157-18.476562-72.492187-32.796876-122.925781-105.753907-122.925781-190.484376 0-115.40625 93.558594-208.964843 208.960938-208.964843 115.40625 0 208.964843 93.558593 208.964843 208.964843zm0 0" fill="#fc4265"/><path d="m163.203125 493.519531c20.421875 9.242188 42.597656 15.296875 65.898437 17.519531-6.632812.632813-13.339843.960938-20.140624.960938-30.671876 0-59.800782-6.613281-86.035157-18.480469-72.492187-32.792969-122.925781-105.75-122.925781-190.484375 0-115.402344 93.558594-208.960937 208.960938-208.960937 6.800781 0 13.519531.328125 20.140624.957031-105.960937 10.128906-188.824218 99.398438-188.824218 208.003906 0 84.734375 50.433594 157.691406 122.925781 190.484375zm0 0" fill="#c61a4f"/><path d="m295.003906 493.519531c-26.234375 11.875-55.371094 18.480469-86.042968 18.480469-30.667969 0-59.804688-6.605469-86.039063-18.480469l68.777344-68.777343c2.851562-2.851563 6.222656-4.839844 9.804687-5.976563 4.839844-1.554687 10.078125-1.554687 14.917969 0 3.582031 1.136719 6.953125 3.125 9.804687 5.976563zm0 0" fill="#935641"/><path d="m208.960938 498.808594c-21.515626 0-42.460938-3.414063-62.492188-10.171875l54.5625-54.5625c2.121094-2.117188 4.9375-3.285157 7.933594-3.285157s5.8125 1.167969 7.929687 3.285157l54.5625 54.5625c-20.03125 6.757812-40.976562 10.171875-62.496093 10.171875zm0 0" fill="#a46a52"/><g fill="#935641"><path d="m216.574219 420.277344v53.097656c0 4.210938-3.410157 7.613281-7.613281 7.613281-4.199219 0-7.609376-3.402343-7.609376-7.613281v-53.097656c0-.515625.050782-1.023438.152344-1.511719 4.839844-1.554687 10.078125-1.554687 14.917969 0 .101563.488281.152344.996094.152344 1.511719zm0 0"/><path d="m348.386719 274.875c0 14.59375-11.832031 26.425781-26.425781 26.425781-14.597657 0-26.429688-11.832031-26.429688-26.425781s11.832031-26.425781 26.429688-26.425781c14.59375 0 26.425781 11.832031 26.425781 26.425781zm0 0"/><path d="m235.390625 274.875c0 14.59375-11.832031 26.425781-26.429687 26.425781-14.59375 0-26.425782-11.832031-26.425782-26.425781s11.832032-26.425781 26.425782-26.425781c14.597656 0 26.429687 11.832031 26.429687 26.425781zm0 0"/><path d="m122.390625 274.875c0 14.59375-11.828125 26.425781-26.425781 26.425781-14.59375 0-26.425782-11.832031-26.425782-26.425781s11.832032-26.425781 26.425782-26.425781c14.597656 0 26.425781 11.832031 26.425781 26.425781zm0 0"/><path d="m291.886719 191.617188c0 14.597656-11.828125 26.425781-26.425781 26.425781-14.59375 0-26.425782-11.828125-26.425782-26.425781 0-14.59375 11.832032-26.425782 26.425782-26.425782 14.597656 0 26.425781 11.832032 26.425781 26.425782zm0 0"/><path d="m178.890625 191.617188c0 14.597656-11.832031 26.425781-26.425781 26.425781-14.597656 0-26.429688-11.828125-26.429688-26.425781 0-14.59375 11.832032-26.425782 26.429688-26.425782 14.59375 0 26.425781 11.832032 26.425781 26.425782zm0 0"/><path d="m291.886719 358.132812c0 14.59375-11.828125 26.425782-26.425781 26.425782-14.59375 0-26.425782-11.832032-26.425782-26.425782 0-14.597656 11.832032-26.429687 26.425782-26.429687 14.597656 0 26.425781 11.832031 26.425781 26.429687zm0 0"/><path d="m178.890625 358.132812c0 14.59375-11.832031 26.425782-26.425781 26.425782-14.597656 0-26.429688-11.832032-26.429688-26.425782 0-14.597656 11.832032-26.429687 26.429688-26.429687 14.59375 0 26.425781 11.832031 26.425781 26.429687zm0 0"/></g></svg>