<svg height="511pt" viewBox="0 1 511 511.9995" width="511pt" xmlns="http://www.w3.org/2000/svg"><path d="m346.367188 256-45.382813 136.429688-38.296875 115.105468c-1.980469 5.953125-10.398438 5.953125-12.378906 0l-38.292969-115.097656-45.382813-136.4375 45.382813-136.4375 38.296875-115.097656c1.976562-5.953125 10.398438-5.953125 12.375 0l38.296875 115.105468zm0 0" fill="#ffae4d"/><path d="m346.367188 256-45.382813 136.429688c-14.011719 4.585937-28.960937 7.066406-44.484375 7.066406s-30.472656-2.480469-44.484375-7.058594l-45.382813-136.4375 45.382813-136.4375c14.011719-4.578125 28.960937-7.054688 44.484375-7.054688s30.472656 2.476563 44.484375 7.0625zm0 0" fill="#ff9b36"/><path d="m508.035156 249.8125c5.949219 1.980469 5.953125 10.398438 0 12.375l-115.105468 38.296875-136.429688 45.382813-136.4375-45.382813-115.097656-38.296875c-5.953125-1.976562-5.953125-10.394531 0-12.375l115.105468-38.296875 136.429688-45.386719 136.414062 45.386719zm0 0" fill="#ff9b36"/><path d="m399.984375 256c0 15.523438-2.480469 30.472656-7.054687 44.484375l-136.429688 45.382813-136.4375-45.382813c-4.578125-14.011719-7.054688-28.960937-7.054688-44.484375s2.476563-30.472656 7.0625-44.484375l136.429688-45.382813 136.417969 45.382813c4.585937 14.011719 7.066406 28.960937 7.066406 44.484375zm0 0" fill="#f78721"/><path d="m429.988281 73.761719c5.609375-2.808594 11.5625 3.140625 8.753907 8.75l-54.335938 108.503906-64.367188 128.523437-128.546874 64.378907-108.480469 54.324219c-5.609375 2.808593-11.5625-3.144532-8.753907-8.753907l54.324219-108.480469 64.378907-128.546874 128.535156-64.367188zm0 0" fill="#f78721"/><path d="m384.40625 191.015625-64.367188 128.523437-128.546874 64.378907c-27.015626-13.796875-49.113282-35.894531-62.910157-62.910157l64.378907-128.546874 128.535156-64.367188c27.023437 13.785156 49.125 35.898438 62.910156 62.921875zm0 0" fill="#f4740b"/><path d="m438.738281 429.488281c2.8125 5.605469-3.140625 11.5625-8.75 8.753907l-108.492187-54.335938-128.535156-64.367188-64.367188-128.535156-54.335938-108.492187c-2.808593-5.609375 3.144532-11.558594 8.753907-8.753907l108.480469 54.324219 128.546874 64.378907 64.367188 128.535156zm0 0" fill="#ffcb6f"/><path d="m384.40625 320.996094c-13.785156 27.023437-35.886719 49.125-62.910156 62.910156l-128.535156-64.367188-64.367188-128.535156c13.785156-27.023437 35.882812-49.125 62.898438-62.917968l128.546874 64.375zm0 0" fill="#ffae4d"/><path d="m385.863281 256c0 71.441406-57.917969 129.355469-129.359375 129.355469-71.445312 0-129.359375-57.914063-129.359375-129.355469 0-71.445312 57.914063-129.359375 129.359375-129.359375 71.441406 0 129.359375 57.914063 129.359375 129.359375zm0 0" fill="#ffcb6f"/><path d="m127.136719 256.003906c0-71.453125 57.921875-129.359375 129.359375-129.359375 10.085937 0 19.90625 1.160157 29.328125 3.339844-57.308594 13.289063-100.027344 64.652344-100.027344 126.019531 0 61.347656 42.71875 112.726563 100.027344 126.015625-9.421875 2.183594-19.242188 3.339844-29.328125 3.339844-71.4375 0-129.359375-57.917969-129.359375-129.355469zm0 0" fill="#ffae4d"/></svg>