<svg height="512pt" viewBox="0 -34 512 511" width="512pt" xmlns="http://www.w3.org/2000/svg"><path d="m12.378906 359.6875v-322.160156h371.746094v406.425781h-287.480469c-46.539062 0-84.265625-37.726563-84.265625-84.265625zm0 0" fill="#edf1d3"/><path d="m181.929688 177.511719-30.253907 47.855469c-4.628906 7.328124.632813 16.878906 9.296875 16.878906h25.382813v148.113281h60.191406v-210.746094c0-5.027343-4.074219-9.101562-9.101563-9.101562h-42.808593c-5.152344 0-9.949219 2.644531-12.707031 7zm0 0" fill="#ff7061"/><path d="m132.285156 443.953125h-35.644531c-46.53125 0-84.257813-37.726563-84.257813-84.269531v-322.160156h35.632813v322.160156c0 46.542968 37.738281 84.269531 84.269531 84.269531zm0 0" fill="#d0daad"/><path d="m394.464844 132.8125h-383.78125c-5.898438 0-10.683594-4.785156-10.683594-10.683594v-96.996094c0-5.902343 4.785156-10.683593 10.683594-10.683593h383.78125c5.902344 0 10.683594 4.78125 10.683594 10.683593v96.996094c0 5.898438-4.78125 10.683594-10.683594 10.683594zm0 0" fill="#70efef"/><path d="m47.769531 132.816406h-37.085937c-5.902344 0-10.683594-4.789062-10.683594-10.691406v-96.992188c0-5.902343 4.78125-10.683593 10.683594-10.683593h37.085937c-5.902343 0-10.683593 4.78125-10.683593 10.683593v96.992188c0 5.902344 4.78125 10.691406 10.683593 10.691406zm0 0" fill="#42d2d9"/><path d="m99.859375 443.953125c36.464844 0 66.023437-29.558594 66.023437-66.023437v-15.921876c0-5.902343 4.785157-10.6875 10.6875-10.6875h324.746094c5.898438 0 10.683594 4.785157 10.683594 10.6875v15.921876c0 36.464843-29.558594 66.023437-66.023438 66.023437zm0 0" fill="#d0daad"/><path d="m512 362v15.929688c0 36.464843-29.554688 66.023437-66.023438 66.023437h-38.117187c36.46875 0 66.023437-29.558594 66.023437-66.023437v-15.929688c0-5.890625-4.78125-10.683594-10.683593-10.683594h38.117187c5.902344 0 10.683594 4.792969 10.683594 10.683594zm0 0" fill="#edf1d3"/><g fill="#ff7061"><path d="m102.417969 86.007812h-16.914063c-7.273437 0-13.167968-5.898437-13.167968-13.171874v-59.167969c0-7.273438 5.894531-13.167969 13.167968-13.167969h16.914063c7.273437 0 13.167969 5.894531 13.167969 13.167969v59.167969c0 7.273437-5.894532 13.171874-13.167969 13.171874zm0 0"/><path d="m331.324219 86.007812h-16.914063c-7.273437 0-13.167968-5.898437-13.167968-13.171874v-59.167969c0-7.273438 5.894531-13.167969 13.167968-13.167969h16.914063c7.273437 0 13.167969 5.894531 13.167969 13.167969v59.167969c0 7.273437-5.894532 13.171874-13.167969 13.171874zm0 0"/></g></svg>