<svg height="511pt" viewBox="1 -79 511.999 511" width="511pt" xmlns="http://www.w3.org/2000/svg"><path d="m405.246094 60.613281h-44.050782c-4.292968 0-7.769531-3.480469-7.769531-7.773437 0-4.296875 3.476563-7.773438 7.769531-7.773438h44.050782c8 0 14.511718-6.511718 14.511718-14.511718s-6.511718-14.507813-14.511718-14.507813h-20.730469c-4.292969 0-7.773437-3.480469-7.773437-7.773437 0-4.296876 3.480468-7.773438 7.773437-7.773438h20.730469c16.574218 0 30.058594 13.484375 30.058594 30.054688 0 16.574218-13.484376 30.058593-30.058594 30.058593zm0 0" fill="#edf1d3"/><path d="m389.871094 99.652344c-4.292969 0-7.773438-3.480469-7.773438-7.773438v-51.132812c0-4.292969 3.480469-7.773438 7.773438-7.773438 4.292968 0 7.773437 3.480469 7.773437 7.773438v51.132812c0 4.292969-3.480469 7.773438-7.773437 7.773438zm0 0" fill="#d0daad"/><path d="m489.164062 61.777344c0 11.921875-9.667968 21.589844-21.589843 21.589844-11.925781 0-21.59375-9.667969-21.59375-21.589844 0-11.925782 9.667969-21.59375 21.59375-21.59375 11.921875 0 21.589843 9.667968 21.589843 21.59375zm0 0" fill="#fc4265"/><path d="m503.28125 61.84375c5.246094-9.910156 4.167969-20.769531-2.410156-24.25-6.574219-3.480469-16.160156 1.730469-21.40625 11.640625-5.246094 9.914063-4.164063 20.769531 2.410156 24.25 6.578125 3.480469 16.164062-1.730469 21.40625-11.640625zm0 0" fill="#77bc4d"/><path d="m495.320312 141.898438h-49.277343c-9.210938 0-16.679688-7.46875-16.679688-16.679688v-44.601562c0-5.707032 4.625-10.328126 10.328125-10.328126h61.976563c5.703125 0 10.328125 4.625 10.328125 10.328126v44.601562c.003906 9.210938-7.464844 16.679688-16.675782 16.679688zm0 0" fill="#a46a52"/><path d="m512 80.613281v44.597657c0 9.214843-7.464844 16.6875-16.675781 16.6875h-23.394531c9.214843 0 16.675781-7.472657 16.675781-16.6875v-44.597657c0-5.699219-4.621094-10.320312-10.320313-10.320312h23.378906c5.714844 0 10.335938 4.621093 10.335938 10.320312zm0 0" fill="#bc8871"/><path d="m438.113281 127.703125h-32.230469c-4.296874 0-7.773437-3.480469-7.773437-7.773437 0-4.296876 3.480469-7.773438 7.773437-7.773438h32.230469c4.292969 0 7.773438 3.480469 7.773438 7.773438 0 4.292968-3.480469 7.773437-7.773438 7.773437zm0 0" fill="#edf1d3"/><path d="m169.800781 212.957031c-16.242187-25.960937-45.097656-43.261719-77.921875-43.261719-50.660156 0-91.878906 41.21875-91.878906 91.882813 0 50.671875 41.21875 91.890625 91.878906 91.890625 32.410156 0 60.953125-16.863281 77.308594-42.289062 9.222656-14.3125 14.574219-31.351563 14.574219-49.601563-.003907-17.839844-5.113281-34.515625-13.960938-48.621094zm-77.921875 113.324219c-35.675781 0-64.703125-29.019531-64.703125-64.703125 0-35.675781 29.027344-64.707031 64.703125-64.707031 17.308594 0 33.050782 6.832031 44.679688 17.941406 12.335937 11.785156 20.027344 28.398438 20.027344 46.765625 0 18.59375-7.878907 35.371094-20.472657 47.1875-11.585937 10.863281-27.144531 17.515625-44.234375 17.515625zm0 0" fill="#ffcb6f"/><path d="m183.757812 261.578125c0 18.25-5.347656 35.289063-14.570312 49.601563l-33.074219-2.414063c12.59375-11.816406 20.472657-28.59375 20.472657-47.1875 0-18.367187-7.691407-34.980469-20.027344-46.765625l33.242187-1.855469c8.847657 14.105469 13.957031 30.78125 13.957031 48.621094zm0 0" fill="#ffae4d"/><path d="m96.613281 250.566406c-.582031 0-1.171875-.066406-1.757812-.199218-4.183594-.96875-6.789063-5.144532-5.824219-9.324219 14.242188-61.597657 71.554688-109.179688 93.128906-127.09375 3.304688-2.742188 8.203125-2.289063 10.949219 1.011719 2.742187 3.304687 2.285156 8.203124-1.015625 10.949218-20.472656 16.996094-74.851562 62.144532-87.914062 118.632813-.832032 3.59375-4.03125 6.023437-7.566407 6.023437zm0 0" fill="#d0daad"/><path d="m426.359375 171.332031c-5.597656-1.078125-11.371094-1.636719-17.277344-1.636719-12.46875 0-24.367187 2.5-35.21875 7.027344-33.238281 13.835938-56.664062 46.660156-56.664062 84.851563 0 50.671875 41.222656 91.890625 91.882812 91.890625 50.671875 0 91.890625-41.21875 91.890625-91.890625 0-44.75-32.171875-82.144531-74.613281-90.242188zm-17.277344 154.949219c-35.675781 0-64.707031-29.019531-64.707031-64.703125 0-24.058594 13.195312-45.085937 32.730469-56.238281 9.433593-5.390625 20.359375-8.46875 31.976562-8.46875 7.183594 0 14.09375 1.171875 20.550781 3.347656 25.640626 8.601562 44.164063 32.867188 44.164063 61.359375 0 35.683594-29.03125 64.703125-64.714844 64.703125zm0 0" fill="#ffcb6f"/><path d="m429.632812 200.21875c-6.457031-2.175781-13.371093-3.347656-20.554687-3.347656-11.617187 0-22.542969 3.078125-31.972656 8.46875l-3.242188-28.617188c10.851563-4.527344 22.75-7.027344 35.214844-7.027344 5.910156 0 11.683594.5625 17.277344 1.640626zm0 0" fill="#ffae4d"/><path d="m210.058594 259.382812c-6.710938 0-12.378906-5.191406-12.867188-11.992187l-13.128906-183.230469c-.511719-7.113281 4.839844-13.292968 11.953125-13.800781 7.105469-.511719 13.292969 4.84375 13.800781 11.957031l13.132813 183.230469c.511719 7.113281-4.84375 13.292969-11.953125 13.800781-.3125.023438-.628906.035156-.9375.035156zm0 0" fill="#fc4265"/><path d="m421.914062 251.75-17.183593-151.523438c-.738281-6.527343-6.261719-11.457031-12.828125-11.457031-7.707032 0-13.699219 6.707031-12.832032 14.367188.601563 5.292969-2.546874 10.304687-7.589843 12.03125-11.316407 3.875-24.925781 9.414062-39.726563 17.265625-36.226562 19.214844-86.828125 56.5625-122.152344 125.351562-3.253906 6.34375-.753906 14.128906 5.589844 17.386719 1.886719.964844 3.902344 1.425781 5.886719 1.425781 4.6875 0 9.207031-2.558594 11.496094-7.015625 25.714843-50.082031 62.832031-88.378906 110.316406-113.824219 9.425781-5.054687 18.34375-9.066406 26.375-12.234374 6.945313-2.746094 14.597656 1.890624 15.441406 9.3125l11.546875 101.824218c.746094 6.589844 6.332032 11.457032 12.8125 11.457032.484375 0 .976563-.027344 1.46875-.085938 7.089844-.804688 12.183594-7.199219 11.378906-14.28125zm0 0" fill="#fc4265"/><path d="m217.984375 301.238281-124.9375-9.121093c-16.082031-1.175782-28.53125-14.5625-28.53125-30.6875 0-16.328126 12.753906-29.8125 29.054687-30.722657l125.074219-6.988281c22.269531-1.242188 41.007813 16.480469 41.007813 38.78125 0 22.566406-19.164063 40.378906-41.667969 38.738281zm0 0" fill="#edf1d3"/><path d="m110.773438 293.414062-17.722657-1.292968c-16.085937-1.183594-28.535156-14.574219-28.535156-30.691406 0-8.167969 3.183594-15.617188 8.417969-21.140626 5.222656-5.535156 12.488281-9.121093 20.636718-9.578124l15.277344-.851563c-5.265625 1.730469-9.929687 4.757813-13.640625 8.6875-5.628906 5.957031-9.070312 13.992187-9.070312 22.800781 0 15.269532 10.355469 28.273438 24.636719 32.066406zm0 0" fill="#d0daad"/><path d="m157.339844 54.738281c0 6.214844 2.777344 12.113281 7.621094 16.007813 6.011718 4.839844 15.714843 10.074218 29.5625 10.074218 22.613281 0 43.363281-18.171874 66.878906-22.617187 5.78125-1.09375 10.007812-6.066406 10.007812-11.945313 0-6.699218-5.433594-12.132812-12.136718-12.132812h-81.320313c-11.386719 0-20.613281 9.230469-20.613281 20.613281zm0 0" fill="#a46a52"/><path d="m169.800781 270.273438h-67.371093c-4.292969 0-7.773438-3.480469-7.773438-7.773438s3.480469-7.773438 7.773438-7.773438h67.371093c4.292969 0 7.769531 3.480469 7.769531 7.773438s-3.476562 7.773438-7.769531 7.773438zm0 0" fill="#fc4265"/><path d="m81.273438 241.816406c-2.949219 0-5.769532-1.691406-7.078126-4.550781l-52.074218-114.109375c-1.78125-3.90625-.0625-8.519531 3.84375-10.300781s8.515625-.0625 10.300781 3.84375l52.074219 114.109375c1.78125 3.90625.0625 8.519531-3.84375 10.300781-1.046875.476563-2.144532.707031-3.222656.707031zm0 0" fill="#d0daad"/><path d="m250.808594 331.328125h-24.378906c-3.671876 0-6.847657-2.574219-7.605469-6.167969l-12.054688-57.160156c-.886719-4.199219 1.800781-8.324219 6-9.210938 4.199219-.878906 8.324219 1.804688 9.210938 6.003907l10.753906 50.988281h18.074219c4.292968 0 7.773437 3.480469 7.773437 7.773438 0 4.292968-3.480469 7.773437-7.773437 7.773437zm0 0" fill="#d0daad"/><path d="m193.34375 127.703125h-175.207031c-4.292969 0-7.773438-3.480469-7.773438-7.773437 0-4.296876 3.480469-7.773438 7.773438-7.773438h175.210937c4.292969 0 7.769532 3.480469 7.769532 7.773438 0 4.292968-3.480469 7.773437-7.773438 7.773437zm0 0" fill="#edf1d3"/></svg>