<svg height="512pt" viewBox="0 -35 512.00169 512" width="512pt" xmlns="http://www.w3.org/2000/svg"><path d="m249.136719 368.710938c0 66.035156-21.789063 74.261718-48.671875 74.261718-26.882813 0-48.675782-8.226562-48.675782-74.261718 0-66.03125 21.792969-164.871094 48.675782-164.871094 26.882812 0 48.671875 98.839844 48.671875 164.871094zm0 0" fill="#bc8871"/><path d="m215.367188 441.695312c-4.6875.96875-9.707032 1.273438-14.902344 1.273438-26.878906 0-48.675782-8.21875-48.675782-74.253906s21.796876-164.875 48.675782-164.875c5.199218 0 10.203125 3.691406 14.902344 10.136718-19.59375 26.859376-33.765626 101.46875-33.765626 154.738282 0 53.261718 14.171876 68.914062 33.765626 72.980468zm0 0" fill="#a46a52"/><path d="m384.394531 261.820312c-12.476562 2.722657-31.261719 6.484376-54.34375 10.03125-29.535156 4.546876-66.101562 8.746094-105.546875 10.019532-7.910156.257812-15.9375.394531-24.039062.394531-80.132813 0-152.273438-13.53125-183.929688-20.445313-10.011718-2.1875-17.042968-11.277343-16.503906-21.511718 7.015625-134.226563 94.074219-240.308594 200.433594-240.308594 1.917968 0 3.835937.0390625 5.734375.105469 55.851562 2.003906 106.003906 33.277343 141.476562 82.289062 30.410157 42.015625 50.039063 97.066407 53.222657 157.914063.539062 10.234375-6.492188 19.324218-16.503907 21.511718zm0 0" fill="#fd748c"/><path d="m301.867188 35.214844c-14.242188-4.699219-29.097657-7.441406-44.382813-7.988282-1.898437-.066406-3.816406-.105468-5.734375-.105468-106.359375 0-193.414062 106.082031-200.433594 240.308594-.019531.402343-.03125.804687-.03125 1.199218-14.210937-2.492187-26.027344-4.898437-34.753906-6.808594-10.011719-2.1875-17.039062-11.277343-16.5039062-21.511718 7.0195312-134.226563 94.0781252-240.308594 200.4375002-240.308594 1.917968 0 3.835937.0390625 5.734375.105469 34.828125 1.246093 67.445312 13.886719 95.667969 35.109375zm0 0" fill="#fc4265"/><path d="m347.675781 82.394531c-9.628906 36.261719-42.683593 62.976563-81.972656 62.976563-46.847656 0-84.820313-37.972656-84.820313-84.832032 0-6.105468.640626-12.0625 1.878907-17.804687 3.519531-16.496094 11.84375-31.214844 23.4375-42.628906 34.820312 1.25 67.425781 13.878906 95.636719 35.089843.011718 0 .019531.007813.03125.019532 17.03125 12.800781 32.460937 28.730468 45.808593 47.179687zm0 0" fill="#c8ffff"/><path d="m301.867188 35.214844c-14.242188-4.699219-29.097657-7.441406-44.382813-7.988282-1.898437-.066406-3.816406-.105468-5.734375-.105468-24.242188 0-47.480469 5.515625-68.988281 15.613281 3.519531-16.496094 11.84375-31.214844 23.4375-42.628906 34.820312 1.25 67.425781 13.878906 95.636719 35.089843.011718 0 .019531.007813.03125.019532zm0 0" fill="#70efef"/><path d="m331.296875 260.09375c0 4.035156-.433594 7.96875-1.246094 11.757812-29.535156 4.542969-66.101562 8.746094-105.546875 10.019532-2.855468-6.695313-4.429687-14.050782-4.429687-21.777344 0-30.71875 24.898437-55.613281 55.613281-55.613281 30.707031.003906 55.609375 24.898437 55.609375 55.613281zm0 0" fill="#c8ffff"/><path d="m166.832031 170.332031c0 30.707031-24.902343 55.613281-55.621093 55.613281-20.828126 0-38.980469-11.460937-48.511719-28.414062-4.515625-8.035156-7.097657-17.320312-7.097657-27.195312 0-26.917969 19.125-49.367188 44.515626-54.5 3.585937-.726563 7.296874-1.109376 11.09375-1.109376 30.71875-.003906 55.621093 24.890626 55.621093 55.605469zm0 0" fill="#c8ffff"/><path d="m100.117188 115.835938c-16.128907 23.789062-28.914063 51.429687-37.417969 81.695312-4.515625-8.039062-7.097657-17.320312-7.097657-27.199219 0-26.917969 19.121094-49.367187 44.515626-54.496093zm0 0" fill="#70efef"/><path d="m427.898438 401.824219c0 36.589843-12.074219 41.148437-26.96875 41.148437-14.898438 0-26.972657-4.558594-26.972657-41.148437 0-36.585938 12.074219-91.351563 26.972657-91.351563 14.894531 0 26.96875 54.765625 26.96875 91.351563zm0 0" fill="#bc8871"/><path d="m409.183594 442.261719c-2.597656.539062-5.375.707031-8.253906.707031-14.894532 0-26.972657-4.554688-26.972657-41.140625 0-36.589844 12.078125-91.355469 26.972657-91.355469 2.878906 0 5.652343 2.046875 8.253906 5.617188-10.855469 14.882812-18.707032 56.222656-18.707032 85.738281 0 29.511719 7.851563 38.183594 18.707032 40.433594zm0 0" fill="#a46a52"/><path d="m502.839844 342.597656c-6.910156 1.511719-17.320313 3.59375-30.109375 5.558594-16.367188 2.519531-36.625 4.847656-58.480469 5.554688-4.382812.140624-8.832031.21875-13.320312.21875-44.398438 0-84.375-7.5-101.914063-11.328126-5.546875-1.210937-9.441406-6.25-9.144531-11.917968 3.890625-74.375 52.125-133.152344 111.058594-133.152344 1.0625 0 2.125.023438 3.175781.058594 30.945312 1.109375 58.734375 18.4375 78.390625 45.597656 16.847656 23.277344 27.726562 53.78125 29.488281 87.496094.296875 5.667968-3.597656 10.703125-9.144531 11.914062zm0 0" fill="#fd748c"/><path d="m444.238281 208.753906c-.96875-.023437-1.925781-.042968-2.898437-.042968-58.925782 0-107.167969 58.773437-111.054688 133.152343-.132812 2.453125.527344 4.78125 1.753906 6.738281-14.125-2.101562-25.601562-4.375-33.027343-6.003906-5.542969-1.207031-9.4375-6.242187-9.140625-11.917968 3.882812-74.371094 52.128906-133.144532 111.054687-133.144532 1.0625 0 2.121094.023438 3.175781.050782 14.207032.515624 27.742188 4.441406 40.136719 11.167968zm0 0" fill="#fc4265"/><path d="m455.515625 275.054688c0 17.0625-13.832031 30.894531-30.894531 30.894531-17.058594 0-30.890625-13.832031-30.890625-30.894531 0-17.058594 13.832031-30.890626 30.890625-30.890626 17.0625 0 30.894531 13.832032 30.894531 30.890626zm0 0" fill="#c8ffff"/></svg>