<svg height="511pt" viewBox="0 -12 511.99983 511" width="511pt" xmlns="http://www.w3.org/2000/svg"><path d="m383.082031 261.050781c0 105.785157-85.753906 191.542969-191.539062 191.542969-105.785157 0-191.53906275-85.757812-191.53906275-191.542969 0-105.785156 85.75390575-191.539062 191.53906275-191.539062 105.785156 0 191.539062 85.753906 191.539062 191.539062zm0 0" fill="#ffae4d"/><path d="m279.121094 121.167969c0-16.984375-38.601563-30.753907-86.21875-30.753907-47.617188 0-86.21875 13.769532-86.21875 30.753907s38.601562 30.757812 86.21875 30.757812c47.617187 0 86.21875-13.773437 86.21875-30.757812zm0 0" fill="#ff9b36"/><path d="m216.199219 451.027344c-8.074219 1.027344-16.300781 1.566406-24.660157 1.566406-105.777343 0-191.539062-85.761719-191.539062-191.539062 0-105.789063 85.761719-191.539063 191.539062-191.539063 8.359376 0 16.585938.539063 24.660157 1.566406-94.140625 12.097657-166.890625 92.53125-166.890625 189.972657 0 97.429687 72.75 177.875 166.890625 189.972656zm0 0" fill="#ff9b36"/><path d="m125.488281 93.78125c11.023438 19.484375 33.25 28.660156 54.023438 24.023438 4.664062-1.042969 9.261719-2.785157 13.644531-5.261719 23.867188-13.507813 32.265625-43.804688 18.761719-67.671875-5.132813-9.0625-14.5-19.109375-25.457031-27.347656-17.898438-13.464844-40.035157-22.09375-54.835938-13.71875-23.863281 13.507812-19.640625 66.113281-6.136719 89.976562zm0 0" fill="#479838"/><path d="m179.515625 117.804688c4.660156-1.042969 9.257813-2.785157 13.644531-5.261719 23.863282-13.507813 32.265625-43.804688 18.757813-67.671875-5.128907-9.0625-14.496094-19.109375-25.453125-27.347656-10.515625 10.777343-18.785156 23.046874-22.824219 33.363281-9.433594 24.054687-2.296875 50.582031 15.875 66.917969zm0 0" fill="#317f21"/><path d="m189.609375 57.492188c11.328125 20.015624 7.253906 44.542968-8.425781 59.902343 4.089844-1.058593 8.125-2.671875 11.976562-4.851562 23.863282-13.507813 32.265625-43.808594 18.757813-67.671875-5.128907-9.0625-14.496094-19.113282-25.453125-27.347656-5.789063 5.933593-10.902344 12.316406-15 18.585937 7.753906 6.863281 14.203125 14.417969 18.144531 21.382813zm0 0" fill="#317f21"/><path d="m173.554688 54.78125c-10.011719 25.53125 2.570312 54.34375 28.101562 64.351562 25.53125 10.011719 54.34375-2.570312 64.355469-28.101562 10.007812-25.527344 6.785156-78.199219-18.746094-88.210938-25.53125-10.011718-63.699219 26.429688-73.710937 51.960938zm0 0" fill="#77bc4d"/><path d="m501.816406 288.730469c5.859375 0 10.480469 4.933593 10.167969 10.785156-5.601563 105.234375-92.707031 188.839844-199.335937 188.839844-106.632813 0-193.738282-83.605469-199.339844-188.839844-.3125-5.851563 4.308594-10.785156 10.167968-10.785156zm0 0" fill="#fff4c3"/><path d="m473.589844 288.730469c0 44.441406-18.011719 84.679687-47.140625 113.800781-29.121094 29.128906-69.359375 47.140625-113.800781 47.140625-44.445313 0-84.683594-18.011719-113.804688-47.140625-29.128906-29.121094-47.140625-69.359375-47.140625-113.800781zm0 0" fill="#f74f43"/><path d="m426.449219 402.53125c-29.121094 29.128906-69.359375 47.140625-113.800781 47.140625v-160.941406zm0 0" fill="#ff8e7d"/><path d="m312.648438 288.730469v160.941406c-44.445313 0-84.683594-18.011719-113.804688-47.140625zm0 0" fill="#ff7061"/><g fill="#a46a52"><path d="m256.601562 404.839844c-.023437 0-.042968 0-.0625 0-4.269531-.035156-7.699218-3.523438-7.667968-7.789063l.042968-5.078125c.03125-4.246094 3.484376-7.664062 7.722657-7.664062h.0625c4.269531.035156 7.699219 3.523437 7.664062 7.789062l-.039062 5.078125c-.035157 4.246094-3.484375 7.664063-7.722657 7.664063zm0 0"/><path d="m277.238281 413.925781c-2.09375 0-4.183593-.847656-5.707031-2.519531-2.878906-3.152344-2.652344-8.039062.5-10.914062l3.769531-3.4375c3.148438-2.875 8.039063-2.648438 10.914063.503906s2.648437 8.039062-.503906 10.914062l-3.765626 3.4375c-1.480468 1.351563-3.34375 2.015625-5.207031 2.015625zm0 0"/><path d="m368.695312 404.839844c-4.238281 0-7.691406-3.417969-7.726562-7.664063l-.039062-5.078125c-.03125-4.265625 3.398437-7.753906 7.664062-7.789062h.0625c4.238281 0 7.691406 3.417968 7.726562 7.664062l.039063 5.078125c.03125 4.265625-3.398437 7.753907-7.664063 7.789063-.023437 0-.042968 0-.0625 0zm0 0"/><path d="m348.054688 413.925781c-1.859376 0-3.722657-.664062-5.203126-2.015625l-3.769531-3.4375c-3.152343-2.875-3.378906-7.761718-.503906-10.914062 2.878906-3.152344 7.765625-3.378906 10.914063-.503906l3.769531 3.4375c3.152343 2.875 3.378906 7.761718.503906 10.914062-1.527344 1.671875-3.613281 2.519531-5.710937 2.519531zm0 0"/><path d="m435.28125 334.25c-2.453125 0-4.867188-1.164062-6.367188-3.339844l-2.882812-4.179687c-2.421875-3.511719-1.539062-8.324219 1.972656-10.746094 3.511719-2.421875 8.324219-1.539063 10.746094 1.972656l2.882812 4.179688c2.425782 3.511719 1.542969 8.324219-1.972656 10.746093-1.335937.925782-2.863281 1.367188-4.378906 1.367188zm0 0"/><path d="m423.304688 353.355469c-.367188 0-.738282-.023438-1.113282-.078125l-5.046875-.730469c-4.222656-.609375-7.152343-4.527344-6.542969-8.75.609376-4.222656 4.535157-7.148437 8.75-6.542969l5.046876.730469c4.222656.609375 7.152343 4.527344 6.542968 8.75-.554687 3.847656-3.859375 6.621094-7.636718 6.621094zm0 0"/><path d="m190.011719 334.25c-1.511719 0-3.039063-.441406-4.378907-1.367188-3.511718-2.421874-4.394531-7.234374-1.972656-10.746093l2.882813-4.179688c2.425781-3.511719 7.238281-4.394531 10.746093-1.972656 3.515626 2.425781 4.394532 7.234375 1.972657 10.746094l-2.882813 4.179687c-1.5 2.171875-3.910156 3.339844-6.367187 3.339844zm0 0"/><path d="m201.988281 353.355469c-3.777343 0-7.078125-2.773438-7.636719-6.621094-.609374-4.222656 2.320313-8.140625 6.542969-8.75l5.046875-.730469c4.226563-.613281 8.140625 2.320313 8.75 6.542969.613282 4.222656-2.320312 8.140625-6.542968 8.75l-5.042969.730469c-.375.054687-.75.078125-1.117188.078125zm0 0"/></g></svg>