<svg height="512pt" viewBox="0 -11 512.001 512" width="512pt" xmlns="http://www.w3.org/2000/svg"><path d="m0 174.023438c0 2.789062 1.132812 5.453124 3.132812 7.394531 15.589844 15.171875 86.90625 77.59375 157.035157 25.679687 79.324219-58.71875 137.734375-55.628906 197-21.632812 55.828125 32.023437 126.226562 10.632812 148.0625 2.648437 4.066406-1.488281 6.769531-5.347656 6.769531-9.679687v-168.132813c0-5.6875-4.613281-10.300781-10.300781-10.300781h-491.398438c-5.6875 0-10.300781 4.613281-10.300781 10.300781zm0 0" fill="#bc8871"/><path d="m512 157.132812v21.300782c0 4.332031-2.703125 8.191406-6.769531 9.679687-21.835938 7.984375-92.226563 29.371094-148.054688-2.648437-59.277343-33.996094-117.679687-37.085938-197.003906 21.632812-70.128906 51.914063-141.449219-10.507812-157.042969-25.679687-1.996094-1.945313-3.128906-4.609375-3.128906-7.394531v-24.101563s80.847656 87.566406 160.171875 28.847656c79.324219-58.722656 137.726563-55.632812 197.003906-21.636719 66.9375 38.398438 154.824219 0 154.824219 0zm0 0" fill="#a46a52"/><path d="m501.699219 0h-491.398438c-5.6875 0-10.300781 4.613281-10.300781 10.300781v84.394531c22.152344 0 40.253906 17.648438 40.867188 39.792969 5.027343 181.054688 24.652343 316.109375 48.097656 316.109375 23.433594 0 43.054687-134.933594 48.089844-315.859375.621093-22.285156 18.835937-40.042969 41.125-40.042969h35.9375c21.867187 0 39.929687 17.109376 41.082031 38.945313 4.867187 92.152344 17.601562 130.636719 32.554687 130.636719 15.78125 0 29.097656-42.894532 33.289063-146.554688.519531-12.863281 11.105469-23.027344 23.980469-23.027344 13.019531 0 23.667968 10.386719 23.996093 23.402344 4.347657 172.148438 23.796875 267.847656 47.132813 267.847656 22.21875 0 40.910156-86.722656 46.40625-243.5625.933594-26.609374 22.8125-47.6875 49.441406-47.6875v-84.394531c0-5.6875-4.613281-10.300781-10.300781-10.300781zm0 0" fill="#70efef"/><g fill="#42d2d9"><path d="m14.703125 97.398438c14.875 5.84375 25.410156 19.984374 25.847656 35.691406 5.042969 181.738281 24.742188 317.308594 48.277344 317.308594 4.210937 0 8.304687-4.367188 12.207031-12.546876-18.992187-37.488281-26.90625-155.765624-35.667968-304.765624-2.097657-35.6875-25.808594-30.96875-50.664063-35.6875zm0 0"/><path d="m428.304688 376.78125c-3.886719 6.078125-7.953126 9.167969-12.148438 9.167969-23.34375 0-42.792969-95.703125-47.140625-267.847657-.164063-6.511718-2.90625-12.363281-7.242187-16.585937-1.378907-1.351563-2.925782-2.535156-4.605469-3.511719 3.566406-2.101562 7.71875-3.308594 12.148437-3.308594 6.507813 0 12.421875 2.597657 16.75 6.820313 4.335938 4.222656 7.078125 10.074219 7.242188 16.585937 3.5625 141.195313 17.296875 230.964844 34.996094 258.679688zm0 0"/><path d="m299.890625 254.488281c-3.769531 6.644531-7.859375 9.785157-12.132813 9.785157-14.960937 0-27.691406-38.476563-32.554687-130.625-1.15625-21.84375-19.214844-38.953126-41.085937-38.953126h24.292968c21.871094 0 39.929688 17.109376 41.082032 38.953126 3.472656 65.816406 10.960937 104.253906 20.398437 120.839843zm0 0"/></g><path d="m309.964844 350.640625c0 13.394531-10.859375 24.25-24.25 24.25s-24.25-10.855469-24.25-24.25c0-9.746094 12.847656-31.957031 19.839844-43.324219 2.023437-3.289062 6.796874-3.289062 8.820312 0 6.992188 11.367188 19.839844 33.578125 19.839844 43.324219zm0 0" fill="#70efef"/><path d="m294.945312 373.070312c-2.84375 1.175782-5.964843 1.824219-9.230468 1.824219-13.390625 0-24.25-10.859375-24.25-24.25 0-9.746093 12.847656-31.96875 19.84375-43.328125 2.015625-3.289062 6.796875-3.289062 8.816406 0 1.410156 2.296875 3.070312 5.046875 4.820312 8.042969-6.859374 11.808594-15.03125 27.507813-15.03125 35.285156 0 10.125 6.214844 18.800781 15.03125 22.425781zm0 0" fill="#42d2d9"/><path d="m439.703125 466.1875c0 13.394531-10.855469 24.25-24.246094 24.25-13.394531 0-24.25-10.855469-24.25-24.25 0-9.746094 12.847657-31.960938 19.839844-43.324219 2.023437-3.289062 6.796875-3.289062 8.816406 0 6.992188 11.363281 19.839844 33.578125 19.839844 43.324219zm0 0" fill="#70efef"/><path d="m424.6875 488.617188c-2.84375 1.171874-5.964844 1.824218-9.230469 1.824218-13.390625 0-24.25-10.859375-24.25-24.25 0-9.746094 12.847657-31.96875 19.839844-43.332031 2.019531-3.285156 6.800781-3.285156 8.820313 0 1.410156 2.296875 3.070312 5.050781 4.820312 8.046875-6.863281 11.804688-15.03125 27.507812-15.03125 35.285156 0 10.125 6.210938 18.800782 15.03125 22.425782zm0 0" fill="#42d2d9"/></svg>