<svg height="512pt" viewBox="0 -3 512 512" width="512pt" xmlns="http://www.w3.org/2000/svg"><path d="m457.085938 183.746094v-110.863282c0-9.019531-10.261719-14.199218-17.519532-8.84375l-162.152344 119.707032zm0 0" fill="#70efef"/><path d="m461.675781 138.238281-27.421875 20.292969-67.003906 49.59375c-1.378906 1.019531-2.988281 1.515625-4.585938 1.515625-2.367187 0-4.707031-1.09375-6.21875-3.144531-2.535156-3.429688-1.804687-8.269532 1.625-10.804688l76.183594-56.371094 18.242188-13.507812c3.433594-2.53125 8.273437-1.8125 10.808594 1.628906 2.535156 3.429688 1.800781 8.261719-1.628907 10.796875zm0 0" fill="#42d2d9"/><path d="m457.085938 72.882812v110.867188h-22.832032v-110.867188c0-1.550781-.308594-2.992187-.847656-4.289062l6.15625-4.550781c7.253906-5.363281 17.523438-.175781 17.523438 8.839843zm0 0" fill="#c8ffff"/><path d="m370.640625 172.277344c-38.015625 51.714844-86.867187 80.382812-109.128906 64.023437-21.117188-15.523437-10.691407-66.042969 22.933593-115.359375 1.792969-2.636718 3.65625-5.273437 5.582032-7.902344 1.144531-1.554687 2.296875-3.101562 3.472656-4.613281 5.585938-7.285156 11.382812-14.0625 17.265625-20.285156 3.679687-3.894531 7.398437-7.5625 11.117187-10.992187 30.214844-27.867188 60.914063-40.15625 77.273438-28.132813 22.25 16.359375 9.484375 71.546875-28.515625 123.261719zm0 0" fill="#ffae4d"/><path d="m370.632812 172.277344c-38.007812 51.71875-86.859374 80.382812-109.121093 64.027344-4.898438-3.601563-8.105469-9.09375-9.710938-16.003907 25.070313-1.890625 61.300781-28.191406 90.941407-68.519531 29.636718-40.332031 43.917968-82.761719 38.234374-107.253906 7.074219-.53125 13.273438.890625 18.171876 4.488281 22.261718 16.359375 9.496093 71.542969-28.515626 123.261719zm0 0" fill="#fff0d0"/><path d="m312.445312 131.933594c-1.515624 2.058594-3.855468 3.152344-6.234374 3.152344-1.585938 0-3.183594-.484376-4.5625-1.492188l-17.207032-12.652344c1.792969-2.636718 3.660156-5.273437 5.585938-7.902344 1.144531-1.554687 2.296875-3.101562 3.472656-4.613281l17.296875 12.710938c3.4375 2.523437 4.179687 7.367187 1.648437 10.796875zm0 0" fill="#f78721"/><path d="m341.308594 101.007812c-1.511719 2.058594-3.851563 3.152344-6.234375 3.152344-1.585938 0-3.179688-.484375-4.5625-1.496094l-19.492188-14.316406c-.089843-.0625-.171875-.132812-.257812-.207031 3.679687-3.894531 7.398437-7.5625 11.117187-10.992187l17.78125 13.0625c3.441406 2.523437 4.183594 7.367187 1.648438 10.796874zm0 0" fill="#f78721"/><path d="m174.496094 119.914062v104.714844h-100.027344v-104.714844c0-14.957031 8.691406-27.882812 21.300781-34.011718 3.488281-1.695313 5.628907-5.316406 5.628907-9.199219v-54.335937h46.167968v54.332031c0 3.882812 2.140625 7.507812 5.632813 9.203125 12.613281 6.128906 21.296875 19.054687 21.296875 34.011718zm0 0" fill="#cbd359"/><path d="m101.398438 22.367188h21.984374v61.335937c0 9.707031-6.363281 18.269531-15.664062 21.0625-3.339844 1-6.15625 3.046875-8.132812 5.707031-1.992188 2.660156-3.132813 5.933594-3.132813 9.429688v104.722656h-21.984375v-104.710938c0-14.957031 8.691406-27.882812 21.300781-34.011718 3.488281-1.695313 5.628907-5.316406 5.628907-9.199219zm0 0" fill="#bec121"/><path d="m147.335938 40.890625h-45.699219c-6.070313 0-10.992188-4.921875-10.992188-10.992187v-14.832032c0-6.070312 4.921875-10.992187 10.992188-10.992187h45.699219c6.070312 0 10.992187 4.921875 10.992187 10.992187v14.832032c0 6.070312-4.921875 10.992187-10.992187 10.992187zm0 0" fill="#ffd2bc"/><path d="m109.933594 185.710938c-4.265625 0-7.726563-3.460938-7.726563-7.726563v-42.558594c0-4.269531 3.460938-7.726562 7.726563-7.726562s7.726562 3.460937 7.726562 7.726562v42.558594c0 4.265625-3.460937 7.726563-7.726562 7.726563zm0 0" fill="#fff0d0"/><path d="m139.039062 185.710938c-4.265624 0-7.722656-3.460938-7.722656-7.726563v-42.558594c0-4.269531 3.457032-7.726562 7.722656-7.726562 4.269532 0 7.726563 3.460937 7.726563 7.726562v42.558594c.003906 4.265625-3.457031 7.726563-7.726563 7.726563zm0 0" fill="#fff0d0"/><path d="m460.382812 237.359375v172.167969c0 34.320312-27.820312 62.152344-62.140624 62.152344h-315.03125c-34.332032 0-62.152344-27.832032-62.152344-62.152344v-172.167969zm0 0" fill="#e0a98f"/><path d="m21.058594 237.359375h439.324218v36.5h-439.324218zm0 0" fill="#bc8871"/><path d="m118.75 471.675781h-35.550781c-34.316407 0-62.136719-27.824219-62.136719-62.152343v-172.164063h35.539062v172.164063c0 34.328124 27.820313 62.152343 62.148438 62.152343zm0 0" fill="#bc8871"/><path d="m470.449219 261.265625h-459.457031c-6.070313 0-10.992188-4.921875-10.992188-10.992187v-59.449219c0-6.070313 4.921875-10.988281 10.992188-10.988281h459.457031c6.070312 0 10.992187 4.917968 10.992187 10.988281v59.449219c0 6.070312-4.921875 10.992187-10.992187 10.992187zm0 0" fill="#ff7061"/><path d="m45.695312 261.269531h-34.703124c-6.066407 0-10.992188-4.925781-10.992188-10.992187v-59.449219c0-6.078125 4.925781-10.988281 10.992188-10.988281h34.703124c-6.078124 0-10.992187 4.914062-10.992187 10.988281v59.449219c0 6.066406 4.914063 10.992187 10.992187 10.992187zm0 0" fill="#f74f43"/><path d="m217.015625 228.703125h47.410156c6.070313 0 10.992188-4.921875 10.992188-10.992187v-188.800782c0-15.964844-12.941407-28.910156-28.910157-28.910156h-11.570312c-15.96875 0-28.914062 12.945312-28.914062 28.910156v188.800782c0 6.070312 4.921874 10.992187 10.992187 10.992187zm0 0" fill="#e0a98f"/><g fill="#bc8871"><path d="m206.03125 28.910156v188.796875c0 6.078125 4.914062 10.992188 10.992188 10.992188h21.335937c-6.070313 0-10.992187-4.914063-10.992187-10.992188v-188.796875c0-14.300781 10.386718-26.171875 24.015624-28.488281-1.582031-.277344-3.21875-.41796875-4.878906-.41796875h-11.5625c-15.972656 0-28.910156 12.93749975-28.910156 28.90624975zm0 0"/><path d="m113.445312 335.609375c-2.964843 0-5.796874-1.722656-7.070312-4.613281l-2.214844-5.015625c-1.71875-3.902344.050782-8.464844 3.953125-10.1875 3.90625-1.71875 8.464844.046875 10.1875 3.953125l2.210938 5.015625c1.722656 3.902343-.046875 8.464843-3.949219 10.1875-1.015625.445312-2.074219.660156-3.117188.660156zm0 0"/><path d="m137.785156 335.398438c-1.023437 0-2.0625-.203126-3.0625-.636719-3.914062-1.691407-5.71875-6.242188-4.027344-10.15625l2.1875-5.054688c1.691407-3.917969 6.234376-5.71875 10.15625-4.027343 3.914063 1.695312 5.71875 6.242187 4.027344 10.160156l-2.183594 5.050781c-1.261718 2.917969-4.109374 4.664063-7.097656 4.664063zm0 0"/><path d="m168.402344 385.605469c-2.96875 0-5.796875-1.71875-7.074219-4.613281l-2.210937-5.011719c-1.722657-3.90625.046874-8.464844 3.949218-10.1875 3.902344-1.722657 8.464844.042969 10.1875 3.949219l2.214844 5.015624c1.722656 3.902344-.046875 8.464844-3.949219 10.1875-1.015625.445313-2.074219.660157-3.117187.660157zm0 0"/><path d="m192.742188 385.394531c-1.023438 0-2.0625-.203125-3.0625-.636719-3.917969-1.691406-5.71875-6.238281-4.027344-10.15625l2.183594-5.054687c1.691406-3.917969 6.238281-5.71875 10.15625-4.027344 3.917968 1.695313 5.722656 6.242188 4.027343 10.160157l-2.183593 5.050781c-1.261719 2.917969-4.105469 4.664062-7.09375 4.664062zm0 0"/></g><path d="m289.011719 471.238281c9.113281 27.328125 38.65625 42.089844 65.980469 32.976563 27.328124-9.117188 42.09375-38.660156 32.976562-65.984375-9.113281-27.328125-47.175781-67.628907-74.503906-58.511719-27.324219 9.113281-33.570313 64.191406-24.453125 91.519531zm0 0" fill="#77bc4d"/><path d="m289.015625 471.238281c5.632813 16.910157 19.097656 29.007813 35.007813 33.613281-8.164063-6.144531-14.609376-14.734374-18.078126-25.152343-9.113281-27.324219-2.867187-82.402344 24.457032-91.515625 5.757812-1.929688 11.996094-1.652344 18.339844.230468-11.789063-8.109374-24.382813-12.332031-35.28125-8.695312-27.324219 9.113281-33.570313 64.191406-24.445313 91.519531zm0 0" fill="#479838"/><path d="m512 437.527344c0 38.316406-33.335938 69.378906-74.460938 69.378906s-74.460937-31.0625-74.460937-69.378906c0-18.410156 7.691406-35.136719 20.242187-47.558594 7.75-7.667969 18.726563-11.175781 29.484376-9.394531 7.496093 1.238281 15.882812 1.933593 24.734374 1.933593 8.851563 0 17.238282-.695312 24.734376-1.933593 10.757812-1.78125 21.734374 1.726562 29.484374 9.394531 12.550782 12.421875 20.242188 29.148438 20.242188 47.558594zm0 0" fill="#ff7061"/><path d="m453.101562 505.382812c-5.019531 1-10.222656 1.523438-15.558593 1.523438-41.121094 0-74.46875-31.058594-74.46875-69.378906 0-18.402344 7.695312-35.132813 20.246093-47.550782 7.75-7.671874 18.722657-11.175781 29.488282-9.402343 4.394531.730469 9.082031 1.265625 14.011718 1.582031-4.585937 1.652344-8.820312 4.292969-12.371093 7.820312-12.554688 12.417969-20.25 29.148438-20.25 47.550782.003906 33.34375 25.246093 61.195312 58.902343 67.855468zm0 0" fill="#f74f43"/><path d="m437.53125 396.414062c-3.847656 0-7.175781-2.863281-7.660156-6.777343-.019532-.160157-2.070313-16.171875-8.933594-30.265625-1.867188-3.835938-.273438-8.460938 3.566406-10.328125 3.835938-1.867188 8.460938-.273438 10.324219 3.5625 8.023437 16.480469 10.289063 34.386719 10.378906 35.140625.519531 4.238281-2.492187 8.09375-6.726562 8.609375-.320313.042969-.636719.058593-.949219.058593zm0 0" fill="#935641"/><path d="m461.675781 138.238281-27.421875 20.292969v-19.210938l18.242188-13.507812c3.433594-2.53125 8.273437-1.8125 10.808594 1.628906 2.535156 3.429688 1.800781 8.261719-1.628907 10.796875zm0 0" fill="#70efef"/></svg>