<svg height="512pt" viewBox="0 -9 512 512" width="512pt" xmlns="http://www.w3.org/2000/svg"><path d="m334.660156 308.808594c0 92.414062-74.914062 167.332031-167.328125 167.332031-92.414062 0-167.332031-74.917969-167.332031-167.332031 0-92.414063 74.917969-167.332032 167.332031-167.332032 92.414063 0 167.328125 74.917969 167.328125 167.332032zm0 0" fill="#a46a52"/><path d="m300.988281 409.46875c-30.515625 40.5-79.035156 66.667969-133.652343 66.667969-92.425782 0-167.33203175-74.917969-167.33203175-167.332031 0-50.773438 22.61718775-96.269532 58.33203175-126.941407-21.125 28.003907-33.644532 62.859375-33.644532 100.644531 0 92.414063 74.90625 167.320313 167.332032 167.320313 41.628906 0 79.695312-15.199219 108.964843-40.359375zm0 0" fill="#935641"/><path d="m383.4375 106.65625c13.886719 34.972656-3.207031 74.578125-38.179688 88.464844-34.972656 13.886718-74.578124-3.203125-88.464843-38.175782-13.886719-34.972656-9.773438-107.261718 25.199219-121.148437 34.972656-13.886719 87.558593 35.886719 101.445312 70.859375zm0 0" fill="#479838"/><path d="m480.007812 112.210938c-5.316406 37.25-39.820312 63.140624-77.070312 57.824218-37.253906-5.3125-63.140625-39.820312-57.828125-77.070312 5.316406-37.25 44.789063-97.953125 82.039063-92.636719 37.25 5.3125 58.175781 74.632813 52.859374 111.882813zm0 0" fill="#77bc4d"/><path d="m349.789062 343.9375h-223.285156v-212.394531c0-6.015625 4.875-10.890625 10.890625-10.890625h212.394531zm0 0" fill="#ffcb6f"/><path d="m161.386719 120.65625c-6.015625 0-10.894531 4.867188-10.894531 10.890625v212.386719h-23.992188v-212.386719c0-6.023437 4.878906-10.890625 10.890625-10.890625zm0 0" fill="#ffae4d"/><path d="m492.5 173.371094c0 53.992187-43.769531 97.761718-97.761719 97.761718-53.988281 0-97.757812-43.769531-97.757812-97.761718 0-53.988282 43.769531-97.757813 97.757812-97.757813 53.992188 0 97.761719 43.769531 97.761719 97.757813zm0 0" fill="#f74f43"/><path d="m394.738281 244.316406c-39.117187 0-70.9375-31.828125-70.9375-70.945312 0-39.113282 31.820313-70.9375 70.9375-70.9375 39.117188 0 70.941407 31.824218 70.941407 70.9375 0 39.117187-31.824219 70.945312-70.941407 70.945312zm0 0" fill="#ce2828"/><path d="m450.398438 173.371094c0 30.742187-24.917969 55.660156-55.660157 55.660156-30.738281 0-55.65625-24.917969-55.65625-55.660156 0-30.738282 24.917969-55.65625 55.65625-55.65625 30.742188 0 55.660157 24.917968 55.660157 55.65625zm0 0" fill="#ff8e7d"/><path d="m393.851562 272.019531c0 53.992188-43.769531 97.761719-97.757812 97.761719-53.992188 0-97.761719-43.769531-97.761719-97.761719 0-53.992187 43.769531-97.757812 97.761719-97.757812 53.988281 0 97.757812 43.765625 97.757812 97.757812zm0 0" fill="#ff7061"/><path d="m296.09375 342.964844c-39.117188 0-70.941406-31.828125-70.941406-70.945313 0-39.117187 31.824218-70.941406 70.941406-70.941406s70.9375 31.824219 70.9375 70.941406c0 39.117188-31.820312 70.945313-70.9375 70.945313zm0 0" fill="#f74f43"/><path d="m351.75 272.019531c0 30.742188-24.917969 55.660157-55.65625 55.660157-30.742188 0-55.660156-24.917969-55.660156-55.660157 0-30.738281 24.917968-55.65625 55.660156-55.65625 30.738281 0 55.65625 24.917969 55.65625 55.65625zm0 0" fill="#ff8e7d"/><path d="m295.207031 370.667969c0 53.992187-43.769531 97.761719-97.761719 97.761719-53.992187 0-97.761718-43.769532-97.761718-97.761719 0-53.992188 43.769531-97.761719 97.761718-97.761719 53.992188 0 97.761719 43.769531 97.761719 97.761719zm0 0" fill="#f74f43"/><path d="m197.445312 441.609375c-39.117187 0-70.941406-31.824219-70.941406-70.941406 0-39.117188 31.824219-70.941407 70.941406-70.941407 39.117188 0 70.941407 31.824219 70.941407 70.941407 0 39.117187-31.824219 70.941406-70.941407 70.941406zm0 0" fill="#ce2828"/><path d="m253.105469 370.667969c0 30.742187-24.921875 55.660156-55.660157 55.660156-30.738281 0-55.660156-24.917969-55.660156-55.660156 0-30.738281 24.921875-55.65625 55.660156-55.65625 30.738282 0 55.660157 24.917969 55.660157 55.65625zm0 0" fill="#ff8e7d"/><path d="m512 63.59375v418.523438c0 6.492187-5.261719 11.757812-11.757812 11.757812h-418.519532c-10.476562 0-15.71875-12.664062-8.316406-20.070312l418.523438-418.523438c7.40625-7.40625 20.070312-2.160156 20.070312 8.3125zm0 0" fill="#fff0d0"/><path d="m512 63.597656v20.878906l-409.394531 409.394532h-20.882813c-10.476562 0-15.71875-12.660156-8.3125-20.066406l418.523438-418.523438c7.40625-7.40625 20.066406-2.164062 20.066406 8.316406zm0 0" fill="#ead2c1"/><g fill="#935641"><path d="m82.492188 242.632812h-.128907c-4.265625 0-7.722656-3.457031-7.722656-7.726562 0-4.265625 3.457031-7.726562 7.722656-7.726562h.128907c4.269531 0 7.726562 3.460937 7.726562 7.726562 0 4.269531-3.457031 7.726562-7.726562 7.726562zm0 0"/><path d="m90.289062 272.1875h-.128906c-4.269531 0-7.726562-3.460938-7.726562-7.726562 0-4.265626 3.457031-7.726563 7.726562-7.726563h.128906c4.265626 0 7.726563 3.460937 7.726563 7.726563 0 4.265624-3.460937 7.726562-7.726563 7.726562zm0 0"/><path d="m58.386719 344.398438c-4.234375 0-7.6875-3.417969-7.722657-7.660157-.035156-4.269531 3.394532-7.757812 7.660157-7.792969h.117187.066406c4.238282 0 7.691407 3.414063 7.726563 7.660157.035156 4.265625-3.394531 7.753906-7.660156 7.792969h-.121094c-.019531 0-.042969 0-.066406 0zm0 0"/></g><path d="m205.171875 169.105469c0 10.449219-8.472656 18.921875-18.921875 18.921875s-18.921875-8.472656-18.921875-18.921875 8.472656-18.921875 18.921875-18.921875 18.921875 8.472656 18.921875 18.921875zm0 0" fill="#fff4c3"/><path d="m446.457031 280.917969h-.109375c-4.269531 0-7.726562-3.460938-7.726562-7.726563s3.457031-7.726562 7.726562-7.726562h.109375c4.269531 0 7.726563 3.460937 7.726563 7.726562s-3.457032 7.726563-7.726563 7.726563zm0 0" fill="#ead2c1"/><path d="m411.609375 289.875c-4.234375 0-7.683594-3.410156-7.722656-7.65625-.039063-4.265625 3.386719-7.757812 7.65625-7.796875h.109375c4.257812-.054687 7.757812 3.390625 7.796875 7.65625.039062 4.269531-3.390625 7.757813-7.65625 7.796875h-.109375c-.027344 0-.050782 0-.074219 0zm0 0" fill="#ead2c1"/><path d="m450.304688 316.894531h-.109376c-4.269531 0-7.726562-3.457031-7.726562-7.722656 0-4.269531 3.457031-7.726563 7.726562-7.726563h.109376c4.265624 0 7.726562 3.457032 7.726562 7.726563 0 4.265625-3.460938 7.722656-7.726562 7.722656zm0 0" fill="#ead2c1"/></svg>