<svg height="512pt" viewBox="-111 0 512 512" width="512pt" xmlns="http://www.w3.org/2000/svg"><path d="m66.328125 512c-13.484375 0-26.195313-4.988281-36.132813-14.265625-10.710937-10-16.855468-24.136719-16.855468-38.789063 0-6.769531 5.488281-12.257812 12.257812-12.257812 6.773438 0 12.261719 5.488281 12.261719 12.257812 0 7.996094 3.21875 15.40625 9.070313 20.863282 5.839843 5.453125 13.476562 8.15625 21.507812 7.597656 14.085938-.972656 25.441406-12.328125 26.410156-26.410156.882813-12.8125-6.921875-24.726563-18.984375-28.972656-13-4.574219-21.734375-16.972657-21.734375-30.851563v-388.910156c0-6.773438 5.488282-12.261719 12.257813-12.261719 6.773437 0 12.261719 5.488281 12.261719 12.261719v388.910156c0 3.488281 2.152343 6.59375 5.355468 7.722656 22.425782 7.890625 36.945313 30.011719 35.304688 53.789063-1.808594 26.230468-22.953125 47.375-49.183594 49.183594-1.269531.089843-2.535156.132812-3.796875.132812zm0 0" fill="#d0daad"/><path d="m105.253906 71.101562c0 21.464844-17.402344 38.863282-38.867187 38.863282-21.460938 0-38.863281-17.398438-38.863281-38.863282 0-21.464843 17.402343-38.863281 38.863281-38.863281 21.464843 0 38.867187 17.398438 38.867187 38.863281zm0 0" fill="#ffcb6f"/><path d="m77.652344 108.304688c-3.566406 1.082031-7.351563 1.660156-11.261719 1.660156-21.46875 0-38.871094-17.398438-38.871094-38.867188 0-21.460937 17.402344-38.859375 38.871094-38.859375 3.910156 0 7.695313.578125 11.261719 1.660157-15.972656 4.824218-27.605469 19.652343-27.605469 37.199218 0 17.554688 11.632813 32.382813 27.605469 37.207032zm0 0" fill="#ffae4d"/><path d="m112.636719 151.085938c0 25.542968-20.707031 46.25-46.25 46.25s-46.25-20.707032-46.25-46.25c0-25.542969 20.707031-46.25 46.25-46.25s46.25 20.707031 46.25 46.25zm0 0" fill="#ff7061"/><path d="m79.792969 195.355469c-4.246094 1.289062-8.746094 1.980469-13.402344 1.980469-25.550781 0-46.257813-20.707032-46.257813-46.257813 0-25.535156 20.707032-46.242187 46.257813-46.242187 4.65625 0 9.15625.6875 13.402344 1.976562-19.007813 5.738281-32.851563 23.386719-32.851563 44.265625-.003906 20.894531 13.84375 38.542969 32.851563 44.277344zm0 0" fill="#f74f43"/><path d="m112.917969 285.027344h-93.058594c-7.210937 0-13.054687-5.839844-13.054687-13.050782v-76.488281c0-7.207031 5.84375-13.050781 13.054687-13.050781h93.058594c7.210937 0 13.054687 5.839844 13.054687 13.050781v76.488281c-.003906 7.207032-5.84375 13.050782-13.054687 13.050782zm0 0" fill="#a46a52"/><path d="m43.210938 285.03125h-23.355469c-7.210938 0-13.050781-5.851562-13.050781-13.050781v-76.492188c0-7.210937 5.839843-13.054687 13.050781-13.054687h23.355469c-7.210938 0-13.050782 5.84375-13.050782 13.054687v76.492188c-.003906 7.199219 5.839844 13.050781 13.050782 13.050781zm0 0" fill="#935641"/><path d="m116.597656 374.695312h-100.417968c-8.9375 0-16.179688-7.246093-16.179688-16.179687v-21.886719c0-8.9375 7.242188-16.179687 16.179688-16.179687h100.417968c8.933594 0 16.179688 7.242187 16.179688 16.179687v21.886719c0 8.933594-7.246094 16.179687-16.179688 16.179687zm0 0" fill="#77bc4d"/><path d="m43.703125 374.695312h-27.523437c-8.933594 0-16.17578175-7.242187-16.17578175-16.183593v-21.878907c0-8.945312 7.24218775-16.1875 16.17578175-16.1875h27.523437c-8.941406 0-16.183594 7.242188-16.183594 16.1875v21.878907c0 8.941406 7.242188 16.183593 16.183594 16.183593zm0 0" fill="#479838"/><path d="m94.996094 220.800781c-4.226563 0-7.71875-3.402343-7.769532-7.640625-.046874-4.265625 3.328126-7.765625 7.597657-7.8125h.089843.089844c4.226563 0 7.675782 3.402344 7.722656 7.640625.046876 4.265625-3.375 7.765625-7.640624 7.8125-.03125 0-.058594 0-.089844 0zm0 0" fill="#bc8871"/><path d="m76.203125 237.308594c-4.226563 0-7.722656-3.398438-7.769531-7.636719-.046875-4.269531 3.328125-7.765625 7.59375-7.8125l.089844-.003906h.089843c4.226563 0 7.675781 3.402343 7.722657 7.640625.046874 4.269531-3.371094 7.765625-7.640626 7.8125-.027343 0-.058593 0-.085937 0zm0 0" fill="#bc8871"/><path d="m224.15625 0c13.484375 0 26.195312 4.988281 36.128906 14.265625 10.714844 10 16.859375 24.136719 16.859375 38.789063 0 6.769531-5.488281 12.257812-12.257812 12.257812-6.773438 0-12.261719-5.488281-12.261719-12.257812 0-7.996094-3.222656-15.40625-9.070312-20.863282-5.839844-5.453125-13.476563-8.15625-21.507813-7.597656-14.085937.972656-25.441406 12.328125-26.410156 26.410156-.882813 12.8125 6.921875 24.726563 18.984375 28.972656 13 4.574219 21.734375 16.972657 21.734375 30.851563v388.910156c0 6.773438-5.488281 12.261719-12.257813 12.261719-6.773437 0-12.261718-5.488281-12.261718-12.261719v-388.910156c0-3.488281-2.152344-6.59375-5.355469-7.722656-22.425781-7.890625-36.945313-30.011719-35.304688-53.789063 1.808594-26.230468 22.953125-47.375 49.183594-49.183594 1.269531-.0898432 2.535156-.132812 3.796875-.132812zm0 0" fill="#d0daad"/><path d="m262.964844 440.898438c0 21.464843-17.402344 38.863281-38.863282 38.863281-21.464843 0-38.867187-17.398438-38.867187-38.863281 0-21.464844 17.402344-38.863282 38.867187-38.863282 21.460938 0 38.863282 17.398438 38.863282 38.863282zm0 0" fill="#ffcb6f"/><path d="m235.363281 478.101562c-3.566406 1.082032-7.347656 1.660157-11.261719 1.660157-21.46875 0-38.867187-17.398438-38.867187-38.867188 0-21.460937 17.398437-38.859375 38.867187-38.859375 3.914063 0 7.695313.578125 11.261719 1.660156-15.972656 4.824219-27.605469 19.652344-27.605469 37.199219 0 17.554688 11.632813 32.382813 27.605469 37.207031zm0 0" fill="#ffae4d"/><path d="m270.351562 360.914062c0 25.542969-20.707031 46.25-46.25 46.25-25.542968 0-46.25-20.707031-46.25-46.25 0-25.542968 20.707032-46.25 46.25-46.25 25.542969 0 46.25 20.707032 46.25 46.25zm0 0" fill="#ff7061"/><path d="m237.503906 405.1875c-4.242187 1.289062-8.746094 1.976562-13.402344 1.976562-25.546874 0-46.253906-20.703124-46.253906-46.253906 0-25.539062 20.707032-46.246094 46.253906-46.246094 4.65625 0 9.15625.691407 13.402344 1.980469-19.007812 5.738281-32.851562 23.382813-32.851562 44.265625 0 20.890625 13.84375 38.539063 32.851562 44.277344zm0 0" fill="#f74f43"/><path d="m270.628906 329.5625h-93.0625c-7.207031 0-13.050781-5.84375-13.050781-13.050781v-76.488281c0-7.210938 5.84375-13.054688 13.050781-13.054688h93.0625c7.207032 0 13.050782 5.84375 13.050782 13.054688v76.488281c0 7.207031-5.84375 13.050781-13.050782 13.050781zm0 0" fill="#a46a52"/><path d="m200.921875 329.566406h-23.355469c-7.210937 0-13.050781-5.851562-13.050781-13.054687v-76.488281c0-7.210938 5.839844-13.054688 13.050781-13.054688h23.355469c-7.210937 0-13.054687 5.839844-13.054687 13.054688v76.488281c0 7.203125 5.84375 13.054687 13.054687 13.054687zm0 0" fill="#935641"/><path d="m274.304688 191.550781h-100.417969c-8.933594 0-16.179688-7.242187-16.179688-16.179687v-21.886719c0-8.933594 7.246094-16.179687 16.179688-16.179687h100.417969c8.933593 0 16.179687 7.246093 16.179687 16.179687v21.886719c0 8.9375-7.246094 16.179687-16.179687 16.179687zm0 0" fill="#77bc4d"/><path d="m201.414062 191.554688h-27.527343c-8.933594 0-16.171875-7.242188-16.171875-16.1875v-21.878907c0-8.941406 7.238281-16.183593 16.171875-16.183593h27.527343c-8.941406 0-16.183593 7.242187-16.183593 16.183593v21.878907c-.003907 8.945312 7.242187 16.1875 16.183593 16.1875zm0 0" fill="#479838"/><path d="m195.484375 306.652344c-4.226563 0-7.675781-3.402344-7.726563-7.640625-.046874-4.265625 3.375-7.765625 7.640626-7.8125h.089843c4.226563 0 7.722657 3.402343 7.769531 7.640625.046876 4.265625-3.328124 7.765625-7.597656 7.8125h-.089844c-.027343 0-.058593 0-.085937 0zm0 0" fill="#bc8871"/><path d="m214.277344 290.144531c-4.226563 0-7.675782-3.402343-7.722656-7.640625-.046876-4.269531 3.371093-7.765625 7.640624-7.8125 4.296876-.007812 7.808594 3.371094 7.855469 7.636719.046875 4.269531-3.328125 7.765625-7.59375 7.8125l-.089843.003906c-.027344 0-.058594 0-.089844 0zm0 0" fill="#935641"/></svg>