<svg height="512pt" viewBox="-97 0 512 512" width="512pt" xmlns="http://www.w3.org/2000/svg"><path d="m276.824219 183.988281v318c0 5.527344-4.480469 10.011719-10.007813 10.011719h-216.214844c-5.527343 0-10.007812-4.484375-10.007812-10.011719v-318c0-5.515625 4.480469-10 10.007812-10h216.214844c5.527344 0 10.007813 4.484375 10.007813 10zm0 0" fill="#c8ffff"/><path d="m276.824219 183.988281v45.359375h-236.230469v-45.359375c0-5.515625 4.480469-10 10.007812-10h216.214844c5.527344 0 10.007813 4.484375 10.007813 10zm0 0" fill="#70efef"/><path d="m84.132812 512h-33.53125c-5.527343 0-10.007812-4.484375-10.007812-10.011719v-318c0-5.515625 4.480469-10 10.007812-10h33.53125c-5.527343 0-10.011718 4.484375-10.011718 10v318c0 5.527344 4.484375 10.011719 10.011718 10.011719zm0 0" fill="#70efef"/><path d="m84.132812 173.988281c-5.527343 0-10.011718 4.484375-10.011718 10v45.359375h-33.527344v-45.359375c0-5.515625 4.480469-10 10.007812-10zm0 0" fill="#42d2d9"/><path d="m233.28125 476.71875h-149.144531c-5.527344 0-10.007813-4.480469-10.007813-10.003906v-282.71875c0-5.527344 4.480469-10.007813 10.007813-10.007813h149.144531c5.527344 0 10.007812 4.480469 10.007812 10.007813v282.71875c0 5.523437-4.480468 10.003906-10.007812 10.003906zm0 0" fill="#bc8871"/><path d="m113.714844 476.722656h-29.582032c-5.523437 0-10.003906-4.484375-10.003906-10.003906v-282.722656c0-5.523438 4.480469-10.007813 10.003906-10.007813h29.582032c-5.523438 0-10.003906 4.484375-10.003906 10.007813v282.722656c0 5.523438 4.480468 10.003906 10.003906 10.003906zm0 0" fill="#a46a52"/><path d="m300.164062 178.953125h-282.910156c0-6.644531.453125-13.175781 1.351563-19.574219 6.941406-50.210937 40.21875-91.992187 85.441406-110.949218 10.476563-4.390626 21.582031-7.550782 33.152344-9.3125 7.003906-1.070313 14.195312-1.628907 21.511719-1.628907 71.480468 0 130.574218 53.023438 140.113281 121.890625.886719 6.398438 1.339843 12.929688 1.339843 19.574219zm0 0" fill="#c8ffff"/><path d="m300.164062 178.953125h-282.910156c0-6.644531.453125-13.175781 1.351563-19.574219h280.21875c.886719 6.398438 1.339843 12.929688 1.339843 19.574219zm0 0" fill="#70efef"/><path d="m137.195312 145.035156h-33.144531v-134.894531c0-5.601563 4.539063-10.140625 10.140625-10.140625h12.863282c5.597656 0 10.140624 4.539062 10.140624 10.140625zm0 0" fill="#77bc4d"/><path d="m137.195312 39.117188v105.917968h-33.144531v-96.605468c10.46875-4.394532 21.574219-7.558594 33.144531-9.3125zm0 0" fill="#479838"/><path d="m87.714844 142.496094s1.703125-50.546875 59.636718-50.546875c29.105469 0 43.300782-6.882813 50.222657-13.730469 5.464843-5.410156 14.539062-4.238281 18.203125 2.523438 6.75 12.449218 13.933594 32.554687 13.933594 61.753906zm0 0" fill="#fff0d0"/><path d="m259.121094 155.773438c0 1.226562-.101563 2.429687-.300782 3.605468-.761718 4.554688-2.933593 8.625-6.054687 11.757813-3.9375 3.921875-9.363281 6.355469-15.359375 6.355469h-157.394531c-10.765625 0-19.695313-7.832032-21.414063-18.113282-.199218-1.171875-.300781-2.378906-.300781-3.605468 0-5.996094 2.429687-11.425782 6.355469-15.347657 3.9375-3.925781 9.363281-6.359375 15.359375-6.359375h157.390625c11.992187 0 21.71875 9.714844 21.71875 21.707032zm0 0" fill="#ead2c1"/><path d="m258.820312 159.378906c-.761718 4.554688-2.933593 8.625-6.054687 11.757813-3.9375 3.921875-9.363281 6.355469-15.359375 6.355469h-157.394531c-10.765625 0-19.695313-7.832032-21.414063-18.113282zm0 0" fill="#e0a98f"/><path d="m302.859375 216.15625h-288.300781c-8.039063 0-14.558594-6.515625-14.558594-14.554688v-14.269531c0-8.039062 6.519531-14.558593 14.558594-14.558593h288.300781c8.039063 0 14.558594 6.519531 14.558594 14.558593v14.269531c0 8.039063-6.519531 14.554688-14.558594 14.554688zm0 0" fill="#c8ffff"/><g fill="#ead2c1"><path d="m200.648438 291.398438h-.109376c-4.269531 0-7.726562-3.457032-7.726562-7.726563 0-4.265625 3.460938-7.726563 7.726562-7.726563h.109376c4.269531 0 7.726562 3.460938 7.726562 7.726563 0 4.269531-3.457031 7.726563-7.726562 7.726563zm0 0"/><path d="m165.914062 300.355469h-.109374c-4.269532 0-7.726563-3.457031-7.726563-7.722657 0-4.269531 3.457031-7.726562 7.726563-7.726562h.109374c4.269532 0 7.726563 3.457031 7.726563 7.726562 0 4.265626-3.457031 7.722657-7.726563 7.722657zm0 0"/><path d="m204.386719 327.378906c-4.238281 0-7.6875-3.414062-7.726563-7.65625-.039062-4.269531 3.390625-7.757812 7.65625-7.796875h.109375.070313c4.238281 0 7.6875 3.410157 7.726562 7.652344.039063 4.269531-3.386718 7.761719-7.65625 7.800781h-.109375c-.023437 0-.050781 0-.070312 0zm0 0"/></g></svg>