<svg height="512pt" viewBox="-45 0 512 512" width="512pt" xmlns="http://www.w3.org/2000/svg"><path d="m114.648438 470.308594v30.90625c0 5.953125-4.824219 10.785156-10.777344 10.785156h-83.628906c-5.957032 0-10.789063-4.832031-10.789063-10.785156v-30.90625c0-5.953125 4.832031-10.785156 10.789063-10.785156h83.628906c5.953125 0 10.777344 4.832031 10.777344 10.785156zm0 0" fill="#ffcb6f"/><path d="m114.648438 470.308594v15.371094h-103.863282c-.445312 0-.886718-.011719-1.332031-.042969v-15.328125c0-5.953125 4.832031-10.785156 10.789063-10.785156h83.628906c5.953125 0 10.777344 4.832031 10.777344 10.785156zm0 0" fill="#ffae4d"/><path d="m414.554688 470.308594v30.90625c0 5.953125-4.832032 10.785156-10.789063 10.785156h-237.269531c-4.304688 0-8.191406-2.554688-9.898438-6.511719l-8.550781-19.808593-11.28125-26.15625h267.003906c5.953125 0 10.785157 4.832031 10.785157 10.785156zm0 0" fill="#ffcb6f"/><path d="m414.554688 470.308594v15.082031c-1.226563.1875-2.472657.289063-3.75.289063h-262.757813l-11.28125-26.15625h267.003906c5.953125 0 10.785157 4.832031 10.785157 10.785156zm0 0" fill="#ffae4d"/><path d="m414.503906 448.191406c.183594 6.085938-4.699218 11.117188-10.789062 11.117188h-383.472656c-5.957032 0-10.789063-4.832032-10.789063-10.789063v-437.734375c0-5.953125 4.832031-10.785156 10.789063-10.785156h184.152343c6.574219 0 11.621094 5.832031 10.675781 12.332031l-34.523437 237.167969c-8.980469 61.707031 38.859375 117.027344 101.214844 117.027344h40.242187c81.144532 0 91.714844 57.03125 92.5 81.664062zm0 0" fill="#77bc4d"/><path d="m106.003906 433.191406c0 9.042969-1.246094 17.8125-3.585937 26.113282h-82.175781c-5.957032 0-10.789063-4.832032-10.789063-10.785157v-111.875c53.324219 0 96.550781 43.222657 96.550781 96.546875zm0 0" fill="#479838"/><path d="m217.875 101.886719h-208.417969v-53.367188h208.417969c5.953125 0 10.78125 4.824219 10.78125 10.78125v31.804688c0 5.957031-4.828125 10.78125-10.78125 10.78125zm0 0" fill="#ffcb6f"/><path d="m228.65625 59.296875v31.8125c0 5.953125-4.832031 10.777344-10.785156 10.777344h-180.503906c5.953124 0 10.777343-4.824219 10.777343-10.777344v-31.8125c0-5.953125-4.820312-10.777344-10.777343-10.777344h180.503906c5.953125.003907 10.785156 4.824219 10.785156 10.777344zm0 0" fill="#ffe671"/><path d="m410.804688 472.285156h-400.023438c-5.953125 0-10.78125-4.828125-10.78125-10.78125v-9.703125c0-5.957031 4.828125-10.785156 10.78125-10.785156h400.027344c5.953125 0 10.78125 4.828125 10.78125 10.785156v9.703125c0 5.953125-4.828125 10.78125-10.785156 10.78125zm0 0" fill="#bc8871"/></svg>