<svg height="512pt" viewBox="-48 0 512 512" width="512pt" xmlns="http://www.w3.org/2000/svg"><path d="m0 279.527344c0 32.90625 5.046875 63.089844 14.246094 90.039062 30.308594 88.8125 105.679687 142.433594 193.851562 142.433594 88.183594 0 163.550782-53.621094 193.859375-142.433594 9.199219-26.949218 14.246094-57.132812 14.246094-90.039062 0-38.785156-7.015625-77.335938-19.5625-112.84375-14.875-42.09375-37.519531-79.921875-65.507813-108.871094-34.460937-35.652344-76.996093-57.8125-123.035156-57.8125-46.039062 0-88.574218 22.171875-123.023437 57.824219-27.992188 28.949219-50.632813 66.785156-65.511719 108.871093-12.546875 35.507813-19.5625 74.046876-19.5625 112.832032zm0 0" fill="#edf1d3"/><path d="m0 279.527344c0 32.90625 5.046875 63.089844 14.246094 90.039062 30.308594 88.8125 105.679687 142.433594 193.851562 142.433594 6.335938 0 12.609375-.277344 18.800782-.835938-79.972657-7.054687-146.914063-59.171874-175.046876-141.597656-9.203124-26.949218-14.25-57.132812-14.25-90.039062 0-38.785156 7.015626-77.324219 19.5625-112.835938 30.671876-86.800781 94.425782-155.511718 169.734376-165.457031-6.191407-.8125-12.464844-1.234375-18.800782-1.234375-83.40625 0-155.339844 72.753906-188.535156 166.695312-12.546875 35.507813-19.5625 74.046876-19.5625 112.832032zm0 0" fill="#d0daad"/><path d="m85.074219 57.824219c6.199219 6.46875 13.609375 12.402343 22.035156 17.679687 26.011719 16.324219 61.667969 26.382813 100.988281 26.382813 52.066406 0 97.683594-17.640625 123.035156-44.074219-29.722656-30.75-65.4375-51.457031-104.234374-56.578125-6.191407-.8125-12.464844-1.234375-18.800782-1.234375-46.039062 0-88.574218 22.171875-123.023437 57.824219zm0 0" fill="#ff8e7d"/><path d="m85.074219 57.824219c6.199219 6.46875 13.609375 12.402343 22.035156 17.679687 32.417969-40.40625 73.964844-68.222656 119.789063-74.269531-6.191407-.8125-12.464844-1.234375-18.800782-1.234375-46.039062 0-88.574218 22.171875-123.023437 57.824219zm0 0" fill="#ff7061"/><path d="m0 279.527344c0 32.90625 5.046875 63.089844 14.246094 90.039062 13.785156 5.699219 28.257812 10.746094 43.328125 15.113282 45.597656 13.257812 96.632812 20.316406 150.523437 20.316406 71.6875 0 138.339844-12.496094 193.855469-35.429688 9.203125-26.949218 14.25-57.132812 14.25-90.039062 0-38.785156-7.015625-77.335938-19.5625-112.84375-54.4375 21.5625-119.132813 33.285156-188.546875 33.285156-55.578125 0-108.136719-7.511719-154.824219-21.574219-11.609375-3.5-22.871093-7.40625-33.707031-11.703125-12.546875 35.511719-19.5625 74.050782-19.5625 112.835938zm0 0" fill="#c8ffff"/><path d="m0 279.527344c0 32.90625 5.046875 63.089844 14.246094 90.039062 13.785156 5.699219 28.257812 10.746094 43.328125 15.113282-2.046875-4.914063-3.964844-9.949219-5.726563-15.113282-9.199218-26.949218-14.246094-57.132812-14.246094-90.039062 0-34.558594 5.574219-68.925782 15.667969-101.132813-11.609375-3.5-22.871093-7.40625-33.707031-11.703125-12.546875 35.511719-19.5625 74.050782-19.5625 112.835938zm0 0" fill="#70efef"/><path d="m.0820312 286.515625c.3007808 13.78125 1.4960938 27.0625 3.5234378 39.8125 2.410156 15.195313 5.996093 29.628906 10.640625 43.238281 13.785156 5.699219 28.261718 10.746094 43.332031 15.113282 45.59375 13.257812 96.628906 20.316406 150.519531 20.316406 71.6875 0 138.34375-12.496094 193.859375-35.429688 4.644531-13.609375 8.230469-28.050781 10.640625-43.246094 2.03125-12.753906 3.222656-26.035156 3.523438-39.804687-60.523438 23.992187-132.285156 36.652344-208.023438 36.652344-60.378906 0-118.214844-8.046875-169.847656-23.46875-13.144531-3.914063-25.886719-8.3125-38.1679688-13.183594zm0 0" fill="#ffcb6f"/><path d="m.0820312 286.515625c.3007808 13.78125 1.4960938 27.0625 3.5234378 39.8125 2.410156 15.195313 5.996093 29.628906 10.640625 43.238281 13.785156 5.699219 28.261718 10.746094 43.332031 15.113282-2.050781-4.914063-3.96875-9.949219-5.730469-15.113282-7.28125-21.34375-11.96875-44.71875-13.597656-69.867187-13.144531-3.914063-25.886719-8.3125-38.1679688-13.183594zm0 0" fill="#ffae4d"/><path d="m.0820312 286.515625c.3007808 13.78125 1.4960938 27.0625 3.5234378 39.8125 12.886719 4.566406 26.1875 8.664063 39.847656 12.292969 50.910156 13.566406 106.769531 20.601562 164.644531 20.601562 73.390625 0 143.535156-11.320312 204.5-32.902344 2.03125-12.753906 3.222656-26.035156 3.523438-39.804687-60.523438 23.992187-132.285156 36.652344-208.023438 36.652344-60.378906 0-118.214844-8.046875-169.847656-23.46875-13.144531-3.914063-25.886719-8.3125-38.1679688-13.183594zm0 0" fill="#ff8e7d"/><path d="m.0820312 286.515625c.3007808 13.78125 1.4960938 27.0625 3.5234378 39.8125 12.886719 4.566406 26.1875 8.664063 39.847656 12.292969-2.574219-12.433594-4.328125-25.425782-5.203125-38.921875-13.144531-3.914063-25.886719-8.3125-38.1679688-13.183594zm0 0" fill="#ff7061"/><path d="m374.445312 245.121094c0 11.382812-9.226562 20.613281-20.609374 20.613281-11.382813 0-20.613282-9.230469-20.613282-20.613281 0-11.382813 9.230469-20.613282 20.613282-20.613282 11.382812 0 20.609374 9.230469 20.609374 20.613282zm0 0" fill="#ff7061"/><path d="m277.492188 263.144531c0 11.382813-9.226563 20.613281-20.609376 20.613281-11.386718 0-20.613281-9.230468-20.613281-20.613281 0-11.382812 9.226563-20.613281 20.613281-20.613281 11.382813 0 20.609376 9.230469 20.609376 20.613281zm0 0" fill="#ffcb6f"/><path d="m82.972656 245.121094c0 11.382812-9.230468 20.613281-20.613281 20.613281s-20.613281-9.230469-20.613281-20.613281c0-11.382813 9.230468-20.613282 20.613281-20.613282s20.613281 9.230469 20.613281 20.613282zm0 0" fill="#ff7061"/><path d="m179.925781 263.144531c0 11.382813-9.230469 20.613281-20.613281 20.613281s-20.613281-9.230468-20.613281-20.613281c0-11.382812 9.230469-20.613281 20.613281-20.613281s20.613281 9.230469 20.613281 20.613281zm0 0" fill="#ffcb6f"/></svg>