<svg height="512pt" viewBox="-12 0 512 512" width="512pt" xmlns="http://www.w3.org/2000/svg"><path d="m180.054688 120.503906-50.382813 214.542969-16.507813 70.292969-22.15625 94.34375c-1.726562 7.355468-8.28125 12.316406-15.527343 12.316406-1.210938 0-2.4375-.128906-3.664063-.417969-8.582031-2.015625-13.914062-10.621093-11.898437-19.203125l20.441406-87.039062 16.507813-70.292969 52.097656-221.847656c2.015625-8.585938 10.609375-13.902344 19.191406-11.886719 8.585938 2.015625 13.914062 10.609375 11.898438 19.191406zm0 0" fill="#edf1d3"/><path d="m96.867188 335.046875h32.804687l-16.507813 70.292969h-32.804687zm0 0" fill="#d0daad"/><path d="m416.222656 511.582031c-1.226562.289063-2.453125.417969-3.660156.417969-7.246094 0-13.804688-4.960938-15.53125-12.316406l-22.15625-94.34375-16.507812-70.292969-50.382813-214.542969c-2.015625-8.582031 3.3125-17.175781 11.898437-19.191406 8.589844-2.027344 17.175782 3.304688 19.191407 11.886719l52.097656 221.847656 16.507813 70.292969 20.441406 87.039062c2.015625 8.582032-3.304688 17.1875-11.898438 19.203125zm0 0" fill="#edf1d3"/><path d="m407.679688 405.339844h-32.804688l-16.507812-70.292969h32.804687zm0 0" fill="#d0daad"/><path d="m270.460938 260.570312h-52.882813c-9.535156 0-17.265625-7.726562-17.265625-17.265624v-99.308594c0-9.535156 7.730469-17.265625 17.265625-17.265625h52.882813c9.535156 0 17.265624 7.730469 17.265624 17.265625v99.308594c0 9.539062-7.730468 17.265624-17.265624 17.265624zm0 0" fill="#a46a52"/><path d="m246.054688 260.570312h-28.472657c-9.542969 0-17.265625-7.722656-17.265625-17.265624v-99.304688c0-9.542969 7.722656-17.265625 17.265625-17.265625h28.472657c-9.53125 0-17.265626 7.722656-17.265626 17.265625v99.304688c0 9.542968 7.734376 17.265624 17.265626 17.265624zm0 0" fill="#935641"/><g fill="#edf1d3"><path d="m470.109375 56.605469h-61.238281v-35.859375h61.238281c9.902344 0 17.929687 8.027344 17.929687 17.929687 0 9.902344-8.027343 17.929688-17.929687 17.929688zm0 0"/><path d="m17.929688 20.746094h61.238281v35.859375h-61.238281c-9.902344 0-17.929688-8.027344-17.929688-17.929688 0-9.902343 8.027344-17.929687 17.929688-17.929687zm0 0"/><path d="m292.871094 291.707031c0 4.277344-3.460938 7.726563-7.726563 7.726563h-2.957031c-16.863281 0-30.574219-13.710938-30.574219-30.574219v-84.578125c0-4.265625 3.460938-7.726562 7.726563-7.726562s7.726562 3.460937 7.726562 7.726562v84.578125c0 8.34375 6.777344 15.121094 15.121094 15.121094h2.957031c4.265625 0 7.726563 3.460937 7.726563 7.726562zm0 0"/></g><path d="m267.066406 184.28125v12.050781c-5.101562.597657-10.25 1-15.453125 1.195313v-13.246094c0-4.265625 3.460938-7.726562 7.726563-7.726562s7.726562 3.460937 7.726562 7.726562zm0 0" fill="#d0daad"/><path d="m418.207031 0c5.652344 0 10.121094 4.757812 9.808594 10.402344-5.394531 96.9375-85.707031 173.882812-183.996094 173.882812-98.285156 0-178.601562-76.945312-183.996093-173.882812-.3125-5.644532 4.15625-10.402344 9.808593-10.402344zm0 0" fill="#fc4265"/><path d="m270.617188 182.375c-8.683594 1.257812-17.566407 1.90625-26.597657 1.90625-98.289062 0-178.601562-76.941406-183.992187-173.882812-.316406-5.636719 4.152344-10.398438 9.800781-10.398438h53.199219c-5.648438 0-10.121094 4.761719-9.8125 10.398438 4.902344 88.03125 71.582031 159.570312 157.402344 171.976562zm0 0" fill="#c61a4f"/><path d="m414.152344 392.363281h-340.265625c-5.511719 0-9.980469-4.46875-9.980469-9.980469v-24.382812c0-5.511719 4.46875-9.980469 9.980469-9.980469h340.265625c5.511718 0 9.980468 4.46875 9.980468 9.980469v24.382812c0 5.511719-4.46875 9.980469-9.980468 9.980469zm0 0" fill="#a46a52"/></svg>