<svg height="512pt" viewBox="-46 0 512 512" width="512pt" xmlns="http://www.w3.org/2000/svg"><path d="m410.578125 147.378906-16.359375 28.296875-157.308594 272.152344-27.269531 47.175781-27.269531-47.175781-157.304688-272.152344-16.363281-28.296875 40.457031-26.25 133.210938-86.433594 27.269531-17.699218 27.269531 17.699218 133.214844 86.433594zm0 0" fill="#70efef"/><path d="m410.578125 147.378906-16.359375 28.296875h-157.308594v272.152344l-27.269531 47.175781-27.269531-47.175781v-272.152344h-157.304688l-16.363281-28.296875 40.457031-26.25h133.210938v-86.433594l27.269531-17.699218 27.269531 17.699218v86.433594h133.214844zm0 0" fill="#42d2d9"/><path d="m41.238281 151.117188 183.589844 317.613281-15.1875 26.273437-200.9375-347.625 200.9375-130.382812 19.152344 12.4375zm0 0" fill="#42d2d9"/><path d="m209.640625 512c-7.664063 0-13.875-6.214844-13.875-13.878906v-484.242188c0-7.664062 6.210937-13.878906 13.875-13.878906 7.667969 0 13.878906 6.214844 13.878906 13.878906v484.242188c0 7.664062-6.210937 13.878906-13.878906 13.878906zm0 0" fill="#e0a98f"/><path d="m0 148.402344c0-7.664063 6.214844-13.875 13.878906-13.875h391.527344c7.664062 0 13.878906 6.210937 13.878906 13.875 0 7.667968-6.214844 13.878906-13.878906 13.878906h-391.527344c-7.664062 0-13.878906-6.210938-13.878906-13.878906zm0 0" fill="#ffc1ab"/><path d="m189.984375 178.992188c-3.296875 0-6.59375-1.257813-9.105469-3.769532-5.03125-5.03125-5.03125-13.183594 0-18.210937l39.316406-39.320313c5.027344-5.027344 13.179688-5.027344 18.210938 0 5.027344 5.03125 5.027344 13.183594 0 18.210938l-39.316406 39.320312c-2.515625 2.511719-5.8125 3.769532-9.105469 3.769532zm0 0" fill="#fc4265"/><path d="m229.300781 178.992188c-3.296875 0-6.589843-1.253907-9.105469-3.769532l-39.316406-39.320312c-5.03125-5.027344-5.03125-13.179688 0-18.210938 5.027344-5.027344 13.179688-5.027344 18.210938 0l39.316406 39.320313c5.027344 5.027343 5.027344 13.179687 0 18.210937-2.515625 2.511719-5.808594 3.769532-9.105469 3.769532zm0 0" fill="#fd748c"/></svg>