<svg height="512pt" viewBox="0 -26 512.00152 512" width="512pt" xmlns="http://www.w3.org/2000/svg"><path d="m348.585938 348.582031c71.308593-71.304687 85.890624-176.449219 41.378906-254.261719-5.320313-9.296874-3.898438-20.976562 3.675781-28.546874l.324219-.328126c12.195312-12.195312 12.195312-31.972656 0-44.167968-12.199219-12.199219-31.972656-12.199219-44.171875 0l-.324219.324218c-7.574219 7.570313-19.25 8.992188-28.546875 3.675782-77.816406-44.515625-182.960937-29.933594-254.265625 41.375-71.308594 71.304687-85.890625 176.453125-41.378906 254.265625 5.320312 9.296875 3.898437 20.972656-3.675782 28.546875l-.324218.324218c-12.199219 12.199219-12.199219 31.972657 0 44.171876 12.199218 12.195312 31.972656 12.195312 44.171875 0l.324219-.328126c7.574218-7.570312 19.25-8.992187 28.546874-3.675781 77.816407 44.519531 182.960938 29.933594 254.265626-41.375zm0 0" fill="#ffe671"/><path d="m100.515625 66.652344c-71.300781 71.300781-85.882813 176.457031-41.367187 254.265625 5.3125 9.296875 3.894531 20.976562-3.683594 28.546875l-.324219.324218c-12.195313 12.191407-12.195313 31.976563 0 44.171876 1.597656 1.597656 3.328125 2.984374 5.160156 4.15625-5.140625 3.332031-11.039062 4.992187-16.941406 4.992187-7.992187 0-15.976563-3.058594-22.078125-9.148437-12.207031-12.195313-12.207031-31.980469 0-44.171876l.324219-.324218c7.566406-7.570313 8.996093-19.25 3.671875-28.546875-44.515625-77.8125-29.933594-182.964844 41.378906-254.265625 48.714844-48.714844 113.238281-70.960938 174.035156-65.960938-50.171875 4.089844-100.425781 26.222656-140.175781 65.960938zm0 0" fill="#ffcb6f"/><path d="m502 263.148438c5.753906 0 10.292969 4.84375 9.988281 10.59375-5.503906 103.371093-91.070312 185.5-195.8125 185.5-104.746093 0-190.308593-82.128907-195.8125-185.5-.304687-5.75 4.230469-10.59375 9.988281-10.59375zm0 0" fill="#fff0d0"/><path d="m472.070312 289.503906c-3.859374 22.964844-12.808593 45.242188-26.847656 65.015625-8.171875 11.515625-24.710937 12.96875-34.695312 2.984375l-94.355469-94.355468h133.429687c14.003907 0 24.792969 12.546874 22.46875 26.355468zm0 0" fill="#ffae4d"/><path d="m407.773438 392.023438c-18.96875 13.507812-41.050782 22.929687-64.957032 26.984374-13.921875 2.363282-26.640625-8.300781-26.640625-22.421874v-133.4375l94.347657 94.347656c9.902343 9.902344 8.65625 26.402344-2.75 34.527344zm0 0" fill="#ffcb6f"/><path d="m316.175781 263.148438v133.4375c0 14.121093-12.722656 24.785156-26.644531 22.421874-23.90625-4.054687-45.988281-13.476562-64.957031-26.988281-11.40625-8.121093-12.652344-24.621093-2.75-34.523437zm0 0" fill="#ffae4d"/><path d="m316.175781 263.148438-94.359375 94.355468c-9.984375 9.984375-26.519531 8.53125-34.691406-2.980468-14.039062-19.773438-22.988281-42.050782-26.847656-65.015626-2.324219-13.8125 8.464844-26.359374 22.464844-26.359374zm0 0" fill="#ffcb6f"/><path d="m360.414062 263.148438c0 24.433593-19.804687 44.238281-44.238281 44.238281-24.4375 0-44.242187-19.804688-44.242187-44.238281zm0 0" fill="#fff0d0"/><g fill="#ffcb6f"><path d="m180.792969 83.042969c-4.25 0-7.703125-3.433594-7.722657-7.6875-.019531-4.269531 3.421876-7.742188 7.691407-7.765625h.109375.035156c4.25 0 7.707031 3.4375 7.726562 7.691406.019532 4.265625-3.425781 7.742188-7.691406 7.761719h-.113281c-.011719 0-.023437 0-.035156 0zm0 0"/><path d="m215.082031 64.054688c-4.25 0-7.707031-3.4375-7.722656-7.691407-.019531-4.269531 3.421875-7.742187 7.691406-7.761719h.109375c4.242188-.054687 7.742188 3.421876 7.761719 7.6875.019531 4.269532-3.425781 7.742188-7.691406 7.761719l-.109375.003907c-.011719 0-.023438 0-.039063 0zm0 0"/><path d="m221.761719 92.125c-4.25 0-7.703125-3.433594-7.722657-7.691406-.019531-4.265625 3.425782-7.742188 7.691407-7.761719h.109375.035156c4.25 0 7.707031 3.4375 7.726562 7.691406.019532 4.265625-3.425781 7.742188-7.691406 7.761719h-.109375c-.015625 0-.027343 0-.039062 0zm0 0"/></g></svg>