<svg height="511pt" viewBox="0 -100 511.99958 511" width="511pt" xmlns="http://www.w3.org/2000/svg"><path d="m466.699219 8.601562c-9.589844-7.398437-21.808594-9.882812-33.515625-6.820312l-365.707032 95.710938v15.972656l369.617188-96.734375c7.050781-1.84375 14.394531-.347657 20.160156 4.105469 5.769532 4.449218 9.074219 11.179687 9.074219 18.464843 0 4.269531 3.460937 7.726563 7.726563 7.726563 4.265624 0 7.726562-3.460938 7.726562-7.726563 0-12.109375-5.496094-23.296875-15.082031-30.699219zm0 0" fill="#935641"/><path d="m458.945312 101.265625-380.125-99.484375c-11.71875-3.0625-23.933593-.578125-33.519531 6.820312-9.585937 7.402344-15.082031 18.589844-15.082031 30.699219 0 4.269531 3.457031 7.726563 7.726562 7.726563 4.265626 0 7.722657-3.460938 7.722657-7.726563 0-7.285156 3.308593-14.015625 9.074219-18.464843 5.765624-4.453126 13.113281-5.949219 20.164062-4.105469l384.039062 100.507812zm0 0" fill="#a46a52"/><path d="m221.523438 195.382812c0 57.785157-46.84375 104.632813-104.628907 104.632813-57.785156 0-104.628906-46.847656-104.628906-104.632813 0-57.785156 46.84375-104.628906 104.628906-104.628906 57.785157 0 104.628907 46.84375 104.628907 104.628906zm0 0" fill="#fc4265"/><path d="m12.261719 195.386719c0-57.789063 46.84375-104.636719 104.636719-104.636719 6.621093 0 13.09375.621094 19.371093 1.804688-48.53125 9.074218-85.265625 51.664062-85.265625 102.832031 0 51.160156 36.734375 93.75 85.265625 102.824219-6.277343 1.183593-12.75 1.804687-19.371093 1.804687-57.792969 0-104.636719-46.847656-104.636719-104.628906zm0 0" fill="#c61a4f"/><path d="m499.738281 195.382812c0 57.785157-46.84375 104.632813-104.628906 104.632813s-104.628906-46.847656-104.628906-104.632813c0-57.785156 46.84375-104.628906 104.628906-104.628906s104.628906 46.84375 104.628906 104.628906zm0 0" fill="#fc4265"/><path d="m290.480469 195.386719c0-57.789063 46.84375-104.636719 104.625-104.636719 6.621093 0 13.09375.621094 19.371093 1.804688-48.53125 9.074218-85.253906 51.664062-85.253906 102.832031 0 51.160156 36.722656 93.75 85.253906 102.824219-6.277343 1.183593-12.75 1.804687-19.371093 1.804687-57.78125 0-104.625-46.847656-104.625-104.628906zm0 0" fill="#c61a4f"/><path d="m397.371094 78.511719c-49.269532-.9375-91.851563 28.785156-109.914063 71.335937-2.492187 5.867188-8.785156 9.257813-15.039062 8.027344-5.300781-1.042969-10.808594-1.585938-16.417969-1.585938-5.605469 0-11.117188.539063-16.417969 1.582032-6.253906 1.226562-12.550781-2.167969-15.042969-8.035156-18.066406-42.546876-60.644531-72.261719-109.914062-71.324219-62.65625 1.191406-113.589844 52.273437-114.609375 114.929687-1.0625 65.335938 51.777344 118.828125 116.875 118.828125 64.453125 0 116.890625-52.4375 116.890625-116.890625 0-.03125 0-.066406 0-.101562-.007812-6.5625 4.574219-12.234375 11.027344-13.441406 3.570312-.664063 7.328125-1.027344 11.191406-1.027344s7.617188.359375 11.1875 1.027344c6.453125 1.203124 11.039062 6.875 11.03125 13.441406v.101562c0 64.453125 52.4375 116.890625 116.890625 116.890625 65.097656 0 117.9375-53.492187 116.875-118.828125-1.019531-62.65625-51.957031-113.738281-114.613281-114.929687zm-280.480469 209.238281c-50.933594 0-92.371094-41.4375-92.371094-92.371094s41.4375-92.367187 92.371094-92.367187 92.371094 41.433593 92.371094 92.367187-41.4375 92.371094-92.371094 92.371094zm278.21875 0c-50.933594 0-92.371094-41.4375-92.371094-92.371094s41.4375-92.367187 92.371094-92.367187 92.371094 41.433593 92.371094 92.367187-41.4375 92.371094-92.371094 92.371094zm0 0" fill="#ffe8d9"/></svg>