<svg height="512pt" viewBox="-92 0 512 512" width="512pt" xmlns="http://www.w3.org/2000/svg"><path d="m62.789062 303.277344h93.234376v-256.660156c0-25.746094-20.871094-46.617188-46.617188-46.617188s-46.617188 20.871094-46.617188 46.617188zm0 0" fill="#cbd359"/><path d="m62.789062 46.617188v256.660156h29.199219v-256.660156c0-12.867188 5.214844-24.527344 13.660157-32.960938 5.089843-5.101562 11.363281-9.015625 18.359374-11.320312-4.589843-1.515626-9.5-2.335938-14.601562-2.335938-12.867188 0-24.527344 5.214844-32.960938 13.65625-8.441406 8.433594-13.65625 20.09375-13.65625 32.960938zm0 0" fill="#bec121"/><path d="m279.769531 196.976562c0 47.972657-38.886719 86.859376-86.859375 86.859376s-86.859375-38.886719-86.859375-86.859376c0-47.972656 38.886719-86.859374 86.859375-86.859374s86.859375 38.886718 86.859375 86.859374zm0 0" fill="#77bc4d"/><path d="m259.59375 141.304688c-13.078125-7.878907-28.40625-12.984376-44.769531-12.410157-50.691407 1.78125-88.375 39.878907-86.859375 86.863281.683594 21.175782 7.582031 40.597657 20.1875 55.683594-25.222656-15.203125-42.101563-42.867187-42.101563-74.464844 0-47.972656 38.886719-86.863281 86.859375-86.863281 26.785156.003907 50.742188 12.128907 66.683594 31.191407zm0 0" fill="#479838"/><path d="m199.75 176.972656c-13.753906-13.753906-7.15625-37.253906 11.738281-41.84375l14.308594-3.476562 19.269531 19.273437-3.476562 14.304688c-4.589844 18.898437-28.089844 25.492187-41.839844 11.742187zm0 0" fill="#f74f43"/><path d="m277.390625 99.328125c13.753906 13.75 7.160156 37.25-11.738281 41.84375l-14.308594 3.472656-19.269531-19.269531 3.476562-14.308594c4.589844-18.894531 28.089844-25.488281 41.839844-11.738281zm0 0" fill="#f74f43"/><path d="m199.75 99.328125c13.75-13.75 37.25-7.15625 41.839844 11.738281l3.476562 14.308594-19.269531 19.269531-14.308594-3.472656c-18.894531-4.59375-25.492187-28.09375-11.738281-41.84375zm0 0" fill="#ff7061"/><path d="m277.390625 176.972656c-13.75 13.75-37.25 7.15625-41.839844-11.742187l-3.476562-14.304688 19.269531-19.273437 14.308594 3.476562c18.898437 4.589844 25.492187 28.089844 11.738281 41.84375zm0 0" fill="#ff7061"/><path d="m258.378906 138.148438c0 10.941406-8.867187 19.8125-19.808594 19.8125-10.941406 0-19.808593-8.871094-19.808593-19.8125 0-10.9375 8.867187-19.808594 19.808593-19.808594 10.941407 0 19.808594 8.871094 19.808594 19.808594zm0 0" fill="#ffd2bc"/><path d="m152.808594 205.007812c-.929688 0-1.871094-.167968-2.789063-.523437l-4.765625-1.847656c-3.976562-1.542969-5.953125-6.019531-4.410156-9.996094 1.542969-3.980469 6.015625-5.957031 9.996094-4.410156l4.765625 1.847656c3.976562 1.542969 5.953125 6.019531 4.410156 9.996094-1.1875 3.058593-4.109375 4.933593-7.207031 4.933593zm0 0" fill="#cbd359"/><path d="m168.722656 188.824219c-3.078125 0-5.984375-1.847657-7.1875-4.882813l-1.890625-4.769531c-1.570312-3.96875.371094-8.457031 4.339844-10.03125 3.964844-1.566406 8.457031.371094 10.027344 4.339844l1.890625 4.769531c1.574218 3.964844-.371094 8.457031-4.335938 10.027344-.933594.371094-1.898437.546875-2.84375.546875zm0 0" fill="#cbd359"/><path d="m270.324219 254.097656c9.183593 0 17.859375 4.117188 23.734375 11.175782 21.554687 25.886718 34.382812 58.398437 34.382812 93.707031.003906 84.511719-73.523437 153.019531-164.21875 153.019531-90.699218 0-164.222656-68.507812-164.222656-153.019531 0-35.308594 12.832031-67.820313 34.386719-93.707031 5.871093-7.058594 14.550781-11.175782 23.730469-11.175782zm0 0" fill="#70efef"/><path d="m191.492188 509.898438c-8.871094 1.378906-17.976563 2.101562-27.269532 2.101562-90.699218 0-164.222656-68.507812-164.222656-153.023438 0-35.304687 12.828125-67.816406 34.386719-93.703124 5.875-7.058594 14.546875-11.179688 23.734375-11.179688h54.539062c-9.179687 0-17.863281 4.121094-23.734375 11.179688-21.550781 25.886718-34.386719 58.398437-34.386719 93.703124 0 75.863282 59.234376 138.816407 136.953126 150.921876zm0 0" fill="#42d2d9"/><g fill="#77bc4d"><path d="m88.242188 96.785156c-.925782 0-1.871094-.167968-2.789063-.523437-3.976563-1.542969-5.953125-6.019531-4.410156-10l1.855469-4.789063c1.542968-3.976562 6.019531-5.953125 10-4.410156 3.976562 1.542969 5.953124 6.019531 4.410156 9.996094l-1.859375 4.792968c-1.1875 3.058594-4.109375 4.933594-7.207031 4.933594zm0 0"/><path d="m104.519531 112.78125c-3.074219 0-5.980469-1.851562-7.183593-4.882812-1.570313-3.96875.367187-8.457032 4.335937-10.03125l4.796875-1.898438c3.96875-1.570312 8.457031.367188 10.027344 4.335938 1.574218 3.964843-.367188 8.457031-4.335938 10.027343l-4.796875 1.902344c-.933593.371094-1.894531.546875-2.84375.546875zm0 0"/></g></svg>