<svg height="512pt" viewBox="-108 0 512 512.001" width="512pt" xmlns="http://www.w3.org/2000/svg"><path d="m188.613281 126.828125c0 22.300781-18.082031 40.378906-40.382812 40.378906s-40.382813-18.078125-40.382813-40.378906c0-22.304687 18.082032-40.382813 40.382813-40.382813s40.382812 18.078126 40.382812 40.382813zm0 0" fill="#cbd359"/><path d="m219.648438 90.363281c0 27.292969-22.125 49.417969-49.417969 49.417969s-49.417969-22.125-49.417969-49.417969 22.125-90.363281 49.417969-90.363281 49.417969 63.070312 49.417969 90.363281zm0 0" fill="#fc4265"/><path d="m175.652344 90.363281c0 27.292969-22.125 49.417969-49.417969 49.417969s-49.421875-22.125-49.421875-49.417969 22.128906-90.363281 49.421875-90.363281 49.417969 63.070312 49.417969 90.363281zm0 0" fill="#fd748c"/><path d="m96.8125 90.355469c0-23.863281 16.917969-75.082031 39.417969-87.570313-3.230469-1.792968-6.574219-2.785156-9.996094-2.785156-27.292969 0-49.421875 63.070312-49.421875 90.363281s22.128906 49.417969 49.421875 49.417969c3.429687 0 6.777344-.351562 10.007813-1.015625-22.503907-4.621094-39.429688-24.539063-39.429688-48.410156zm0 0" fill="#fc4265"/><path d="m148.230469 280.753906c-4.265625 0-7.726563-3.457031-7.726563-7.726562v-112c0-4.265625 3.460938-7.726563 7.726563-7.726563s7.726562 3.460938 7.726562 7.726563v112c0 4.269531-3.460937 7.726562-7.726562 7.726562zm0 0" fill="#aaaa0c"/><path d="m172.085938 292.902344c-5.640626-8.132813-11.527344-16.398438-17.644532-24.742188-62.222656-84.863281-124.058594-145.300781-138.117187-134.992187-13.359375 9.796875 21.238281 79.957031 78.105469 159.734375zm0 0" fill="#479838"/><path d="m33.875 137.230469c-8.132812-4.949219-14.199219-6.519531-17.550781-4.0625-13.359375 9.796875 21.238281 79.957031 78.105469 159.734375h20c-51.769532-72.625-85.074219-137.269532-80.554688-155.671875zm0 0" fill="#317f21"/><path d="m202.03125 292.902344c56.867188-79.777344 91.464844-149.9375 78.105469-159.734375-14.058594-10.308594-75.894531 50.128906-138.117188 134.992187-6.117187 8.34375-12.003906 16.609375-17.644531 24.742188zm0 0" fill="#77bc4d"/><path d="m244 279.210938c8.289062 0 16.121094 3.71875 21.425781 10.085937 19.453125 23.371094 31.035157 52.714844 31.035157 84.585937 0 76.28125-66.363282 138.117188-148.230469 138.117188-81.867188 0-148.230469-61.835938-148.230469-138.117188 0-31.871093 11.582031-61.214843 31.039062-84.585937 5.300782-6.367187 13.132813-10.085937 21.421876-10.085937zm0 0" fill="#edf1d3"/><path d="m172.84375 510.101562c-8.003906 1.246094-16.226562 1.898438-24.613281 1.898438-81.863281 0-148.230469-61.835938-148.230469-138.121094 0-31.867187 11.578125-61.214844 31.039062-84.582031 5.300782-6.367187 13.132813-10.089844 21.425782-10.089844h49.226562c-8.285156 0-16.125 3.722657-21.425781 10.089844-19.453125 23.367187-31.039063 52.714844-31.039063 84.582031 0 68.472656 53.46875 125.300782 123.617188 136.222656zm0 0" fill="#d0daad"/></svg>