<svg height="512pt" viewBox="0 -8 512.00078 512" width="512pt" xmlns="http://www.w3.org/2000/svg"><path d="m82.171875 463.261719c-8.457031 0-15.3125-6.859375-15.3125-15.316407v-279.472656c0-92.894531 75.578125-168.472656 168.472656-168.472656 92.898438 0 168.476563 75.578125 168.476563 168.472656v88.011719c0 8.457031-6.859375 15.316406-15.316406 15.316406-8.457032 0-15.3125-6.859375-15.3125-15.316406v-88.011719c0-76.007812-61.839844-137.84375-137.847657-137.84375-76.007812 0-137.84375 61.835938-137.84375 137.84375v279.472656c0 8.457032-6.855469 15.316407-15.316406 15.316407zm0 0" fill="#a2d962"/><path d="m362.488281 361.921875c-.679687 8.835937-4.007812 23.015625-16.628906 37.488281-4.527344 5.191406-3.988281 13.070313 1.203125 17.597656 2.367188 2.0625 5.285156 3.074219 8.195312 3.074219 3.480469 0 6.941407-1.445312 9.40625-4.277343 17.691407-20.285157 22.058594-40.84375 22.757813-53.882813zm0 0" fill="#fff4c3"/><path d="m428.636719 365.492188c.683593 8.835937 4.011719 23.015624 16.628906 37.484374 4.527344 5.195313 3.988281 13.074219-1.203125 17.601563-2.363281 2.0625-5.285156 3.074219-8.195312 3.074219-3.476563 0-6.9375-1.445313-9.40625-4.277344-17.6875-20.285156-22.054688-40.84375-22.753907-53.882812zm0 0" fill="#ffe671"/><path d="m353.488281 375.425781c35.324219 0 63.960938-28.636719 63.960938-63.960937v-15.425782c0-5.714843 4.632812-10.351562 10.347656-10.351562h73.851563c5.71875 0 10.351562 4.636719 10.351562 10.351562v15.425782c0 35.324218-28.636719 63.960937-63.960938 63.960937zm0 0" fill="#b967f9"/><path d="m439.492188 375.425781h-112.8125v-163.152343c0-31.152344 25.253906-56.40625 56.40625-56.40625 31.152343 0 56.40625 25.253906 56.40625 56.40625zm0 0" fill="#c88dff"/><path d="m393.085938 156.769531c-3.246094-.582031-6.585938-.902343-10-.902343-31.152344 0-56.40625 25.253906-56.40625 56.40625v163.152343h20v-163.152343c0-27.738282 20.027343-50.78125 46.40625-55.503907zm0 0" fill="#b967f9"/><path d="m412.683594 375.425781c-35.324219 0-63.957032-28.636719-63.957032-63.960937v-15.425782c0-5.714843-4.636718-10.351562-10.351562-10.351562h-73.851562c-5.71875 0-10.351563 4.636719-10.351563 10.351562v15.425782c0 35.324218 28.636719 63.960937 63.960937 63.960937zm0 0" fill="#d3b5ff"/><path d="m342.789062 375.425781h-24.652343c-35.328125 0-63.960938-28.640625-63.960938-63.960937v-15.429688c0-5.714844 4.632813-10.347656 10.351563-10.347656h24.660156c-5.71875 0-10.351562 4.632812-10.351562 10.347656v15.429688c0 35.320312 28.632812 63.960937 63.953124 63.960937zm0 0" fill="#c88dff"/><path d="m121.480469 495.148438h-100.128907c-6.78125 0-11.707031-6.429688-9.941406-12.976563 13.289063-49.210937 10.203125-102.519531-10.746094-150.992187-2.914062-6.75 4.507813-13.328126 10.808594-9.539063 26.121094 15.707031 49.5 36.898437 68.339844 63.253906 1.945312 2.726563 3.820312 5.476563 5.632812 8.253907 20.621094 31.625 32.453126 66.617187 36.035157 102zm0 0" fill="#77bc4d"/><path d="m26.144531 495.152344h-4.792969c-6.765624 0-11.714843-6.414063-9.953124-12.941406 13.304687-49.234376 10.21875-102.566407-10.746094-151.066407-2.917969-6.746093 4.523437-13.289062 10.820312-9.5 2.492188 1.496094 4.96875 3.046875 7.410156 4.652344-.386718 1.496094-.300781 3.167969.425782 4.847656 22.820312 52.785157 24.460937 111.292969 6.835937 164.007813zm0 0" fill="#479838"/><path d="m141.375 483.53125c-4.882812-40.605469 1-82.566406 18.355469-121.25 3.011719-6.710938-4.320313-13.394531-10.671875-9.691406-26.332032 15.34375-50.007813 36.207031-69.207032 62.296875-18.265624 24.824219-30.796874 52.105469-37.847656 80.261719h89.152344c6.214844 0 10.960938-5.449219 10.21875-11.617188zm0 0" fill="#cbd359"/></svg>