<svg height="512pt" viewBox="-94 0 512 512" width="512pt" xmlns="http://www.w3.org/2000/svg"><path d="m205.664062 78.839844c-23.769531 23.769531-23.769531 62.304687 0 86.074218 23.769532 23.769532 62.304688 23.769532 86.074219 0 23.769531-23.769531 45.980469-84.519531 22.210938-108.285156-23.765625-23.769531-84.515625-1.558594-108.285157 22.210938zm0 0" fill="#77bc4d"/><path d="m205.664062 78.84375c-14.710937 14.703125-20.3125 35.066406-16.820312 54.074219 2.152344-11.722657 7.753906-22.933594 16.820312-31.988281 23.765626-23.765626 84.515626-45.976563 108.28125-22.210938 5.019532 5.007812 7.984376 11.664062 9.324219 19.265625 2.320313-16.535156.15625-31.882813-9.324219-41.363281-23.765624-23.765625-84.511718-1.554688-108.28125 22.222656zm0 0" fill="#479838"/><path d="m273.621094 97.988281c-3.015625-3.015625-7.90625-3.015625-10.925782 0l-85.074218 85.074219c-3.507813-13.640625-10.601563-26.152344-20.820313-36.371094l-29.1875-29.183594c-3.015625-3.019531-7.90625-3.019531-10.925781 0-3.015625 3.015626-3.015625 7.90625 0 10.925782l29.183594 29.183594c12.140625 12.140624 18.828125 28.285156 18.828125 45.453124v70.195313c0 4.265625 3.457031 7.726563 7.726562 7.726563 4.265625 0 7.722657-3.460938 7.722657-7.726563v-70.195313c0-.222656-.011719-.445312-.015626-.667968l93.488282-93.488282c3.019531-3.015624 3.019531-7.90625 0-10.925781zm0 0" fill="#479838"/><path d="m89.765625 100.472656-5.921875 24.40625c-2.328125 9.582032-7.5 17.308594-14.25 22.820313-15.945312 13.03125-40.640625 13.679687-57.113281-2.804688-16.460938-16.460937-15.832031-41.113281-2.839844-57.058593 5.507813-6.769532 13.257813-11.972657 22.859375-14.300782l24.402344-5.925781zm0 0" fill="#f74f43"/><path d="m56.902344 67.609375 32.863281 32.863281-5.921875 24.40625c-2.328125 9.582032-7.5 17.308594-14.25 22.820313-4.183594-5.761719-7.300781-12.394531-9.074219-19.65625l-1.566406-6.492188c-5.007813-2.308593-9.609375-5.488281-13.617187-9.507812-4.0625-4.058594-7.222657-8.675781-9.488282-13.609375l-6.5-1.574219c-7.285156-1.773437-13.941406-4.851563-19.707031-9.023437 5.507813-6.769532 13.257813-11.972657 22.859375-14.300782zm0 0" fill="#ce2828"/><path d="m147.742188 69.539062c-5.519532 6.765626-13.257813 11.96875-22.867188 14.296876l-24.394531 5.933593-32.875-32.871093 5.933593-24.394532c2.328126-9.582031 7.5-17.308594 14.246094-22.828125 15.9375-13.023437 40.632813-13.671875 57.113282 2.800781 16.464843 16.460938 15.828124 41.113282 2.84375 57.0625zm0 0" fill="#f74f43"/><path d="m147.742188 69.539062c-5.519532 6.765626-13.257813 11.96875-22.867188 14.296876l-24.394531 5.933593-32.875-32.871093 5.933593-24.394532c2.328126-9.582031 7.5-17.308594 14.246094-22.828125 4.175782 5.757813 7.304688 12.390625 9.066406 19.664063l1.578126 6.480468c4.996093 2.308594 9.613281 5.5 13.617187 9.507813 4.058594 4.058594 7.210937 8.683594 9.488281 13.621094l6.5 1.574219c7.285156 1.773437 13.929688 4.851562 19.707032 9.015624zm0 0" fill="#ce2828"/><path d="m12.480469 12.480469c23.449219-23.453125 63.53125-12.207031 71.359375 20.023437l5.925781 24.398438-32.863281 32.867187-24.398438-5.929687c-32.230468-7.828125-43.476562-47.90625-20.023437-71.359375zm0 0" fill="#ff7061"/><path d="m144.898438 144.898438c-23.453126 23.453124-63.53125 12.207031-71.363282-20.023438l-5.925781-24.398438 32.867187-32.867187 24.398438 5.929687c32.230469 7.828126 43.476562 47.90625 20.023438 71.359376zm0 0" fill="#ff7061"/><path d="m112.472656 78.6875c0 18.660156-15.125 33.785156-33.785156 33.785156-18.65625 0-33.78125-15.125-33.78125-33.785156 0-18.65625 15.125-33.78125 33.78125-33.78125 18.660156 0 33.785156 15.125 33.785156 33.78125zm0 0" fill="#ffd2bc"/><path d="m253.0625 259.71875c-17.78125-25.472656-47.289062-42.148438-80.707031-42.148438s-62.925781 16.675782-80.703125 42.148438zm0 0" fill="#cbd359"/><path d="m261.457031 512h-173.664062c-5.171875 0-9.476563-3.964844-9.898438-9.117188l-16.527343-200.511718h226.519531l-16.527344 200.511718c-.425781 5.152344-4.730469 9.117188-9.902344 9.117188zm0 0" fill="#d0daad"/><path d="m116.605469 512h-28.8125c-5.164063 0-9.476563-3.964844-9.902344-9.121094l-16.523437-200.507812h28.8125l16.519531 200.507812c.429687 5.15625 4.742187 9.121094 9.90625 9.121094zm0 0" fill="#b9c394"/><path d="m292.101562 320.277344h-234.949218c-5.488282 0-9.933594-4.449219-9.933594-9.933594v-48.703125c0-5.488281 4.445312-9.9375 9.933594-9.9375h234.945312c5.488282 0 9.9375 4.449219 9.9375 9.9375v48.703125c0 5.484375-4.449218 9.933594-9.933594 9.933594zm0 0" fill="#fff0d0"/><path d="m85.964844 320.273438h-28.808594c-5.496094 0-9.9375-4.449219-9.9375-9.933594v-48.699219c0-5.484375 4.441406-9.9375 9.9375-9.9375h28.808594c-5.492188 0-9.933594 4.453125-9.933594 9.9375v48.699219c0 5.484375 4.441406 9.933594 9.933594 9.933594zm0 0" fill="#ead2c1"/><path d="m288.230469 355.78125c0 4.277344-3.460938 7.726562-7.726563 7.726562h-211.15625c-4.265625 0-7.726562-3.449218-7.726562-7.726562 0-4.261719 3.460937-7.722656 7.726562-7.722656h211.15625c4.265625 0 7.726563 3.460937 7.726563 7.722656zm0 0" fill="#fff0d0"/><path d="m95.214844 363.511719h-25.867188c-4.265625 0-7.726562-3.453125-7.726562-7.726563 0-4.265625 3.460937-7.726562 7.726562-7.726562h24.589844zm0 0" fill="#ead2c1"/></svg>